#VRML V2.0 utf8
# 3D model generated by easyeda2kicad.py (https://github.com/uPesy/easyeda2kicad.py)

Shape{
    appearance Appearance {
        material  Material 	{
            diffuseColor 0.5882352941176471 0.5725490196078431 0.5254901960784314
            specularColor 0.043137254901960784 0.0392156862745098 0.0392156862745098
            ambientIntensity 0.8167
            transparency 0.0
            shininess 0.5
        }
    }
    geometry IndexedFaceSet {
        ccw TRUE
        solid FALSE
        coord DEF co Coordinate {
            point [
                -1.3189 0.6654 1.7126, -1.3189 0.6654 2.2047, 1.3189 0.6654 2.2047, 1.7717 0.6654 1.7126, 1.7717 0.6654 2.2047, 2.3622 0.6654 2.2047, -1.0827 0.6654 1.1939, -1.2795 0.6654 1.1939, -2.3622 0.6654 2.2047, -1.7717 0.6654 2.2047, -1.7717 0.6654 1.7126, -1.0827 0.6654 0.0888, 0.1032 0.6654 0.0394, -2.0866 0.6654 0.0394, -2.0866 0.6654 1.3386, -2.3622 0.6654 1.3386, 1.2795 0.6654 1.1939, 2.0866 0.6654 1.3386, 1.2795 0.6654 0.0888, 2.0866 0.6654 0.0394, 1.0827 0.6654 0.0888, -1.2795 0.6654 0.0888, -0.4921 0.6654 1.1939, -0.4921 0.6654 0.0888, 1.3189 0.6654 1.7126, 0.4921 0.6654 0.0888, 0.4921 0.6654 1.1939, 0.2953 0.6654 1.1939, -0.2953 0.6654 0.0888, -0.2953 0.6654 1.1939, 0.2953 0.6654 0.0888, 1.0827 0.6654 1.1939, 2.3622 0.6654 1.3386, 1.3189 -0.8701 2.2047, -1.3189 -0.8701 2.2047, 2.3622 -1.4331 2.2047, 1.7717 -0.8701 2.2047, 2.0472 -1.4331 2.2047, 2.0472 -1.748 2.2047, -1.7717 -0.8701 2.2047, -2.3622 -1.4331 2.2047, -2.0472 -1.4331 2.2047, -2.0472 -1.748 2.2047, 1.3189 -0.8701 1.7126, 1.7717 -0.8701 1.7126, 1.7717 -1.6693 1.7126, 0.6299 0.2205 1.7126, 1.3189 0.2205 1.7126, 0.6299 -1.6693 1.7126, 0.7087 -1.748 1.7126, 1.8504 -1.748 1.7126, 0.1685 -0.7401 0.0394, 0.1879 -0.7423 0.0394, 0.126 -0.8879 0.0394, 2.0866 1.2402 0.0394, 2.3622 1.2402 0.0394, 2.3622 -0.6457 0.0394, 2.0472 -0.6457 0.0394, 2.0669 -0.6457 0.0394, 2.185 -0.6457 0.0394, 0.2026 -0.7476 0.0394, 0.2163 -0.7567 0.0394, 0.2282 -0.7698 0.0394, 0.2425 -0.8214 0.0394, 0.2405 -0.8427 0.0394, 0.2351 -0.8597 0.0394, 0.1913 -0.8965 0.0394, 0.173 -0.8985 0.0394, 0.2057 -0.8912 0.0394, 0.2177 -0.8831 0.0394, 0.227 -0.8733 0.0394, 0.1468 -0.8956 0.0394, 0.1446 -0.7432 0.0394, 0.1224 -0.8859 0.0394, 0.1224 -0.7527 0.0394, 0.1224 -0.7263 0.0394, 0.2363 -0.785 0.0394, 0.2415 -0.8061 0.0394, 0.3865 -0.9178 0.0394, 0.1882 -0.919 0.0394, 0.2857 -0.9178 0.0394, 0.2009 -0.9176 0.0394, 0.2199 -0.9111 0.0394, 0.2358 -0.901 0.0394, 0.2506 -0.8854 0.0394, 0.2857 -0.8961 0.0394, 0.261 -0.8667 0.0394, 0.3601 -0.8961 0.0394, 0.2469 -0.7543 0.0394, 0.2292 -0.7373 0.0394, 0.2105 -0.7265 0.0394, 0.1885 -0.7201 0.0394, 0.267 -0.8458 0.0394, 0.2689 -0.823 0.0394, 0.3601 -0.7209 0.0394, 0.266 -0.7951 0.0394, 0.2585 -0.7727 0.0394, 0.1688 -0.7185 0.0394, 0.1452 -0.7201 0.0394, 0.1224 -0.9075 0.0394, 0.1434 -0.9162 0.0394, 0.1032 -0.919 0.0394, 0.1633 -0.919 0.0394, 0.1032 -1.748 0.0394, 0.1712 -0.9201 0.0394, 0.1766 -0.9202 0.0394, 0.3865 -0.7209 0.0394, 2.0472 -0.919 0.0394, 2.0472 -1.748 0.0394, -0.012 -0.8289 0.0394, 0.0576 -0.8289 0.0394, 0.0576 -0.8961 0.0394, -0.0216 -0.9178 0.0394, -0.06 -0.9178 0.0394, -0.0216 -0.8961 0.0394, -0.06 -0.7209 0.0394, 0.084 -0.9178 0.0394, 0.084 -0.7209 0.0394, -0.0168 -0.7209 0.0394, -0.2329 -0.9178 0.0394, -0.2086 -0.8638 0.0394, -0.1973 -0.8814 0.0394, -2.3622 1.2402 0.0394, -2.0866 1.2402 0.0394, 0.0576 -0.7425 0.0394, 0.0576 -0.8073 0.0394, -0.0168 -0.7425 0.0394, -0.012 -0.8073 0.0394, -0.1811 -0.8969 0.0394, -0.1606 -0.9089 0.0394, -0.1379 -0.9156 0.0394, -2.0472 -0.919 0.0394, -2.0472 -0.6457 0.0394, -0.3337 -0.7209 0.0394, -0.3073 -0.7209 0.0394, -2.3622 -0.6457 0.0394, -2.185 -0.6457 0.0394, -2.0669 -0.6457 0.0394, -0.144 -0.7239 0.0394, -0.167 -0.732 0.0394, -0.1885 -0.7464 0.0394, -0.1156 -0.7209 0.0394, -0.4105 -0.9178 0.0394, -0.3817 -0.9178 0.0394, -0.1887 -0.7466 0.0394, -0.2026 -0.762 0.0394, -0.2117 -0.7789 0.0394, -0.217 -0.7983 0.0394, -0.2185 -0.8169 0.0394, -0.2157 -0.8432 0.0394, -0.1135 -0.9178 0.0394, -0.3618 -0.8625 0.0394, -0.2805 -0.8625 0.0394, -0.2617 -0.9178 0.0394, -2.0472 -1.748 0.0394, 2.0472 -1.4331 0.315, 2.0472 -0.6457 0.315, 2.0669 -1.4331 0.315, 2.0669 -0.6457 0.315, -2.0669 -0.6457 0.315, -2.0472 -0.6457 0.315, -2.0669 -1.4331 0.315, -2.0472 -1.4331 0.315, -2.3622 -0.6457 0.315, -2.3622 -1.4331 0.315, -2.3622 -1.4331 1.1024, -2.3622 -1.4331 1.9685, -2.3622 -0.6457 1.9685, -2.3622 -0.6457 1.4567, -2.3622 0.4291 1.1024, -2.3622 0.4291 1.4567, -2.3622 1.2402 1.0067, -2.0669 -1.4331 0.9055, -2.0472 -1.4331 1.1024, -2.185 -1.4331 0.9055, -2.185 -1.4331 0.315, 2.3622 -0.6457 1.9685, 2.3622 -1.4331 1.9685, 2.3622 -1.4331 1.1024, 2.3622 -1.4331 0.315, 2.3622 0.4291 1.1024, 2.3622 -0.6457 0.315, 2.3622 1.2402 1.0067, 2.3622 -0.6457 1.4567, 2.3622 0.4291 1.4567, 2.0472 -0.6457 1.9685, 2.0472 -0.6457 1.4567, 1.8504 -1.748 1.1024, 2.0472 -1.748 1.1024, 1.7717 -1.6693 1.1024, 2.0472 -1.4331 1.1024, 2.0472 0.4291 1.1024, 2.0472 -1.0984 1.1024, 1.7717 -1.0984 1.1024, 2.0472 -1.4331 1.9685, -2.0472 -1.748 1.4567, -1.8504 -1.748 1.4567, -1.8504 -1.748 1.7126, -0.7087 -1.748 1.7126, -0.7087 -1.748 2.0669, 0.7087 -1.748 2.0669, 1.8504 -1.748 1.4567, 2.0472 -1.748 1.4567, -1.8504 -1.748 0.2362, -1.8504 -1.748 1.1024, -2.0472 -1.748 1.1024, 1.8504 -1.748 0.2362, 1.7717 -1.0567 1.1197, 1.7717 0.2205 0.315, 1.7717 -1.0689 1.1103, 1.7717 -1.0831 1.1044, 1.7717 -1.0394 1.3976, 1.7717 -1.0414 1.4129, 1.7717 -1.6693 1.4567, 1.7717 -1.0984 1.4567, 1.7717 -1.0831 1.4547, 1.7717 -1.0689 1.4488, 1.7717 -1.6693 0.315, 1.7717 -1.0473 1.1319, 1.7717 -1.0414 1.1461, 1.7717 -1.0394 1.1614, 1.7717 -1.0473 1.4272, 1.7717 -1.0567 1.4394, 1.7717 0.2205 1.7126, -1.7717 -1.6693 0.315, -1.7717 -1.6693 1.1024, -1.7717 0.2205 0.315, -1.7717 0.2205 1.7126, -1.7717 -0.8701 1.7126, -1.7717 -1.0689 1.4488, -1.7717 -1.0567 1.4394, -1.7717 -1.0831 1.4547, -1.7717 -1.0473 1.4272, -1.7717 -1.0414 1.4129, -1.7717 -1.0394 1.3976, -1.7717 -1.0394 1.1614, -1.7717 -1.0414 1.1461, -1.7717 -1.0473 1.1319, -1.7717 -1.0567 1.1197, -1.7717 -1.0689 1.1103, -1.7717 -1.0831 1.1044, -1.7717 -1.0984 1.1024, -1.7717 -1.6693 1.7126, -1.7717 -1.6693 1.4567, -1.7717 -1.0984 1.4567, -1.3189 -0.8701 1.7126, -1.3189 0.2205 1.7126, -0.6299 0.2205 1.7126, -0.6299 -1.6693 1.7126, -0.4921 0.2205 1.378, -0.2953 0.2205 1.378, 1.2795 0.2205 1.378, 1.2795 0.2205 1.1811, 1.0827 0.2205 1.1811, -1.0827 0.2205 1.1811, -1.2795 0.2205 1.1811, -1.2795 0.2205 1.378, 0.6299 0.2205 1.9882, -0.6299 0.2205 1.9882, 1.0827 0.2205 1.378, 0.2953 0.2205 1.1811, 0.4921 0.2205 1.1811, 0.4921 0.2205 1.378, 0.2953 0.2205 1.378, -0.2953 0.2205 1.1811, -0.4921 0.2205 1.1811, -1.0827 0.2205 1.378, 0.6299 -1.6693 1.9882, -0.6299 -1.6693 1.9882, -2.0472 0.4291 1.1024, -2.0472 -1.0984 1.1024, -2.0472 -1.0984 1.4567, -2.0472 -1.0394 1.1614, -2.0472 -1.0394 1.3976, -2.0472 -1.4331 1.9685, -2.0472 -1.0831 1.1044, -2.0472 -1.0567 1.1197, -2.0472 -0.6457 1.4567, -2.0472 0.4291 1.4567, -2.0472 -1.0689 1.1103, -2.0472 -1.0473 1.1319, -2.0472 -1.0414 1.1461, -2.0472 -1.0414 1.4129, -2.0472 -0.6457 1.9685, -2.0472 -1.0473 1.4272, -2.0472 -1.0567 1.4394, -2.0472 -1.0689 1.4488, -2.0472 -1.0831 1.4547, -2.0866 1.2402 1.0067, 2.0472 -1.0984 1.4567, 2.0472 -1.0394 1.1614, 2.0472 -1.0394 1.3976, 2.0472 -1.0831 1.1044, 2.0472 0.4291 1.4567, 2.0472 -1.0414 1.1461, 2.0472 -1.0473 1.1319, 2.0472 -1.0567 1.1197, 2.0472 -1.0689 1.1103, 2.0472 -1.0689 1.4488, 2.0472 -1.0567 1.4394, 2.0472 -1.0473 1.4272, 2.0472 -1.0414 1.4129, 2.0472 -1.0831 1.4547, 2.0669 -1.4331 0.9055, 2.185 -1.4331 0.315, 2.185 -1.4331 0.9055, 2.0866 1.2402 1.0067, 2.185 -0.6457 0.315, -2.185 -0.6457 0.315
            ]
        }
        coordIndex [
            0,1,2,-1,3,4,5,-1,2,6,7,-1,8,9,10,-1,11,12,13,-1,0,14,10,-1,10,14,15,-1,10,15,8,-1,16,17,18,-1,18,17,19,-1,18,19,20,-1,0,2,14,-1,14,2,7,-1,14,7,13,-1,13,7,21,-1,13,21,11,-1,22,23,11,-1,24,25,2,-1,2,25,26,-1,2,26,27,-1,11,23,12,-1,12,23,28,-1,12,28,29,-1,11,6,22,-1,22,6,2,-1,22,2,29,-1,29,2,27,-1,29,27,12,-1,12,27,30,-1,12,30,25,-1,19,12,20,-1,20,12,25,-1,20,25,31,-1,31,25,24,-1,31,24,16,-1,16,24,3,-1,16,3,17,-1,17,3,5,-1,17,5,32,-1,2,1,33,-1,33,1,34,-1,5,4,35,-1,35,4,36,-1,35,36,37,-1,37,36,33,-1,37,33,38,-1,9,8,39,-1,39,8,40,-1,39,40,34,-1,34,40,41,-1,34,41,33,-1,33,41,42,-1,33,42,38,-1,43,44,45,-1,46,47,48,-1,48,47,43,-1,48,43,49,-1,49,43,45,-1,49,45,50,-1,51,52,53,-1,54,55,19,-1,19,55,56,-1,57,12,58,-1,58,12,19,-1,58,19,59,-1,59,19,56,-1,52,60,53,-1,53,60,61,-1,53,61,62,-1,63,64,53,-1,53,64,65,-1,66,67,68,-1,68,67,69,-1,65,70,53,-1,53,70,69,-1,53,69,71,-1,71,69,67,-1,51,53,72,-1,72,53,73,-1,72,73,74,-1,74,73,12,-1,74,12,75,-1,62,76,53,-1,53,76,77,-1,53,77,63,-1,78,79,80,-1,80,79,81,-1,80,81,82,-1,82,83,80,-1,80,83,84,-1,80,84,85,-1,85,84,86,-1,85,86,87,-1,88,89,12,-1,12,89,90,-1,12,90,91,-1,86,92,87,-1,87,92,93,-1,87,93,94,-1,94,93,95,-1,94,95,96,-1,91,97,12,-1,12,97,98,-1,12,98,75,-1,99,100,101,-1,101,100,102,-1,101,102,103,-1,102,104,103,-1,103,104,105,-1,103,105,79,-1,96,88,94,-1,94,88,12,-1,94,12,106,-1,106,12,57,-1,106,57,78,-1,78,57,107,-1,78,107,79,-1,79,107,108,-1,79,108,103,-1,109,110,111,-1,112,113,114,-1,114,113,115,-1,101,116,117,-1,118,13,117,-1,117,13,12,-1,117,12,101,-1,101,12,73,-1,101,73,99,-1,119,120,121,-1,122,123,13,-1,124,125,126,-1,126,125,127,-1,126,127,115,-1,115,127,109,-1,115,109,114,-1,114,109,111,-1,121,128,119,-1,119,128,129,-1,119,129,130,-1,131,132,133,-1,133,132,13,-1,133,13,134,-1,135,122,136,-1,136,122,13,-1,136,13,137,-1,137,13,132,-1,138,139,134,-1,134,139,140,-1,138,134,141,-1,141,134,13,-1,141,13,115,-1,115,13,118,-1,115,118,126,-1,142,143,101,-1,140,144,134,-1,134,144,145,-1,134,145,146,-1,146,147,134,-1,134,147,148,-1,134,148,119,-1,119,148,149,-1,119,149,120,-1,150,113,101,-1,101,113,112,-1,101,112,116,-1,151,152,143,-1,143,152,153,-1,143,153,101,-1,101,153,119,-1,101,119,150,-1,150,119,130,-1,133,142,131,-1,131,142,101,-1,131,101,154,-1,154,101,103,-1,155,156,157,-1,157,156,158,-1,156,57,158,-1,158,57,58,-1,159,160,161,-1,161,160,162,-1,137,132,159,-1,159,132,160,-1,163,164,165,-1,166,40,167,-1,167,40,8,-1,167,8,168,-1,165,169,163,-1,163,169,122,-1,163,122,135,-1,168,8,170,-1,170,8,15,-1,170,15,169,-1,169,15,171,-1,169,171,122,-1,161,162,172,-1,172,162,173,-1,172,173,174,-1,174,173,165,-1,174,165,175,-1,175,165,164,-1,5,35,176,-1,176,35,177,-1,178,179,180,-1,180,179,181,-1,180,181,56,-1,55,182,32,-1,176,183,5,-1,5,183,184,-1,5,184,32,-1,32,184,180,-1,32,180,55,-1,55,180,56,-1,176,185,183,-1,183,185,186,-1,187,188,189,-1,189,188,190,-1,180,191,178,-1,178,191,192,-1,178,192,190,-1,190,192,193,-1,190,193,189,-1,194,185,177,-1,177,185,176,-1,195,196,42,-1,42,196,197,-1,42,197,198,-1,198,199,42,-1,42,199,200,-1,42,200,38,-1,201,202,50,-1,50,202,38,-1,50,38,49,-1,49,38,200,-1,203,204,205,-1,205,154,203,-1,203,154,103,-1,203,103,206,-1,206,103,108,-1,206,108,187,-1,187,108,188,-1,207,208,209,-1,209,208,210,-1,211,212,44,-1,213,45,214,-1,214,45,44,-1,214,44,215,-1,215,44,216,-1,210,208,193,-1,193,208,217,-1,193,217,189,-1,207,218,208,-1,208,218,219,-1,208,219,220,-1,212,221,44,-1,44,221,222,-1,44,222,216,-1,220,211,208,-1,208,211,44,-1,208,44,223,-1,223,44,36,-1,223,36,3,-1,3,36,4,-1,201,50,213,-1,213,50,45,-1,189,217,187,-1,187,217,206,-1,203,224,204,-1,204,224,225,-1,217,208,224,-1,224,208,226,-1,10,9,227,-1,227,9,39,-1,227,39,226,-1,226,39,228,-1,229,230,228,-1,229,228,231,-1,230,232,228,-1,228,232,233,-1,228,233,226,-1,226,233,234,-1,226,234,235,-1,235,236,226,-1,226,236,237,-1,226,237,238,-1,238,239,226,-1,226,239,240,-1,226,240,224,-1,224,240,241,-1,224,241,225,-1,242,243,228,-1,228,243,244,-1,228,244,231,-1,245,246,247,-1,198,197,242,-1,242,228,198,-1,198,228,245,-1,198,245,248,-1,248,245,247,-1,249,250,247,-1,251,252,208,-1,208,252,253,-1,208,254,226,-1,226,254,255,-1,226,255,227,-1,227,255,256,-1,250,46,247,-1,247,46,257,-1,247,257,258,-1,208,223,251,-1,251,223,47,-1,251,47,259,-1,259,47,46,-1,259,46,253,-1,260,208,261,-1,261,208,253,-1,261,253,262,-1,262,253,46,-1,262,46,263,-1,263,46,250,-1,263,250,260,-1,260,250,264,-1,260,264,208,-1,208,264,265,-1,208,265,254,-1,254,265,249,-1,254,249,266,-1,266,249,247,-1,266,247,256,-1,256,247,246,-1,256,246,227,-1,224,203,217,-1,217,203,206,-1,242,197,243,-1,243,197,196,-1,267,257,48,-1,48,257,46,-1,268,258,267,-1,267,258,257,-1,248,247,268,-1,268,247,258,-1,200,267,49,-1,49,267,48,-1,199,268,200,-1,200,268,267,-1,198,248,199,-1,199,248,268,-1,173,205,204,-1,269,169,270,-1,270,169,165,-1,270,165,241,-1,241,165,173,-1,241,173,225,-1,225,173,204,-1,196,195,243,-1,243,195,271,-1,243,271,244,-1,235,234,272,-1,272,234,273,-1,42,41,195,-1,195,41,274,-1,269,270,275,-1,276,277,278,-1,269,275,278,-1,278,275,279,-1,278,279,276,-1,276,280,277,-1,277,280,281,-1,277,281,272,-1,272,273,277,-1,277,273,282,-1,277,282,283,-1,283,282,284,-1,283,284,285,-1,285,286,283,-1,283,286,287,-1,283,287,274,-1,274,287,271,-1,274,271,195,-1,166,167,274,-1,274,167,283,-1,277,283,168,-1,168,283,167,-1,40,166,41,-1,41,166,274,-1,205,173,154,-1,154,173,162,-1,154,162,131,-1,131,162,160,-1,131,160,132,-1,169,269,170,-1,170,269,278,-1,170,278,168,-1,168,278,277,-1,14,288,15,-1,15,288,171,-1,288,123,171,-1,171,123,122,-1,13,123,14,-1,14,123,288,-1,235,272,236,-1,236,272,281,-1,236,281,237,-1,237,281,280,-1,237,280,238,-1,238,280,276,-1,238,276,239,-1,239,276,279,-1,239,279,240,-1,240,279,275,-1,240,275,241,-1,241,275,270,-1,273,234,282,-1,282,234,233,-1,282,233,284,-1,284,233,232,-1,284,232,285,-1,285,232,230,-1,285,230,286,-1,286,230,229,-1,286,229,287,-1,287,229,231,-1,287,231,271,-1,271,231,244,-1,213,214,201,-1,201,214,289,-1,201,289,202,-1,290,291,220,-1,220,291,211,-1,194,37,38,-1,292,192,191,-1,191,293,186,-1,290,294,186,-1,290,186,291,-1,294,295,186,-1,186,295,296,-1,186,296,191,-1,191,296,297,-1,191,297,292,-1,298,299,185,-1,185,299,300,-1,185,300,186,-1,186,300,301,-1,186,301,291,-1,38,202,194,-1,194,202,289,-1,194,289,185,-1,185,289,302,-1,185,302,298,-1,37,194,35,-1,35,194,177,-1,155,157,303,-1,304,179,305,-1,305,179,178,-1,305,178,303,-1,303,178,190,-1,303,190,155,-1,190,188,155,-1,155,188,108,-1,155,108,156,-1,156,108,107,-1,156,107,57,-1,184,183,293,-1,293,183,186,-1,180,184,191,-1,191,184,293,-1,306,17,182,-1,182,17,32,-1,54,306,55,-1,55,306,182,-1,54,19,306,-1,306,19,17,-1,290,220,294,-1,294,220,219,-1,294,219,295,-1,295,219,218,-1,295,218,296,-1,296,218,207,-1,296,207,297,-1,297,207,209,-1,297,209,292,-1,292,209,210,-1,292,210,192,-1,192,210,193,-1,211,291,212,-1,212,291,301,-1,212,301,221,-1,221,301,300,-1,221,300,222,-1,222,300,299,-1,222,299,216,-1,216,299,298,-1,216,298,215,-1,215,298,302,-1,215,302,214,-1,214,302,289,-1,307,181,304,-1,304,181,179,-1,59,56,307,-1,307,56,181,-1,164,163,175,-1,175,163,308,-1,163,135,308,-1,308,135,136,-1,
        ]
    }
}
Shape{
    appearance Appearance {
        material  Material 	{
            diffuseColor 0.6666666666666666 0.6666666666666666 0.6666666666666666
            specularColor 0.4666666666666667 0.4666666666666667 0.4666666666666667
            ambientIntensity 0.6667
            transparency 0.0
            shininess 0.5
        }
    }
    geometry IndexedFaceSet {
        ccw TRUE
        solid FALSE
        coord DEF co Coordinate {
            point [
                1.1354 -1.5512 1.3252, 1.1354 -1.5512 1.2338, 1.2268 -1.5512 1.3252, 1.2268 -1.5512 1.2338, 1.0827 -1.3543 1.378, 1.0827 0.2205 1.378, 1.0827 -1.3543 1.1811, 1.0827 0.2205 1.1811, 1.2795 -1.3543 1.1811, 1.2795 0.2205 1.1811, 1.2795 -1.3543 1.378, 1.2795 0.2205 1.378, 1.2795 0.6654 0.0888, 1.0827 0.6654 0.0888, 1.0827 0.7252 0.0511, 1.2795 0.7252 0.0511, 1.0827 0.7919 0.0276, 1.2795 0.7919 0.0276, 1.0827 0.8622 0.0197, 1.2795 0.8622 0.0197, 1.2795 1.4016 0.0197, 1.0827 1.4016 0.0197, 1.1354 1.5984 0.0724, 1.1354 1.5984 0.1638, 1.2268 1.5984 0.0724, 1.2268 1.5984 0.1638, 1.0827 1.4016 0.2165, 1.0827 0.8622 0.2165, 1.2795 1.4016 0.2165, 1.2795 0.8622 0.2165, 1.2795 0.8316 0.2206, 1.0827 0.8316 0.2206, 1.2795 0.8032 0.2324, 1.0827 0.8032 0.2324, 1.2795 0.7787 0.2511, 1.0827 0.7787 0.2511, 1.2795 0.7599 0.2756, 1.0827 0.7599 0.2756, 1.2795 0.7481 0.3041, 1.0827 0.7481 0.3041, 1.2795 0.7441 0.3346, 1.0827 0.7441 0.3346, 1.2795 0.7441 0.9449, 1.0827 0.7441 0.9449, 1.0827 0.7351 1.0327, 1.2795 0.7351 1.0327, 1.0827 0.7085 1.1169, 1.2795 0.7085 1.1169, 1.0827 0.6654 1.1939, 1.2795 0.6654 1.1939, 0.348 -1.5512 1.3252, 0.348 -1.5512 1.2338, 0.4394 -1.5512 1.3252, 0.4394 -1.5512 1.2338, 0.2953 -1.3543 1.378, 0.2953 0.2205 1.378, 0.2953 -1.3543 1.1811, 0.2953 0.2205 1.1811, 0.4921 -1.3543 1.1811, 0.4921 0.2205 1.1811, 0.4921 -1.3543 1.378, 0.4921 0.2205 1.378, 0.4921 0.6654 0.0888, 0.2953 0.6654 0.0888, 0.2953 0.7252 0.0511, 0.4921 0.7252 0.0511, 0.2953 0.7919 0.0276, 0.4921 0.7919 0.0276, 0.2953 0.8622 0.0197, 0.4921 0.8622 0.0197, 0.4921 1.4016 0.0197, 0.2953 1.4016 0.0197, 0.348 1.5984 0.0724, 0.348 1.5984 0.1638, 0.4394 1.5984 0.0724, 0.4394 1.5984 0.1638, 0.2953 1.4016 0.2165, 0.2953 0.8622 0.2165, 0.4921 1.4016 0.2165, 0.4921 0.8622 0.2165, 0.4921 0.8316 0.2206, 0.2953 0.8316 0.2206, 0.4921 0.8032 0.2324, 0.2953 0.8032 0.2324, 0.4921 0.7787 0.2511, 0.2953 0.7787 0.2511, 0.4921 0.7599 0.2756, 0.2953 0.7599 0.2756, 0.4921 0.7481 0.3041, 0.2953 0.7481 0.3041, 0.4921 0.7441 0.3346, 0.2953 0.7441 0.3346, 0.4921 0.7441 0.9449, 0.2953 0.7441 0.9449, 0.2953 0.7351 1.0327, 0.4921 0.7351 1.0327, 0.2953 0.7085 1.1169, 0.4921 0.7085 1.1169, 0.2953 0.6654 1.1939, 0.4921 0.6654 1.1939, -0.4394 -1.5512 1.3252, -0.4394 -1.5512 1.2338, -0.348 -1.5512 1.3252, -0.348 -1.5512 1.2338, -0.4921 -1.3543 1.378, -0.4921 0.2205 1.378, -0.4921 -1.3543 1.1811, -0.4921 0.2205 1.1811, -0.2953 -1.3543 1.1811, -0.2953 0.2205 1.1811, -0.2953 -1.3543 1.378, -0.2953 0.2205 1.378, -0.2953 0.6654 0.0888, -0.4921 0.6654 0.0888, -0.4921 0.7252 0.0511, -0.2953 0.7252 0.0511, -0.4921 0.7919 0.0276, -0.2953 0.7919 0.0276, -0.4921 0.8622 0.0197, -0.2953 0.8622 0.0197, -0.2953 1.4016 0.0197, -0.4921 1.4016 0.0197, -0.4394 1.5984 0.0724, -0.4394 1.5984 0.1638, -0.348 1.5984 0.0724, -0.348 1.5984 0.1638, -0.4921 1.4016 0.2165, -0.4921 0.8622 0.2165, -0.2953 1.4016 0.2165, -0.2953 0.8622 0.2165, -0.2953 0.8316 0.2206, -0.4921 0.8316 0.2206, -0.2953 0.8032 0.2324, -0.4921 0.8032 0.2324, -0.2953 0.7787 0.2511, -0.4921 0.7787 0.2511, -0.2953 0.7599 0.2756, -0.4921 0.7599 0.2756, -0.2953 0.7481 0.3041, -0.4921 0.7481 0.3041, -0.2953 0.7441 0.3346, -0.4921 0.7441 0.3346, -0.2953 0.7441 0.9449, -0.4921 0.7441 0.9449, -0.4921 0.7351 1.0327, -0.2953 0.7351 1.0327, -0.4921 0.7085 1.1169, -0.2953 0.7085 1.1169, -0.4921 0.6654 1.1939, -0.2953 0.6654 1.1939, -1.2268 -1.5512 1.3252, -1.2268 -1.5512 1.2338, -1.1354 -1.5512 1.3252, -1.1354 -1.5512 1.2338, -1.2795 -1.3543 1.378, -1.2795 0.2205 1.378, -1.2795 -1.3543 1.1811, -1.2795 0.2205 1.1811, -1.0827 -1.3543 1.1811, -1.0827 0.2205 1.1811, -1.0827 -1.3543 1.378, -1.0827 0.2205 1.378, -1.0827 0.6654 0.0888, -1.2795 0.6654 0.0888, -1.2795 0.7252 0.0511, -1.0827 0.7252 0.0511, -1.2795 0.7919 0.0276, -1.0827 0.7919 0.0276, -1.2795 0.8622 0.0197, -1.0827 0.8622 0.0197, -1.0827 1.4016 0.0197, -1.2795 1.4016 0.0197, -1.2268 1.5984 0.0724, -1.2268 1.5984 0.1638, -1.1354 1.5984 0.0724, -1.1354 1.5984 0.1638, -1.2795 1.4016 0.2165, -1.2795 0.8622 0.2165, -1.0827 1.4016 0.2165, -1.0827 0.8622 0.2165, -1.0827 0.8316 0.2206, -1.2795 0.8316 0.2206, -1.0827 0.8032 0.2324, -1.2795 0.8032 0.2324, -1.0827 0.7787 0.2511, -1.2795 0.7787 0.2511, -1.0827 0.7599 0.2756, -1.2795 0.7599 0.2756, -1.0827 0.7481 0.3041, -1.2795 0.7481 0.3041, -1.0827 0.7441 0.3346, -1.2795 0.7441 0.3346, -1.0827 0.7441 0.9449, -1.2795 0.7441 0.9449, -1.2795 0.7351 1.0327, -1.0827 0.7351 1.0327, -1.2795 0.7085 1.1169, -1.0827 0.7085 1.1169, -1.2795 0.6654 1.1939, -1.0827 0.6654 1.1939, -2.185 -1.4331 0.9055, -2.185 -1.6299 0.9055, -2.0669 -1.4331 0.9055, -2.0669 -1.6299 0.9055, -2.185 -1.6299 0.0, -2.185 -1.4331 0.315, -2.185 -0.6457 0.315, -2.185 -0.6457 0.0394, -2.185 -0.6457 0.0, -2.0669 -0.6457 0.0394, -2.0669 -0.6457 0.315, -2.0669 -1.4331 0.315, -2.0669 -0.6457 0.0, -2.0669 -1.6299 0.0, 2.185 -0.6457 0.0394, 2.185 -0.6457 0.0, 2.0669 -0.6457 0.0394, 2.0669 -0.6457 0.0, 2.185 -1.6299 0.0, 2.0669 -1.6299 0.0, 2.0669 -1.4331 0.9055, 2.0669 -1.6299 0.9055, 2.185 -1.4331 0.9055, 2.185 -1.6299 0.9055, 2.185 -0.6457 0.315, 2.185 -1.4331 0.315, 2.0669 -1.4331 0.315, 2.0669 -0.6457 0.315
            ]
        }
        coordIndex [
            0,1,2,-1,2,1,3,-1,4,5,6,-1,6,5,7,-1,8,9,10,-1,10,9,11,-1,6,7,8,-1,8,7,9,-1,10,11,4,-1,4,11,5,-1,12,13,14,-1,12,14,15,-1,15,14,16,-1,15,16,17,-1,17,16,18,-1,17,18,19,-1,20,19,21,-1,21,19,18,-1,22,23,24,-1,24,23,25,-1,26,27,28,-1,28,27,29,-1,29,27,30,-1,30,27,31,-1,30,31,32,-1,32,31,33,-1,32,33,34,-1,34,33,35,-1,34,35,36,-1,36,35,37,-1,36,37,38,-1,38,37,39,-1,38,39,40,-1,40,39,41,-1,42,40,43,-1,43,40,41,-1,42,43,44,-1,42,44,45,-1,45,44,46,-1,45,46,47,-1,47,46,48,-1,47,48,49,-1,20,28,19,-1,19,28,29,-1,19,29,17,-1,17,29,30,-1,17,30,15,-1,15,30,32,-1,15,32,12,-1,12,32,34,-1,12,34,36,-1,36,38,12,-1,12,38,40,-1,12,40,42,-1,45,47,42,-1,42,47,49,-1,42,49,12,-1,41,39,13,-1,46,44,43,-1,26,21,27,-1,27,21,18,-1,27,18,31,-1,31,18,16,-1,31,16,33,-1,33,16,14,-1,33,14,35,-1,35,14,13,-1,35,13,37,-1,37,13,39,-1,41,13,43,-1,43,13,48,-1,43,48,46,-1,28,25,26,-1,26,25,23,-1,20,24,28,-1,28,24,25,-1,22,21,23,-1,23,21,26,-1,21,22,20,-1,20,22,24,-1,8,3,6,-1,6,3,1,-1,10,2,8,-1,8,2,3,-1,0,4,1,-1,1,4,6,-1,4,0,10,-1,10,0,2,-1,50,51,52,-1,52,51,53,-1,54,55,56,-1,56,55,57,-1,58,59,60,-1,60,59,61,-1,56,57,58,-1,58,57,59,-1,60,61,54,-1,54,61,55,-1,62,63,64,-1,62,64,65,-1,65,64,66,-1,65,66,67,-1,67,66,68,-1,67,68,69,-1,70,69,71,-1,71,69,68,-1,72,73,74,-1,74,73,75,-1,76,77,78,-1,78,77,79,-1,79,77,80,-1,80,77,81,-1,80,81,82,-1,82,81,83,-1,82,83,84,-1,84,83,85,-1,84,85,86,-1,86,85,87,-1,86,87,88,-1,88,87,89,-1,88,89,90,-1,90,89,91,-1,92,90,93,-1,93,90,91,-1,92,93,94,-1,92,94,95,-1,95,94,96,-1,95,96,97,-1,97,96,98,-1,97,98,99,-1,70,78,69,-1,69,78,79,-1,69,79,67,-1,67,79,80,-1,67,80,65,-1,65,80,82,-1,65,82,62,-1,62,82,84,-1,62,84,86,-1,86,88,62,-1,62,88,90,-1,62,90,92,-1,95,97,92,-1,92,97,99,-1,92,99,62,-1,91,89,63,-1,96,94,93,-1,76,71,77,-1,77,71,68,-1,77,68,81,-1,81,68,66,-1,81,66,83,-1,83,66,64,-1,83,64,85,-1,85,64,63,-1,85,63,87,-1,87,63,89,-1,91,63,93,-1,93,63,98,-1,93,98,96,-1,100,101,102,-1,102,101,103,-1,104,105,106,-1,106,105,107,-1,108,109,110,-1,110,109,111,-1,106,107,108,-1,108,107,109,-1,110,111,104,-1,104,111,105,-1,112,113,114,-1,112,114,115,-1,115,114,116,-1,115,116,117,-1,117,116,118,-1,117,118,119,-1,120,119,121,-1,121,119,118,-1,122,123,124,-1,124,123,125,-1,126,127,128,-1,128,127,129,-1,129,127,130,-1,130,127,131,-1,130,131,132,-1,132,131,133,-1,132,133,134,-1,134,133,135,-1,134,135,136,-1,136,135,137,-1,136,137,138,-1,138,137,139,-1,138,139,140,-1,140,139,141,-1,142,140,143,-1,143,140,141,-1,142,143,144,-1,142,144,145,-1,145,144,146,-1,145,146,147,-1,147,146,148,-1,147,148,149,-1,120,128,119,-1,119,128,129,-1,119,129,117,-1,117,129,130,-1,117,130,115,-1,115,130,132,-1,115,132,112,-1,112,132,134,-1,112,134,136,-1,136,138,112,-1,112,138,140,-1,112,140,142,-1,145,147,142,-1,142,147,149,-1,142,149,112,-1,141,139,113,-1,146,144,143,-1,126,121,127,-1,127,121,118,-1,127,118,131,-1,131,118,116,-1,131,116,133,-1,133,116,114,-1,133,114,135,-1,135,114,113,-1,135,113,137,-1,137,113,139,-1,141,113,143,-1,143,113,148,-1,143,148,146,-1,150,151,152,-1,152,151,153,-1,154,155,156,-1,156,155,157,-1,158,159,160,-1,160,159,161,-1,156,157,158,-1,158,157,159,-1,160,161,154,-1,154,161,155,-1,162,163,164,-1,162,164,165,-1,165,164,166,-1,165,166,167,-1,167,166,168,-1,167,168,169,-1,170,169,171,-1,171,169,168,-1,172,173,174,-1,174,173,175,-1,176,177,178,-1,178,177,179,-1,179,177,180,-1,180,177,181,-1,180,181,182,-1,182,181,183,-1,182,183,184,-1,184,183,185,-1,184,185,186,-1,186,185,187,-1,186,187,188,-1,188,187,189,-1,188,189,190,-1,190,189,191,-1,192,190,193,-1,193,190,191,-1,192,193,194,-1,192,194,195,-1,195,194,196,-1,195,196,197,-1,197,196,198,-1,197,198,199,-1,170,178,169,-1,169,178,179,-1,169,179,167,-1,167,179,180,-1,167,180,165,-1,165,180,182,-1,165,182,162,-1,162,182,184,-1,162,184,186,-1,186,188,162,-1,162,188,190,-1,162,190,192,-1,195,197,192,-1,192,197,199,-1,192,199,162,-1,191,189,163,-1,196,194,193,-1,176,171,177,-1,177,171,168,-1,177,168,181,-1,181,168,166,-1,181,166,183,-1,183,166,164,-1,183,164,185,-1,185,164,163,-1,185,163,187,-1,187,163,189,-1,191,163,193,-1,193,163,198,-1,193,198,196,-1,78,75,76,-1,76,75,73,-1,70,74,78,-1,78,74,75,-1,72,71,73,-1,73,71,76,-1,71,72,70,-1,70,72,74,-1,58,53,56,-1,56,53,51,-1,60,52,58,-1,58,52,53,-1,50,54,51,-1,51,54,56,-1,54,50,60,-1,60,50,52,-1,128,125,126,-1,126,125,123,-1,120,124,128,-1,128,124,125,-1,122,121,123,-1,123,121,126,-1,121,122,120,-1,120,122,124,-1,108,103,106,-1,106,103,101,-1,110,102,108,-1,108,102,103,-1,100,104,101,-1,101,104,106,-1,104,100,110,-1,110,100,102,-1,178,175,176,-1,176,175,173,-1,170,174,178,-1,178,174,175,-1,172,171,173,-1,173,171,176,-1,171,172,170,-1,170,172,174,-1,158,153,156,-1,156,153,151,-1,160,152,158,-1,158,152,153,-1,150,154,151,-1,151,154,156,-1,154,150,160,-1,160,150,152,-1,200,201,202,-1,202,201,203,-1,201,200,204,-1,204,200,205,-1,205,206,204,-1,204,206,207,-1,204,207,208,-1,209,210,211,-1,212,209,213,-1,213,209,211,-1,213,211,203,-1,203,211,202,-1,204,208,213,-1,213,208,212,-1,201,204,203,-1,203,204,213,-1,212,208,209,-1,209,208,207,-1,214,215,216,-1,216,215,217,-1,215,218,217,-1,217,218,219,-1,220,221,222,-1,222,221,223,-1,218,223,219,-1,219,223,221,-1,214,224,225,-1,215,214,218,-1,218,214,225,-1,218,225,223,-1,223,225,222,-1,221,220,219,-1,219,220,226,-1,226,227,219,-1,219,227,216,-1,219,216,217,-1,
        ]
    }
}
Shape{
    appearance Appearance {
        material  Material 	{
            diffuseColor 1.0 1.0 1.0
            specularColor 0.8784313725490196 0.8784313725490196 0.8784313725490196
            ambientIntensity 1.0
            transparency 0.0
            shininess 0.5
        }
    }
    geometry IndexedFaceSet {
        ccw TRUE
        solid FALSE
        coord DEF co Coordinate {
            point [
                -0.3337 -0.7209 0.0472, -0.4105 -0.9178 0.0472, -0.3337 -0.7209 0.0394, -0.4105 -0.9178 0.0394, -0.3817 -0.9178 0.0472, -0.3817 -0.9178 0.0394, -0.3618 -0.8625 0.0472, -0.3618 -0.8625 0.0394, -0.2805 -0.8625 0.0472, -0.2805 -0.8625 0.0394, -0.2617 -0.9178 0.0472, -0.2617 -0.9178 0.0394, -0.2329 -0.9178 0.0472, -0.2329 -0.9178 0.0394, -0.3073 -0.7209 0.0472, -0.3073 -0.7209 0.0394, -0.2871 -0.8409 0.0472, -0.3529 -0.8409 0.0472, -0.3165 -0.7587 0.0472, -0.3184 -0.7519 0.0472, -0.3196 -0.7449 0.0472, -0.3203 -0.7449 0.0472, -0.3215 -0.7519 0.0472, -0.3233 -0.7587 0.0472, -0.2871 -0.8409 0.0394, -0.3529 -0.8409 0.0394, -0.3165 -0.7587 0.0394, -0.3184 -0.7519 0.0394, -0.3196 -0.7449 0.0394, -0.3203 -0.7449 0.0394, -0.3215 -0.7519 0.0394, -0.3233 -0.7587 0.0394, -0.1135 -0.9178 0.0472, -0.06 -0.9178 0.0472, -0.1135 -0.9178 0.0394, -0.06 -0.9178 0.0394, -0.06 -0.7209 0.0472, -0.06 -0.7209 0.0394, -0.1156 -0.7209 0.0472, -0.1156 -0.7209 0.0394, -0.2185 -0.8169 0.0472, -0.2185 -0.8169 0.0394, -0.217 -0.7983 0.0394, -0.217 -0.7983 0.0472, -0.2117 -0.7789 0.0394, -0.2117 -0.7789 0.0472, -0.2026 -0.762 0.0394, -0.2026 -0.762 0.0472, -0.1887 -0.7466 0.0394, -0.1887 -0.7466 0.0472, -0.1885 -0.7464 0.0394, -0.1885 -0.7464 0.0472, -0.167 -0.732 0.0394, -0.167 -0.732 0.0472, -0.144 -0.7239 0.0394, -0.144 -0.7239 0.0472, -0.1379 -0.9156 0.0394, -0.1379 -0.9156 0.0472, -0.1606 -0.9089 0.0394, -0.1606 -0.9089 0.0472, -0.1811 -0.8969 0.0394, -0.1811 -0.8969 0.0472, -0.1973 -0.8814 0.0394, -0.1973 -0.8814 0.0472, -0.2086 -0.8638 0.0394, -0.2086 -0.8638 0.0472, -0.2157 -0.8432 0.0394, -0.2157 -0.8432 0.0472, -0.1789 -0.7701 0.0472, -0.1694 -0.76 0.0472, -0.155 -0.7507 0.0472, -0.1388 -0.745 0.0472, -0.1155 -0.7425 0.0472, -0.0864 -0.7425 0.0472, -0.0864 -0.8961 0.0472, -0.1144 -0.8961 0.0472, -0.1351 -0.8942 0.0472, -0.1517 -0.889 0.0472, -0.1651 -0.8811 0.0472, -0.1762 -0.8702 0.0472, -0.1845 -0.8566 0.0472, -0.1902 -0.8381 0.0472, -0.192 -0.8174 0.0472, -0.1904 -0.7978 0.0472, -0.1858 -0.7823 0.0472, -0.1155 -0.7425 0.0394, -0.0864 -0.7425 0.0394, -0.1388 -0.745 0.0394, -0.155 -0.7507 0.0394, -0.1694 -0.76 0.0394, -0.1789 -0.7701 0.0394, -0.1858 -0.7823 0.0394, -0.1904 -0.7978 0.0394, -0.192 -0.8174 0.0394, -0.1902 -0.8381 0.0394, -0.1845 -0.8566 0.0394, -0.1762 -0.8702 0.0394, -0.1651 -0.8811 0.0394, -0.1517 -0.889 0.0394, -0.1351 -0.8942 0.0394, -0.1144 -0.8961 0.0394, -0.0864 -0.8961 0.0394, -0.0216 -0.8961 0.0472, -0.0216 -0.9178 0.0472, -0.0216 -0.8961 0.0394, -0.0216 -0.9178 0.0394, 0.084 -0.9178 0.0472, 0.084 -0.9178 0.0394, 0.084 -0.7209 0.0472, 0.084 -0.7209 0.0394, -0.0168 -0.7209 0.0472, -0.0168 -0.7209 0.0394, -0.0168 -0.7425 0.0472, -0.0168 -0.7425 0.0394, 0.0576 -0.7425 0.0472, 0.0576 -0.7425 0.0394, 0.0576 -0.8073 0.0472, 0.0576 -0.8073 0.0394, -0.012 -0.8073 0.0472, -0.012 -0.8073 0.0394, -0.012 -0.8289 0.0472, -0.012 -0.8289 0.0394, 0.0576 -0.8289 0.0472, 0.0576 -0.8289 0.0394, 0.0576 -0.8961 0.0472, 0.0576 -0.8961 0.0394, 0.1224 -0.8859 0.0472, 0.1224 -0.9075 0.0472, 0.1224 -0.8859 0.0394, 0.1224 -0.9075 0.0394, 0.1434 -0.9162 0.0472, 0.1766 -0.9202 0.0472, 0.1766 -0.9202 0.0394, 0.1712 -0.9201 0.0394, 0.1712 -0.9201 0.0472, 0.1633 -0.919 0.0394, 0.1434 -0.9162 0.0394, 0.2689 -0.823 0.0472, 0.2689 -0.823 0.0394, 0.267 -0.8458 0.0394, 0.267 -0.8458 0.0472, 0.261 -0.8667 0.0394, 0.261 -0.8667 0.0472, 0.2506 -0.8854 0.0394, 0.2506 -0.8854 0.0472, 0.2358 -0.901 0.0394, 0.2358 -0.901 0.0472, 0.2199 -0.9111 0.0394, 0.2199 -0.9111 0.0472, 0.2009 -0.9176 0.0394, 0.2009 -0.9176 0.0472, 0.1882 -0.919 0.0394, 0.1688 -0.7185 0.0472, 0.1688 -0.7185 0.0394, 0.1885 -0.7201 0.0394, 0.1885 -0.7201 0.0472, 0.2105 -0.7265 0.0394, 0.2105 -0.7265 0.0472, 0.2292 -0.7373 0.0394, 0.2292 -0.7373 0.0472, 0.2469 -0.7543 0.0394, 0.2469 -0.7543 0.0472, 0.2585 -0.7727 0.0394, 0.2585 -0.7727 0.0472, 0.266 -0.7951 0.0394, 0.266 -0.7951 0.0472, 0.1224 -0.7263 0.0472, 0.1224 -0.7263 0.0394, 0.1452 -0.7201 0.0394, 0.1452 -0.7201 0.0472, 0.1224 -0.7527 0.0472, 0.1224 -0.7527 0.0394, 0.1685 -0.7401 0.0472, 0.1685 -0.7401 0.0394, 0.1446 -0.7432 0.0394, 0.1446 -0.7432 0.0472, 0.2425 -0.8214 0.0472, 0.2425 -0.8214 0.0394, 0.2415 -0.8061 0.0394, 0.2415 -0.8061 0.0472, 0.2363 -0.785 0.0394, 0.2363 -0.785 0.0472, 0.2282 -0.7698 0.0394, 0.2282 -0.7698 0.0472, 0.2163 -0.7567 0.0394, 0.2163 -0.7567 0.0472, 0.2026 -0.7476 0.0394, 0.2026 -0.7476 0.0472, 0.1879 -0.7423 0.0394, 0.1879 -0.7423 0.0472, 0.173 -0.8985 0.0472, 0.173 -0.8985 0.0394, 0.1913 -0.8965 0.0394, 0.1913 -0.8965 0.0472, 0.2057 -0.8912 0.0394, 0.2057 -0.8912 0.0472, 0.2177 -0.8831 0.0394, 0.2177 -0.8831 0.0472, 0.227 -0.8733 0.0394, 0.227 -0.8733 0.0472, 0.2351 -0.8597 0.0394, 0.2351 -0.8597 0.0472, 0.2405 -0.8427 0.0394, 0.2405 -0.8427 0.0472, 0.126 -0.8879 0.0394, 0.126 -0.8879 0.0472, 0.1468 -0.8956 0.0394, 0.1468 -0.8956 0.0472, 0.2857 -0.8961 0.0472, 0.2857 -0.9178 0.0472, 0.2857 -0.8961 0.0394, 0.2857 -0.9178 0.0394, 0.3865 -0.9178 0.0472, 0.3865 -0.9178 0.0394, 0.3865 -0.7209 0.0472, 0.3865 -0.7209 0.0394, 0.3601 -0.7209 0.0472, 0.3601 -0.7209 0.0394, 0.3601 -0.8961 0.0472, 0.3601 -0.8961 0.0394
            ]
        }
        coordIndex [
            0,1,2,-1,2,1,3,-1,1,4,3,-1,3,4,5,-1,4,6,5,-1,5,6,7,-1,6,8,7,-1,7,8,9,-1,8,10,9,-1,9,10,11,-1,10,12,11,-1,11,12,13,-1,12,14,13,-1,13,14,15,-1,14,0,15,-1,15,0,2,-1,16,8,17,-1,17,8,6,-1,18,14,16,-1,16,14,12,-1,16,12,8,-1,8,12,10,-1,18,19,14,-1,14,19,20,-1,14,20,0,-1,0,20,21,-1,0,21,22,-1,22,23,0,-1,0,23,17,-1,0,17,1,-1,1,17,6,-1,1,6,4,-1,16,17,24,-1,24,17,25,-1,18,16,26,-1,26,16,24,-1,18,26,27,-1,18,27,19,-1,19,27,28,-1,19,28,20,-1,21,20,29,-1,29,20,28,-1,21,29,30,-1,21,30,22,-1,22,30,31,-1,22,31,23,-1,17,23,25,-1,25,23,31,-1,32,33,34,-1,34,33,35,-1,33,36,35,-1,35,36,37,-1,36,38,37,-1,37,38,39,-1,40,41,42,-1,40,42,43,-1,43,42,44,-1,43,44,45,-1,45,44,46,-1,45,46,47,-1,47,46,48,-1,47,48,49,-1,49,48,50,-1,49,50,51,-1,51,50,52,-1,51,52,53,-1,53,52,54,-1,53,54,55,-1,55,54,39,-1,55,39,38,-1,32,34,56,-1,32,56,57,-1,57,56,58,-1,57,58,59,-1,59,58,60,-1,59,60,61,-1,61,60,62,-1,61,62,63,-1,63,62,64,-1,63,64,65,-1,65,64,66,-1,65,66,67,-1,67,66,41,-1,67,41,40,-1,45,47,68,-1,68,47,49,-1,68,49,69,-1,69,49,51,-1,69,51,70,-1,70,51,53,-1,70,53,71,-1,71,53,55,-1,71,55,72,-1,72,55,38,-1,72,38,73,-1,73,38,36,-1,73,36,74,-1,74,36,33,-1,74,33,75,-1,75,33,32,-1,75,32,76,-1,76,32,57,-1,76,57,77,-1,77,57,59,-1,77,59,78,-1,78,59,61,-1,78,61,79,-1,79,61,63,-1,79,63,80,-1,80,63,65,-1,80,65,81,-1,81,65,67,-1,81,67,82,-1,82,67,40,-1,82,40,83,-1,83,40,43,-1,83,43,84,-1,84,43,45,-1,84,45,68,-1,72,73,85,-1,85,73,86,-1,72,85,87,-1,72,87,71,-1,71,87,88,-1,71,88,70,-1,70,88,89,-1,70,89,69,-1,69,89,90,-1,69,90,68,-1,68,90,91,-1,68,91,84,-1,84,91,92,-1,84,92,83,-1,83,92,93,-1,83,93,82,-1,82,93,94,-1,82,94,81,-1,81,94,95,-1,81,95,80,-1,80,95,96,-1,80,96,79,-1,79,96,97,-1,79,97,78,-1,78,97,98,-1,78,98,77,-1,77,98,99,-1,77,99,76,-1,76,99,100,-1,76,100,75,-1,74,75,101,-1,101,75,100,-1,73,74,86,-1,86,74,101,-1,102,103,104,-1,104,103,105,-1,103,106,105,-1,105,106,107,-1,106,108,107,-1,107,108,109,-1,108,110,109,-1,109,110,111,-1,110,112,111,-1,111,112,113,-1,112,114,113,-1,113,114,115,-1,114,116,115,-1,115,116,117,-1,116,118,117,-1,117,118,119,-1,118,120,119,-1,119,120,121,-1,120,122,121,-1,121,122,123,-1,122,124,123,-1,123,124,125,-1,124,102,125,-1,125,102,104,-1,106,103,102,-1,102,124,106,-1,106,124,122,-1,106,122,108,-1,112,110,114,-1,114,110,108,-1,114,108,116,-1,116,108,122,-1,116,122,118,-1,118,122,120,-1,126,127,128,-1,128,127,129,-1,129,127,130,-1,131,132,133,-1,131,133,134,-1,134,133,135,-1,134,135,130,-1,130,135,136,-1,130,136,129,-1,137,138,139,-1,137,139,140,-1,140,139,141,-1,140,141,142,-1,142,141,143,-1,142,143,144,-1,144,143,145,-1,144,145,146,-1,146,145,147,-1,146,147,148,-1,148,147,149,-1,148,149,150,-1,150,149,131,-1,131,149,151,-1,131,151,132,-1,152,153,154,-1,152,154,155,-1,155,154,156,-1,155,156,157,-1,157,156,158,-1,157,158,159,-1,159,158,160,-1,159,160,161,-1,161,160,162,-1,161,162,163,-1,163,162,164,-1,163,164,165,-1,165,164,138,-1,165,138,137,-1,166,167,168,-1,166,168,169,-1,169,168,153,-1,169,153,152,-1,166,170,167,-1,167,170,171,-1,172,173,174,-1,172,174,175,-1,175,174,171,-1,175,171,170,-1,176,177,178,-1,176,178,179,-1,179,178,180,-1,179,180,181,-1,181,180,182,-1,181,182,183,-1,183,182,184,-1,183,184,185,-1,185,184,186,-1,185,186,187,-1,187,186,188,-1,187,188,189,-1,189,188,173,-1,189,173,172,-1,190,191,192,-1,190,192,193,-1,193,192,194,-1,193,194,195,-1,195,194,196,-1,195,196,197,-1,197,196,198,-1,197,198,199,-1,199,198,200,-1,199,200,201,-1,201,200,202,-1,201,202,203,-1,203,202,177,-1,203,177,176,-1,126,128,204,-1,126,204,205,-1,205,204,206,-1,205,206,207,-1,207,206,191,-1,207,191,190,-1,193,131,190,-1,190,131,134,-1,190,134,207,-1,207,134,130,-1,207,130,205,-1,205,130,127,-1,205,127,126,-1,170,166,175,-1,175,166,169,-1,175,169,172,-1,172,169,152,-1,172,152,189,-1,189,152,155,-1,189,155,187,-1,187,155,157,-1,187,157,185,-1,185,157,159,-1,185,159,183,-1,183,159,161,-1,183,161,181,-1,181,161,163,-1,181,163,179,-1,179,163,165,-1,179,165,176,-1,176,165,137,-1,176,137,203,-1,203,137,140,-1,203,140,201,-1,201,140,142,-1,201,142,199,-1,199,142,144,-1,199,144,197,-1,197,144,146,-1,197,146,195,-1,195,146,148,-1,195,148,193,-1,193,148,150,-1,193,150,131,-1,208,209,210,-1,210,209,211,-1,209,212,211,-1,211,212,213,-1,212,214,213,-1,213,214,215,-1,214,216,215,-1,215,216,217,-1,216,218,217,-1,217,218,219,-1,218,208,219,-1,219,208,210,-1,216,214,218,-1,218,214,212,-1,218,212,208,-1,208,212,209,-1,
        ]
    }
}
Shape{
    appearance Appearance {
        material  Material 	{
            diffuseColor 0.5882352941176471 0.5725490196078431 0.5254901960784314
            specularColor 0.043137254901960784 0.0392156862745098 0.0392156862745098
            ambientIntensity 0.8167
            transparency 0.0
            shininess 0.5
        }
    }
    geometry IndexedFaceSet {
        ccw TRUE
        solid FALSE
        coord DEF co Coordinate {
            point [
                -0.2871 -0.8409 0.0394, -0.3529 -0.8409 0.0394, -0.3165 -0.7587 0.0394, -0.3233 -0.7587 0.0394, -0.3184 -0.7519 0.0394, -0.3215 -0.7519 0.0394, -0.3196 -0.7449 0.0394, -0.3203 -0.7449 0.0394, -0.0864 -0.7425 0.0394, -0.0864 -0.8961 0.0394, -0.1155 -0.7425 0.0394, -0.1144 -0.8961 0.0394, -0.1351 -0.8942 0.0394, -0.192 -0.8174 0.0394, -0.1904 -0.7978 0.0394, -0.1858 -0.7823 0.0394, -0.1388 -0.745 0.0394, -0.1517 -0.889 0.0394, -0.1651 -0.8811 0.0394, -0.1762 -0.8702 0.0394, -0.1845 -0.8566 0.0394, -0.1902 -0.8381 0.0394, -0.1789 -0.7701 0.0394, -0.1694 -0.76 0.0394, -0.155 -0.7507 0.0394, -1.7717 0.6654 1.7126, -1.7717 0.2205 1.7126, -1.3189 0.6654 1.7126, -1.3189 0.2205 1.7126, -1.3189 -0.8701 1.7126, -1.3189 -0.8701 2.2047, -1.3189 0.6654 2.2047, -1.7717 -0.8701 1.7126, -1.7717 -0.8701 2.2047, 1.3189 0.6654 1.7126, 1.3189 0.2205 1.7126, 1.7717 0.6654 1.7126, 1.7717 0.2205 1.7126, 1.3189 -0.8701 2.2047, 1.3189 -0.8701 1.7126, 1.3189 0.6654 2.2047, 1.7717 -0.8701 1.7126, 1.7717 -0.8701 2.2047
            ]
        }
        coordIndex [
            0,1,2,-1,2,1,3,-1,2,3,4,-1,4,3,5,-1,4,5,6,-1,6,5,7,-1,8,9,10,-1,10,9,11,-1,10,11,12,-1,13,14,10,-1,10,14,15,-1,10,15,16,-1,12,17,10,-1,10,17,18,-1,10,18,19,-1,19,20,10,-1,10,20,21,-1,10,21,13,-1,22,23,15,-1,15,23,24,-1,15,24,16,-1,25,26,27,-1,27,26,28,-1,29,30,28,-1,28,30,31,-1,28,31,27,-1,29,32,30,-1,30,32,33,-1,34,35,36,-1,36,35,37,-1,38,39,40,-1,40,39,35,-1,40,35,34,-1,41,39,42,-1,42,39,38,-1,
        ]
    }
}