%TF.GenerationSoftware,KiCad,Pcbnew,9.0.7*%
%TF.CreationDate,2026-09-25T12:53:25+02:00*%
%TF.ProjectId,esp32-led-matrix,65737033-322d-46c6-9564-2d6d61747269,rev?*%
%TF.SameCoordinates,Original*%
%TF.FileFunction,Soldermask,Top*%
%TF.FilePolarity,Negative*%
%FSLAX46Y46*%
G04 Gerber Fmt 4.6, Leading zero omitted, Abs format (unit mm)*
G04 Created by KiCad (PCBNEW 9.0.7) date 2026-09-25 12:53:25*
%MOMM*%
%LPD*%
G01*
G04 APERTURE LIST*
G04 Aperture macros list*
%AMRoundRect*
0 Rectangle with rounded corners*
0 $1 Rounding radius*
0 $2 $3 $4 $5 $6 $7 $8 $9 X,Y pos of 4 corners*
0 Add a 4 corners polygon primitive as box body*
4,1,4,$2,$3,$4,$5,$6,$7,$8,$9,$2,$3,0*
0 Add four circle primitives for the rounded corners*
1,1,$1+$1,$2,$3*
1,1,$1+$1,$4,$5*
1,1,$1+$1,$6,$7*
1,1,$1+$1,$8,$9*
0 Add four rect primitives between the rounded corners*
20,1,$1+$1,$2,$3,$4,$5,0*
20,1,$1+$1,$4,$5,$6,$7,0*
20,1,$1+$1,$6,$7,$8,$9,0*
20,1,$1+$1,$8,$9,$2,$3,0*%
G04 Aperture macros list end*
%ADD10R,0.700000X0.700000*%
%ADD11RoundRect,0.062500X-0.062500X0.117500X-0.062500X-0.117500X0.062500X-0.117500X0.062500X0.117500X0*%
%ADD12RoundRect,0.225000X0.250000X-0.225000X0.250000X0.225000X-0.250000X0.225000X-0.250000X-0.225000X0*%
%ADD13RoundRect,0.075000X0.075000X-0.125000X0.075000X0.125000X-0.075000X0.125000X-0.075000X-0.125000X0*%
%ADD14R,0.900000X1.700000*%
%ADD15RoundRect,0.150000X0.150000X-0.512500X0.150000X0.512500X-0.150000X0.512500X-0.150000X-0.512500X0*%
%ADD16RoundRect,0.160000X-0.160000X0.197500X-0.160000X-0.197500X0.160000X-0.197500X0.160000X0.197500X0*%
%ADD17RoundRect,0.160000X0.197500X0.160000X-0.197500X0.160000X-0.197500X-0.160000X0.197500X-0.160000X0*%
%ADD18RoundRect,0.225000X-0.250000X0.225000X-0.250000X-0.225000X0.250000X-0.225000X0.250000X0.225000X0*%
%ADD19RoundRect,0.218750X0.218750X0.256250X-0.218750X0.256250X-0.218750X-0.256250X0.218750X-0.256250X0*%
%ADD20RoundRect,0.160000X0.160000X-0.197500X0.160000X0.197500X-0.160000X0.197500X-0.160000X-0.197500X0*%
%ADD21RoundRect,0.250000X0.250000X0.475000X-0.250000X0.475000X-0.250000X-0.475000X0.250000X-0.475000X0*%
%ADD22R,4.600000X1.000000*%
%ADD23R,3.400000X1.600000*%
%ADD24RoundRect,0.250000X-0.850000X-0.350000X0.850000X-0.350000X0.850000X0.350000X-0.850000X0.350000X0*%
%ADD25RoundRect,0.249997X-2.950003X-2.650003X2.950003X-2.650003X2.950003X2.650003X-2.950003X2.650003X0*%
%ADD26C,0.650000*%
%ADD27O,1.000000X1.800000*%
%ADD28O,1.000000X2.100000*%
G04 APERTURE END LIST*
D10*
%TO.C,D15*%
X30665000Y-4550000D03*
X30665000Y-3450000D03*
X28835000Y-3450000D03*
X28835000Y-4550000D03*
%TD*%
%TO.C,D10*%
X8165000Y-4550000D03*
X8165000Y-3450000D03*
X6335000Y-3450000D03*
X6335000Y-4550000D03*
%TD*%
D11*
%TO.C,D4*%
X27225000Y-46920000D03*
X27225000Y-46080000D03*
%TD*%
D12*
%TO.C,C5*%
X29225000Y-51775000D03*
X29225000Y-50225000D03*
%TD*%
D10*
%TO.C,D37*%
X24335000Y-16950000D03*
X24335000Y-18050000D03*
X26165000Y-18050000D03*
X26165000Y-16950000D03*
%TD*%
%TO.C,D43*%
X12665000Y-22550000D03*
X12665000Y-21450000D03*
X10835000Y-21450000D03*
X10835000Y-22550000D03*
%TD*%
%TO.C,D54*%
X19835000Y-25950000D03*
X19835000Y-27050000D03*
X21665000Y-27050000D03*
X21665000Y-25950000D03*
%TD*%
%TO.C,D60*%
X17165000Y-31550000D03*
X17165000Y-30450000D03*
X15335000Y-30450000D03*
X15335000Y-31550000D03*
%TD*%
%TO.C,D63*%
X30665000Y-31550000D03*
X30665000Y-30450000D03*
X28835000Y-30450000D03*
X28835000Y-31550000D03*
%TD*%
%TO.C,D46*%
X26165000Y-22550000D03*
X26165000Y-21450000D03*
X24335000Y-21450000D03*
X24335000Y-22550000D03*
%TD*%
D13*
%TO.C,C1*%
X19225000Y-59412500D03*
X19225000Y-58912500D03*
%TD*%
D10*
%TO.C,D32*%
X35165000Y-13550000D03*
X35165000Y-12450000D03*
X33335000Y-12450000D03*
X33335000Y-13550000D03*
%TD*%
D14*
%TO.C,SW1*%
X23425000Y-47000000D03*
X20025000Y-47000000D03*
%TD*%
D10*
%TO.C,D66*%
X37835000Y-34950000D03*
X37835000Y-36050000D03*
X39665000Y-36050000D03*
X39665000Y-34950000D03*
%TD*%
%TO.C,D61*%
X21665000Y-31550000D03*
X21665000Y-30450000D03*
X19835000Y-30450000D03*
X19835000Y-31550000D03*
%TD*%
%TO.C,D64*%
X35165000Y-31550000D03*
X35165000Y-30450000D03*
X33335000Y-30450000D03*
X33335000Y-31550000D03*
%TD*%
%TO.C,D71*%
X15335000Y-34950000D03*
X15335000Y-36050000D03*
X17165000Y-36050000D03*
X17165000Y-34950000D03*
%TD*%
%TO.C,D31*%
X30665000Y-13550000D03*
X30665000Y-12450000D03*
X28835000Y-12450000D03*
X28835000Y-13550000D03*
%TD*%
%TO.C,D12*%
X17165000Y-4550000D03*
X17165000Y-3450000D03*
X15335000Y-3450000D03*
X15335000Y-4550000D03*
%TD*%
%TO.C,D52*%
X28835000Y-25950000D03*
X28835000Y-27050000D03*
X30665000Y-27050000D03*
X30665000Y-25950000D03*
%TD*%
D15*
%TO.C,U2*%
X18275000Y-64137500D03*
X19225000Y-64137500D03*
X20175000Y-64137500D03*
X20175000Y-61862500D03*
X19225000Y-61862500D03*
X18275000Y-61862500D03*
%TD*%
D10*
%TO.C,D73*%
X6335000Y-34950000D03*
X6335000Y-36050000D03*
X8165000Y-36050000D03*
X8165000Y-34950000D03*
%TD*%
D16*
%TO.C,R1*%
X20225000Y-69402500D03*
X20225000Y-70597500D03*
%TD*%
D10*
%TO.C,D68*%
X28835000Y-34950000D03*
X28835000Y-36050000D03*
X30665000Y-36050000D03*
X30665000Y-34950000D03*
%TD*%
D17*
%TO.C,R3*%
X18420000Y-51000000D03*
X17225000Y-51000000D03*
%TD*%
D10*
%TO.C,D27*%
X12665000Y-13550000D03*
X12665000Y-12450000D03*
X10835000Y-12450000D03*
X10835000Y-13550000D03*
%TD*%
%TO.C,D62*%
X26165000Y-31550000D03*
X26165000Y-30450000D03*
X24335000Y-30450000D03*
X24335000Y-31550000D03*
%TD*%
%TO.C,D13*%
X21665000Y-4550000D03*
X21665000Y-3450000D03*
X19835000Y-3450000D03*
X19835000Y-4550000D03*
%TD*%
D18*
%TO.C,C4*%
X25425000Y-46500000D03*
X25425000Y-48050000D03*
%TD*%
D10*
%TO.C,D55*%
X15335000Y-25950000D03*
X15335000Y-27050000D03*
X17165000Y-27050000D03*
X17165000Y-25950000D03*
%TD*%
%TO.C,D17*%
X39665000Y-4550000D03*
X39665000Y-3450000D03*
X37835000Y-3450000D03*
X37835000Y-4550000D03*
%TD*%
%TO.C,D67*%
X33335000Y-34950000D03*
X33335000Y-36050000D03*
X35165000Y-36050000D03*
X35165000Y-34950000D03*
%TD*%
%TO.C,D70*%
X19835000Y-34950000D03*
X19835000Y-36050000D03*
X21665000Y-36050000D03*
X21665000Y-34950000D03*
%TD*%
%TO.C,D65*%
X39665000Y-31550000D03*
X39665000Y-30450000D03*
X37835000Y-30450000D03*
X37835000Y-31550000D03*
%TD*%
D19*
%TO.C,D1*%
X19012500Y-53000000D03*
X17437500Y-53000000D03*
%TD*%
D10*
%TO.C,D36*%
X28835000Y-16950000D03*
X28835000Y-18050000D03*
X30665000Y-18050000D03*
X30665000Y-16950000D03*
%TD*%
%TO.C,D47*%
X30665000Y-22550000D03*
X30665000Y-21450000D03*
X28835000Y-21450000D03*
X28835000Y-22550000D03*
%TD*%
%TO.C,D22*%
X19835000Y-7950000D03*
X19835000Y-9050000D03*
X21665000Y-9050000D03*
X21665000Y-7950000D03*
%TD*%
%TO.C,D41*%
X6335000Y-16950000D03*
X6335000Y-18050000D03*
X8165000Y-18050000D03*
X8165000Y-16950000D03*
%TD*%
%TO.C,D45*%
X21665000Y-22550000D03*
X21665000Y-21450000D03*
X19835000Y-21450000D03*
X19835000Y-22550000D03*
%TD*%
%TO.C,D29*%
X21665000Y-13550000D03*
X21665000Y-12450000D03*
X19835000Y-12450000D03*
X19835000Y-13550000D03*
%TD*%
%TO.C,D48*%
X35165000Y-22550000D03*
X35165000Y-21450000D03*
X33335000Y-21450000D03*
X33335000Y-22550000D03*
%TD*%
%TO.C,D38*%
X19835000Y-16950000D03*
X19835000Y-18050000D03*
X21665000Y-18050000D03*
X21665000Y-16950000D03*
%TD*%
%TO.C,D24*%
X10835000Y-7950000D03*
X10835000Y-9050000D03*
X12665000Y-9050000D03*
X12665000Y-7950000D03*
%TD*%
%TO.C,D44*%
X17165000Y-22550000D03*
X17165000Y-21450000D03*
X15335000Y-21450000D03*
X15335000Y-22550000D03*
%TD*%
D20*
%TO.C,R7*%
X28725000Y-47800000D03*
X28725000Y-46605000D03*
%TD*%
D10*
%TO.C,D53*%
X24335000Y-25950000D03*
X24335000Y-27050000D03*
X26165000Y-27050000D03*
X26165000Y-25950000D03*
%TD*%
%TO.C,D51*%
X33335000Y-25950000D03*
X33335000Y-27050000D03*
X35165000Y-27050000D03*
X35165000Y-25950000D03*
%TD*%
%TO.C,D25*%
X6335000Y-7950000D03*
X6335000Y-9050000D03*
X8165000Y-9050000D03*
X8165000Y-7950000D03*
%TD*%
%TO.C,D20*%
X28835000Y-7950000D03*
X28835000Y-9050000D03*
X30665000Y-9050000D03*
X30665000Y-7950000D03*
%TD*%
%TO.C,D56*%
X10835000Y-25950000D03*
X10835000Y-27050000D03*
X12665000Y-27050000D03*
X12665000Y-25950000D03*
%TD*%
D21*
%TO.C,C3*%
X17675000Y-57000000D03*
X15775000Y-57000000D03*
%TD*%
D10*
%TO.C,D19*%
X33335000Y-7950000D03*
X33335000Y-9050000D03*
X35165000Y-9050000D03*
X35165000Y-7950000D03*
%TD*%
%TO.C,D59*%
X12665000Y-31550000D03*
X12665000Y-30450000D03*
X10835000Y-30450000D03*
X10835000Y-31550000D03*
%TD*%
D13*
%TO.C,C6*%
X27725000Y-50437500D03*
X27725000Y-49937500D03*
%TD*%
D10*
%TO.C,D49*%
X39665000Y-22550000D03*
X39665000Y-21450000D03*
X37835000Y-21450000D03*
X37835000Y-22550000D03*
%TD*%
%TO.C,D16*%
X35165000Y-4550000D03*
X35165000Y-3450000D03*
X33335000Y-3450000D03*
X33335000Y-4550000D03*
%TD*%
%TO.C,D30*%
X26165000Y-13550000D03*
X26165000Y-12450000D03*
X24335000Y-12450000D03*
X24335000Y-13550000D03*
%TD*%
D16*
%TO.C,R2*%
X17225000Y-69402500D03*
X17225000Y-70597500D03*
%TD*%
D10*
%TO.C,D14*%
X26165000Y-4550000D03*
X26165000Y-3450000D03*
X24335000Y-3450000D03*
X24335000Y-4550000D03*
%TD*%
%TO.C,D28*%
X17165000Y-13550000D03*
X17165000Y-12450000D03*
X15335000Y-12450000D03*
X15335000Y-13550000D03*
%TD*%
D17*
%TO.C,R8*%
X18420000Y-49000000D03*
X17225000Y-49000000D03*
%TD*%
D10*
%TO.C,D58*%
X8165000Y-31550000D03*
X8165000Y-30450000D03*
X6335000Y-30450000D03*
X6335000Y-31550000D03*
%TD*%
%TO.C,D72*%
X10835000Y-34950000D03*
X10835000Y-36050000D03*
X12665000Y-36050000D03*
X12665000Y-34950000D03*
%TD*%
%TO.C,D33*%
X39665000Y-13550000D03*
X39665000Y-12450000D03*
X37835000Y-12450000D03*
X37835000Y-13550000D03*
%TD*%
D22*
%TO.C,J2*%
X27770000Y-85990000D03*
X27770000Y-83990000D03*
X27770000Y-81990000D03*
X27770000Y-79990000D03*
D23*
X22570000Y-88390000D03*
X22570000Y-77590000D03*
%TD*%
D10*
%TO.C,D57*%
X6335000Y-25950000D03*
X6335000Y-27050000D03*
X8165000Y-27050000D03*
X8165000Y-25950000D03*
%TD*%
%TO.C,D23*%
X15335000Y-7950000D03*
X15335000Y-9050000D03*
X17165000Y-9050000D03*
X17165000Y-7950000D03*
%TD*%
%TO.C,D39*%
X15335000Y-16950000D03*
X15335000Y-18050000D03*
X17165000Y-18050000D03*
X17165000Y-16950000D03*
%TD*%
%TO.C,D21*%
X24335000Y-7950000D03*
X24335000Y-9050000D03*
X26165000Y-9050000D03*
X26165000Y-7950000D03*
%TD*%
D21*
%TO.C,C2*%
X17675000Y-59305000D03*
X15775000Y-59305000D03*
%TD*%
D10*
%TO.C,D69*%
X24335000Y-34950000D03*
X24335000Y-36050000D03*
X26165000Y-36050000D03*
X26165000Y-34950000D03*
%TD*%
%TO.C,D34*%
X37835000Y-16950000D03*
X37835000Y-18050000D03*
X39665000Y-18050000D03*
X39665000Y-16950000D03*
%TD*%
%TO.C,D26*%
X8165000Y-13550000D03*
X8165000Y-12450000D03*
X6335000Y-12450000D03*
X6335000Y-13550000D03*
%TD*%
%TO.C,D50*%
X37835000Y-25950000D03*
X37835000Y-27050000D03*
X39665000Y-27050000D03*
X39665000Y-25950000D03*
%TD*%
%TO.C,D18*%
X37835000Y-7950000D03*
X37835000Y-9050000D03*
X39665000Y-9050000D03*
X39665000Y-7950000D03*
%TD*%
%TO.C,D11*%
X12665000Y-4550000D03*
X12665000Y-3450000D03*
X10835000Y-3450000D03*
X10835000Y-4550000D03*
%TD*%
%TO.C,D40*%
X10835000Y-16950000D03*
X10835000Y-18050000D03*
X12665000Y-18050000D03*
X12665000Y-16950000D03*
%TD*%
D24*
%TO.C,U3*%
X21250000Y-54745000D03*
X21250000Y-57025000D03*
D25*
X27550000Y-57025000D03*
D24*
X21250000Y-59305000D03*
%TD*%
D10*
%TO.C,D42*%
X8165000Y-22550000D03*
X8165000Y-21450000D03*
X6335000Y-21450000D03*
X6335000Y-22550000D03*
%TD*%
%TO.C,D35*%
X33335000Y-16950000D03*
X33335000Y-18050000D03*
X35165000Y-18050000D03*
X35165000Y-16950000D03*
%TD*%
D26*
%TO.C,J4*%
X21615000Y-67895000D03*
X15835000Y-67895000D03*
D27*
X23045000Y-71575000D03*
D28*
X23045000Y-67395000D03*
D27*
X14405000Y-71575000D03*
D28*
X14405000Y-67395000D03*
%TD*%
M02*
