M48
; DRILL file {KiCad 9.0.7} date 2026-09-25T12:53:25+0200
; FORMAT={-:-/ absolute / metric / decimal}
; #@! TF.CreationDate,2026-09-25T12:53:25+02:00
; #@! TF.GenerationSoftware,Kicad,Pcbnew,9.0.7
; #@! TF.FileFunction,MixedPlating,1,2
FMAT,2
METRIC
; #@! TA.AperFunction,Plated,PTH,ViaDrill
T1C0.250
; #@! TA.AperFunction,Plated,PTH,ViaDrill
T2C0.300
; #@! TA.AperFunction,Plated,PTH,ComponentDrill
T3C0.600
; #@! TA.AperFunction,NonPlated,NPTH,ComponentDrill
T4C0.650
%
G90
G05
T1
X3.45Y-3.45
X3.45Y-6.45
X3.45Y-9.45
X3.45Y-12.45
X3.45Y-15.45
X3.45Y-18.45
X3.45Y-21.45
X3.45Y-24.45
X3.45Y-27.45
X3.45Y-30.45
X3.45Y-33.45
X3.45Y-36.45
X3.45Y-39.45
X3.45Y-42.45
X3.45Y-45.45
X3.45Y-48.45
X3.45Y-51.45
X3.45Y-54.45
X3.45Y-57.45
X3.45Y-60.45
X3.45Y-63.45
X3.45Y-66.45
X3.45Y-69.45
X3.45Y-72.45
X3.45Y-75.45
X3.45Y-78.45
X3.45Y-81.45
X3.45Y-84.45
X3.45Y-87.45
X3.95Y-3.95
X3.95Y-7.45
X3.95Y-10.95
X3.95Y-14.45
X3.95Y-17.95
X3.95Y-21.45
X3.95Y-24.95
X3.95Y-28.45
X3.95Y-31.95
X3.95Y-35.45
X3.95Y-38.95
X3.95Y-42.45
X3.95Y-45.95
X3.95Y-49.45
X3.95Y-52.95
X3.95Y-56.45
X3.95Y-59.95
X3.95Y-63.45
X3.95Y-66.95
X3.95Y-70.45
X3.95Y-73.95
X3.95Y-77.45
X3.95Y-80.95
X3.95Y-84.45
X3.95Y-87.95
X6.45Y-39.45
X6.45Y-45.45
X6.45Y-57.45
X6.45Y-63.45
X6.45Y-69.45
X6.45Y-75.45
X6.45Y-87.45
X7.45Y-35.45
X7.45Y-38.95
X7.45Y-42.45
X7.45Y-45.95
X7.45Y-49.45
X7.45Y-52.95
X7.45Y-56.45
X7.45Y-59.95
X7.45Y-63.45
X7.45Y-66.95
X7.45Y-70.45
X7.45Y-73.95
X7.45Y-77.45
X7.45Y-80.95
X7.45Y-84.45
X7.45Y-87.95
X9.45Y-27.45
X9.45Y-39.45
X9.45Y-42.45
X9.45Y-45.45
X9.45Y-48.45
X9.45Y-51.45
X9.45Y-54.45
X9.45Y-57.45
X9.45Y-60.45
X9.45Y-63.45
X9.45Y-66.45
X9.45Y-69.45
X9.45Y-72.45
X9.45Y-75.45
X9.45Y-78.45
X9.45Y-81.45
X9.45Y-84.45
X9.45Y-87.45
X10.95Y-49.45
X10.95Y-52.95
X10.95Y-56.45
X10.95Y-59.95
X10.95Y-63.45
X10.95Y-66.95
X10.95Y-70.45
X10.95Y-73.95
X10.95Y-77.45
X10.95Y-80.95
X10.95Y-84.45
X10.95Y-87.95
X12.45Y-45.45
X12.45Y-51.45
X12.45Y-57.45
X12.45Y-63.45
X12.45Y-69.45
X12.45Y-75.45
X12.45Y-81.45
X12.45Y-87.45
X14.45Y-10.95
X14.45Y-28.45
X14.45Y-38.95
X14.45Y-45.95
X14.45Y-66.95
X14.45Y-70.45
X14.45Y-73.95
X14.45Y-77.45
X14.45Y-80.95
X14.45Y-84.45
X14.45Y-87.95
X15.45Y-6.45
X15.45Y-24.45
X15.45Y-39.45
X15.45Y-42.45
X15.45Y-45.45
X15.45Y-54.45
X15.45Y-57.45
X15.45Y-63.45
X15.45Y-69.45
X15.45Y-72.45
X15.45Y-75.45
X15.45Y-78.45
X15.45Y-81.45
X15.45Y-84.45
X15.45Y-87.45
X17.95Y-10.95
X17.95Y-14.45
X17.95Y-38.95
X17.95Y-70.45
X17.95Y-73.95
X17.95Y-77.45
X17.95Y-80.95
X17.95Y-87.95
X18.45Y-15.45
X18.45Y-24.45
X18.45Y-39.45
X18.45Y-45.45
X18.45Y-69.45
X18.45Y-75.45
X18.45Y-81.45
X18.45Y-87.45
X21.45Y-24.95
X21.45Y-38.95
X21.45Y-39.45
X21.45Y-48.45
X21.45Y-49.45
X21.45Y-52.95
X21.45Y-69.45
X21.45Y-70.45
X21.45Y-73.95
X21.45Y-75.45
X21.45Y-80.95
X21.45Y-81.45
X24.45Y-39.45
X24.45Y-51.45
X24.45Y-69.45
X24.45Y-81.45
X24.95Y-38.95
X24.95Y-49.45
X24.95Y-52.95
X24.95Y-66.95
X24.95Y-70.45
X24.95Y-73.95
X24.95Y-87.95
X27.45Y-6.45
X27.45Y-12.45
X27.45Y-24.45
X27.45Y-30.45
X27.45Y-39.45
X27.45Y-42.45
X27.45Y-48.45
X27.45Y-51.45
X27.45Y-69.45
X27.45Y-72.45
X27.45Y-75.45
X27.45Y-78.45
X28.45Y-28.45
X28.45Y-38.95
X28.45Y-42.45
X28.45Y-66.95
X28.45Y-70.45
X28.45Y-73.95
X28.45Y-77.45
X30.45Y-39.45
X30.45Y-45.45
X30.45Y-51.45
X30.45Y-87.45
X31.95Y-21.45
X31.95Y-24.95
X31.95Y-28.45
X31.95Y-38.95
X31.95Y-42.45
X31.95Y-45.95
X31.95Y-66.95
X31.95Y-70.45
X31.95Y-73.95
X31.95Y-77.45
X31.95Y-80.95
X31.95Y-87.95
X33.45Y-6.45
X33.45Y-24.45
X33.45Y-33.45
X33.45Y-39.45
X33.45Y-42.45
X33.45Y-45.45
X33.45Y-48.45
X33.45Y-51.45
X33.45Y-54.45
X33.45Y-57.45
X33.45Y-60.45
X33.45Y-63.45
X33.45Y-84.45
X33.45Y-87.45
X35.45Y-28.45
X35.45Y-38.95
X35.45Y-42.45
X35.45Y-45.95
X35.45Y-49.45
X35.45Y-52.95
X35.45Y-56.45
X35.45Y-59.95
X35.45Y-63.45
X35.45Y-66.95
X35.45Y-70.45
X35.45Y-73.95
X35.45Y-77.45
X35.45Y-80.95
X35.45Y-84.45
X35.45Y-87.95
X36.45Y-33.45
X36.45Y-39.45
X36.45Y-45.45
X36.45Y-57.45
X36.45Y-63.45
X36.45Y-69.45
X36.45Y-75.45
X36.45Y-87.45
X38.95Y-38.95
X38.95Y-42.45
X38.95Y-45.95
X38.95Y-49.45
X38.95Y-52.95
X38.95Y-56.45
X38.95Y-59.95
X38.95Y-63.45
X38.95Y-66.95
X38.95Y-70.45
X38.95Y-73.95
X38.95Y-77.45
X38.95Y-80.95
X38.95Y-84.45
X38.95Y-87.95
X39.45Y-39.45
X39.45Y-42.45
X39.45Y-45.45
X39.45Y-48.45
X39.45Y-51.45
X39.45Y-54.45
X39.45Y-57.45
X39.45Y-60.45
X39.45Y-63.45
X39.45Y-66.45
X39.45Y-69.45
X39.45Y-72.45
X39.45Y-75.45
X39.45Y-78.45
X42.45Y-3.95
X42.45Y-7.45
X42.45Y-10.95
X42.45Y-14.45
X42.45Y-21.45
X42.45Y-28.45
T2
X1.45Y-1.45
X1.45Y-6.45
X1.45Y-11.45
X1.45Y-16.45
X1.45Y-21.45
X1.45Y-26.45
X1.45Y-31.45
X1.45Y-36.45
X1.45Y-41.45
X1.45Y-46.45
X1.45Y-51.45
X1.45Y-56.45
X1.45Y-61.45
X1.45Y-66.45
X1.45Y-71.45
X1.45Y-76.45
X1.45Y-81.45
X1.45Y-86.45
X6.45Y-1.45
X6.45Y-6.45
X6.45Y-41.45
X6.45Y-46.45
X6.45Y-56.45
X6.45Y-61.45
X6.45Y-66.45
X6.45Y-71.45
X6.45Y-76.45
X6.45Y-86.45
X10.967Y-5.343
X11.45Y-1.45
X11.45Y-51.45
X11.45Y-61.45
X11.45Y-66.45
X11.45Y-71.45
X11.45Y-76.45
X11.45Y-81.45
X11.45Y-86.45
X15.921Y-48.441
X15.921Y-51.218
X16.45Y-1.45
X16.45Y-41.45
X16.45Y-46.45
X16.45Y-71.45
X16.45Y-76.45
X16.45Y-81.45
X16.45Y-86.45
X17.338Y-68.399
X18.075Y-65.523
X18.4Y-46.947
X18.717Y-63.033
X19.144Y-60.406
X19.365Y-65.388
X19.472Y-56.373
X20.576Y-68.017
X21.45Y-1.45
X21.45Y-41.45
X21.45Y-71.45
X26.45Y-1.45
X26.45Y-41.45
X26.45Y-51.45
X26.45Y-71.45
X26.45Y-76.45
X29.81Y-48.022
X29.853Y-4.359
X29.875Y-53.444
X29.875Y-61.48
X30.01Y-46.655
X31.45Y-1.45
X31.45Y-41.45
X31.45Y-86.45
X33.106Y-66.093
X34.278Y-35.711
X36.45Y-1.45
X36.45Y-41.45
X36.45Y-46.45
X36.45Y-56.45
X36.45Y-61.45
X36.45Y-66.45
X36.45Y-71.45
X36.45Y-76.45
X36.45Y-86.45
X41.45Y-1.45
X41.45Y-6.45
X41.45Y-11.45
X41.45Y-16.45
X41.45Y-21.45
X41.45Y-26.45
X41.45Y-31.45
X41.45Y-36.45
X41.45Y-41.45
X41.45Y-46.45
X41.45Y-51.45
X41.45Y-56.45
X41.45Y-61.45
X41.45Y-66.45
X41.45Y-71.45
X41.45Y-76.45
X41.45Y-81.45
X41.45Y-86.45
X42.45Y-6.45
X42.45Y-12.45
X42.45Y-30.45
X42.45Y-36.45
X42.45Y-42.45
X42.45Y-48.45
X42.45Y-54.45
X42.45Y-60.45
X42.45Y-66.45
X42.45Y-72.45
X42.45Y-78.45
X42.45Y-84.45
T4
X15.835Y-67.895
X21.615Y-67.895
T3
X14.405Y-67.945G85X14.405Y-66.845
G05
X14.405Y-71.975G85X14.405Y-71.175
G05
X23.045Y-67.945G85X23.045Y-66.845
G05
X23.045Y-71.975G85X23.045Y-71.175
G05
M30
