%TF.GenerationSoftware,KiCad,Pcbnew,9.0.7*%
%TF.CreationDate,2026-09-25T12:53:25+02:00*%
%TF.ProjectId,esp32-led-matrix,65737033-322d-46c6-9564-2d6d61747269,rev?*%
%TF.SameCoordinates,Original*%
%TF.FileFunction,Other,User*%
%FSLAX46Y46*%
G04 Gerber Fmt 4.6, Leading zero omitted, Abs format (unit mm)*
G04 Created by KiCad (PCBNEW 9.0.7) date 2026-09-25 12:53:25*
%MOMM*%
%LPD*%
G01*
G04 APERTURE LIST*
%ADD10C,0.050000*%
G04 APERTURE END LIST*
%TO.C,D15*%
D10*
X31150000Y-2800000D02*
X28350000Y-2800000D01*
X28350000Y-5200000D01*
X31150000Y-5200000D01*
X31150000Y-2800000D01*
%TO.C,D10*%
X8650000Y-2800000D02*
X5850000Y-2800000D01*
X5850000Y-5200000D01*
X8650000Y-5200000D01*
X8650000Y-2800000D01*
%TO.C,D4*%
X26775000Y-45950000D02*
X26945000Y-45950000D01*
X26775000Y-47050000D02*
X26775000Y-45950000D01*
X26945000Y-45750000D02*
X27505000Y-45750000D01*
X26945000Y-45950000D02*
X26945000Y-45750000D01*
X26945000Y-47050000D02*
X26775000Y-47050000D01*
X26945000Y-47050000D02*
X26945000Y-47250000D01*
X26945000Y-47250000D02*
X27505000Y-47250000D01*
X27505000Y-45750000D02*
X27505000Y-45950000D01*
X27505000Y-45950000D02*
X27675000Y-45950000D01*
X27505000Y-47250000D02*
X27505000Y-47050000D01*
X27675000Y-45950000D02*
X27675000Y-47050000D01*
X27675000Y-47050000D02*
X27505000Y-47050000D01*
%TO.C,C5*%
X28495000Y-52480000D02*
X29955000Y-52480000D01*
X29955000Y-49520000D01*
X28495000Y-49520000D01*
X28495000Y-52480000D01*
%TO.C,D37*%
X23850000Y-18700000D02*
X26650000Y-18700000D01*
X26650000Y-16300000D01*
X23850000Y-16300000D01*
X23850000Y-18700000D01*
%TO.C,D43*%
X13150000Y-20800000D02*
X10350000Y-20800000D01*
X10350000Y-23200000D01*
X13150000Y-23200000D01*
X13150000Y-20800000D01*
%TO.C,D54*%
X19350000Y-27700000D02*
X22150000Y-27700000D01*
X22150000Y-25300000D01*
X19350000Y-25300000D01*
X19350000Y-27700000D01*
%TO.C,D60*%
X17650000Y-29800000D02*
X14850000Y-29800000D01*
X14850000Y-32200000D01*
X17650000Y-32200000D01*
X17650000Y-29800000D01*
%TO.C,D63*%
X31150000Y-29800000D02*
X28350000Y-29800000D01*
X28350000Y-32200000D01*
X31150000Y-32200000D01*
X31150000Y-29800000D01*
%TO.C,D46*%
X26650000Y-20800000D02*
X23850000Y-20800000D01*
X23850000Y-23200000D01*
X26650000Y-23200000D01*
X26650000Y-20800000D01*
%TO.C,C1*%
X18925000Y-59942500D02*
X19525000Y-59942500D01*
X19525000Y-58382500D01*
X18925000Y-58382500D01*
X18925000Y-59942500D01*
%TO.C,D32*%
X35650000Y-11800000D02*
X32850000Y-11800000D01*
X32850000Y-14200000D01*
X35650000Y-14200000D01*
X35650000Y-11800000D01*
%TO.C,SW1*%
X19325000Y-45350000D02*
X19325000Y-48650000D01*
X19325000Y-48650000D02*
X24125000Y-48650000D01*
X24125000Y-45350000D02*
X19325000Y-45350000D01*
X24125000Y-48650000D02*
X24125000Y-45350000D01*
%TO.C,D66*%
X37350000Y-36700000D02*
X40150000Y-36700000D01*
X40150000Y-34300000D01*
X37350000Y-34300000D01*
X37350000Y-36700000D01*
%TO.C,D61*%
X22150000Y-29800000D02*
X19350000Y-29800000D01*
X19350000Y-32200000D01*
X22150000Y-32200000D01*
X22150000Y-29800000D01*
%TO.C,D64*%
X35650000Y-29800000D02*
X32850000Y-29800000D01*
X32850000Y-32200000D01*
X35650000Y-32200000D01*
X35650000Y-29800000D01*
%TO.C,D71*%
X14850000Y-36700000D02*
X17650000Y-36700000D01*
X17650000Y-34300000D01*
X14850000Y-34300000D01*
X14850000Y-36700000D01*
%TO.C,D31*%
X31150000Y-11800000D02*
X28350000Y-11800000D01*
X28350000Y-14200000D01*
X31150000Y-14200000D01*
X31150000Y-11800000D01*
%TO.C,D12*%
X17650000Y-2800000D02*
X14850000Y-2800000D01*
X14850000Y-5200000D01*
X17650000Y-5200000D01*
X17650000Y-2800000D01*
%TO.C,D52*%
X28350000Y-27700000D02*
X31150000Y-27700000D01*
X31150000Y-25300000D01*
X28350000Y-25300000D01*
X28350000Y-27700000D01*
%TO.C,U2*%
X17525000Y-61950000D02*
X17725000Y-61950000D01*
X17525000Y-64050000D02*
X17525000Y-61950000D01*
X17725000Y-60950000D02*
X20725000Y-60950000D01*
X17725000Y-61950000D02*
X17725000Y-60950000D01*
X17725000Y-64050000D02*
X17525000Y-64050000D01*
X17725000Y-65050000D02*
X17725000Y-64050000D01*
X20725000Y-60950000D02*
X20725000Y-61950000D01*
X20725000Y-61950000D02*
X20925000Y-61950000D01*
X20725000Y-64050000D02*
X20725000Y-65050000D01*
X20725000Y-65050000D02*
X17725000Y-65050000D01*
X20925000Y-61950000D02*
X20925000Y-64050000D01*
X20925000Y-64050000D02*
X20725000Y-64050000D01*
%TO.C,D73*%
X5850000Y-36700000D02*
X8650000Y-36700000D01*
X8650000Y-34300000D01*
X5850000Y-34300000D01*
X5850000Y-36700000D01*
%TO.C,R1*%
X20695000Y-68890000D02*
X19755000Y-68890000D01*
X19755000Y-71110000D01*
X20695000Y-71110000D01*
X20695000Y-68890000D01*
%TO.C,D68*%
X28350000Y-36700000D02*
X31150000Y-36700000D01*
X31150000Y-34300000D01*
X28350000Y-34300000D01*
X28350000Y-36700000D01*
%TO.C,R3*%
X18932500Y-51470000D02*
X16712500Y-51470000D01*
X16712500Y-50530000D01*
X18932500Y-50530000D01*
X18932500Y-51470000D01*
%TO.C,D27*%
X13150000Y-11800000D02*
X10350000Y-11800000D01*
X10350000Y-14200000D01*
X13150000Y-14200000D01*
X13150000Y-11800000D01*
%TO.C,D62*%
X26650000Y-29800000D02*
X23850000Y-29800000D01*
X23850000Y-32200000D01*
X26650000Y-32200000D01*
X26650000Y-29800000D01*
%TO.C,D13*%
X22150000Y-2800000D02*
X19350000Y-2800000D01*
X19350000Y-5200000D01*
X22150000Y-5200000D01*
X22150000Y-2800000D01*
%TO.C,C4*%
X26155000Y-45795000D02*
X24695000Y-45795000D01*
X24695000Y-48755000D01*
X26155000Y-48755000D01*
X26155000Y-45795000D01*
%TO.C,D55*%
X14850000Y-27700000D02*
X17650000Y-27700000D01*
X17650000Y-25300000D01*
X14850000Y-25300000D01*
X14850000Y-27700000D01*
%TO.C,D17*%
X40150000Y-2800000D02*
X37350000Y-2800000D01*
X37350000Y-5200000D01*
X40150000Y-5200000D01*
X40150000Y-2800000D01*
%TO.C,D67*%
X32850000Y-36700000D02*
X35650000Y-36700000D01*
X35650000Y-34300000D01*
X32850000Y-34300000D01*
X32850000Y-36700000D01*
%TO.C,D70*%
X19350000Y-36700000D02*
X22150000Y-36700000D01*
X22150000Y-34300000D01*
X19350000Y-34300000D01*
X19350000Y-36700000D01*
%TO.C,D65*%
X40150000Y-29800000D02*
X37350000Y-29800000D01*
X37350000Y-32200000D01*
X40150000Y-32200000D01*
X40150000Y-29800000D01*
%TO.C,D1*%
X19705000Y-53730000D02*
X16745000Y-53730000D01*
X16745000Y-52270000D01*
X19705000Y-52270000D01*
X19705000Y-53730000D01*
%TO.C,D36*%
X28350000Y-18700000D02*
X31150000Y-18700000D01*
X31150000Y-16300000D01*
X28350000Y-16300000D01*
X28350000Y-18700000D01*
%TO.C,D47*%
X31150000Y-20800000D02*
X28350000Y-20800000D01*
X28350000Y-23200000D01*
X31150000Y-23200000D01*
X31150000Y-20800000D01*
%TO.C,D22*%
X19350000Y-9700000D02*
X22150000Y-9700000D01*
X22150000Y-7300000D01*
X19350000Y-7300000D01*
X19350000Y-9700000D01*
%TO.C,D41*%
X5850000Y-18700000D02*
X8650000Y-18700000D01*
X8650000Y-16300000D01*
X5850000Y-16300000D01*
X5850000Y-18700000D01*
%TO.C,D45*%
X22150000Y-20800000D02*
X19350000Y-20800000D01*
X19350000Y-23200000D01*
X22150000Y-23200000D01*
X22150000Y-20800000D01*
%TO.C,D29*%
X22150000Y-11800000D02*
X19350000Y-11800000D01*
X19350000Y-14200000D01*
X22150000Y-14200000D01*
X22150000Y-11800000D01*
%TO.C,D48*%
X35650000Y-20800000D02*
X32850000Y-20800000D01*
X32850000Y-23200000D01*
X35650000Y-23200000D01*
X35650000Y-20800000D01*
%TO.C,D38*%
X19350000Y-18700000D02*
X22150000Y-18700000D01*
X22150000Y-16300000D01*
X19350000Y-16300000D01*
X19350000Y-18700000D01*
%TO.C,D24*%
X10350000Y-9700000D02*
X13150000Y-9700000D01*
X13150000Y-7300000D01*
X10350000Y-7300000D01*
X10350000Y-9700000D01*
%TO.C,D44*%
X17650000Y-20800000D02*
X14850000Y-20800000D01*
X14850000Y-23200000D01*
X17650000Y-23200000D01*
X17650000Y-20800000D01*
%TO.C,R7*%
X28255000Y-48312500D02*
X29195000Y-48312500D01*
X29195000Y-46092500D01*
X28255000Y-46092500D01*
X28255000Y-48312500D01*
%TO.C,D53*%
X23850000Y-27700000D02*
X26650000Y-27700000D01*
X26650000Y-25300000D01*
X23850000Y-25300000D01*
X23850000Y-27700000D01*
%TO.C,D51*%
X32850000Y-27700000D02*
X35650000Y-27700000D01*
X35650000Y-25300000D01*
X32850000Y-25300000D01*
X32850000Y-27700000D01*
%TO.C,D25*%
X5850000Y-9700000D02*
X8650000Y-9700000D01*
X8650000Y-7300000D01*
X5850000Y-7300000D01*
X5850000Y-9700000D01*
%TO.C,D20*%
X28350000Y-9700000D02*
X31150000Y-9700000D01*
X31150000Y-7300000D01*
X28350000Y-7300000D01*
X28350000Y-9700000D01*
%TO.C,D56*%
X10350000Y-27700000D02*
X13150000Y-27700000D01*
X13150000Y-25300000D01*
X10350000Y-25300000D01*
X10350000Y-27700000D01*
%TO.C,C3*%
X18425000Y-57980000D02*
X15025000Y-57980000D01*
X15025000Y-56020000D01*
X18425000Y-56020000D01*
X18425000Y-57980000D01*
%TO.C,D19*%
X32850000Y-9700000D02*
X35650000Y-9700000D01*
X35650000Y-7300000D01*
X32850000Y-7300000D01*
X32850000Y-9700000D01*
%TO.C,D59*%
X13150000Y-29800000D02*
X10350000Y-29800000D01*
X10350000Y-32200000D01*
X13150000Y-32200000D01*
X13150000Y-29800000D01*
%TO.C,C6*%
X27425000Y-50967500D02*
X28025000Y-50967500D01*
X28025000Y-49407500D01*
X27425000Y-49407500D01*
X27425000Y-50967500D01*
%TO.C,D49*%
X40150000Y-20800000D02*
X37350000Y-20800000D01*
X37350000Y-23200000D01*
X40150000Y-23200000D01*
X40150000Y-20800000D01*
%TO.C,D16*%
X35650000Y-2800000D02*
X32850000Y-2800000D01*
X32850000Y-5200000D01*
X35650000Y-5200000D01*
X35650000Y-2800000D01*
%TO.C,D30*%
X26650000Y-11800000D02*
X23850000Y-11800000D01*
X23850000Y-14200000D01*
X26650000Y-14200000D01*
X26650000Y-11800000D01*
%TO.C,R2*%
X17695000Y-68890000D02*
X16755000Y-68890000D01*
X16755000Y-71110000D01*
X17695000Y-71110000D01*
X17695000Y-68890000D01*
%TO.C,D14*%
X26650000Y-2800000D02*
X23850000Y-2800000D01*
X23850000Y-5200000D01*
X26650000Y-5200000D01*
X26650000Y-2800000D01*
%TO.C,D28*%
X17650000Y-11800000D02*
X14850000Y-11800000D01*
X14850000Y-14200000D01*
X17650000Y-14200000D01*
X17650000Y-11800000D01*
%TO.C,R8*%
X18932500Y-49470000D02*
X16712500Y-49470000D01*
X16712500Y-48530000D01*
X18932500Y-48530000D01*
X18932500Y-49470000D01*
%TO.C,D58*%
X8650000Y-29800000D02*
X5850000Y-29800000D01*
X5850000Y-32200000D01*
X8650000Y-32200000D01*
X8650000Y-29800000D01*
%TO.C,D72*%
X10350000Y-36700000D02*
X13150000Y-36700000D01*
X13150000Y-34300000D01*
X10350000Y-34300000D01*
X10350000Y-36700000D01*
%TO.C,D33*%
X40150000Y-11800000D02*
X37350000Y-11800000D01*
X37350000Y-14200000D01*
X40150000Y-14200000D01*
X40150000Y-11800000D01*
%TO.C,J2*%
X20700000Y-76600000D02*
X30300000Y-76600000D01*
X30300000Y-89400000D01*
X20700000Y-89400000D01*
X20700000Y-76600000D01*
%TO.C,D57*%
X5850000Y-27700000D02*
X8650000Y-27700000D01*
X8650000Y-25300000D01*
X5850000Y-25300000D01*
X5850000Y-27700000D01*
%TO.C,D23*%
X14850000Y-9700000D02*
X17650000Y-9700000D01*
X17650000Y-7300000D01*
X14850000Y-7300000D01*
X14850000Y-9700000D01*
%TO.C,D39*%
X14850000Y-18700000D02*
X17650000Y-18700000D01*
X17650000Y-16300000D01*
X14850000Y-16300000D01*
X14850000Y-18700000D01*
%TO.C,D21*%
X23850000Y-9700000D02*
X26650000Y-9700000D01*
X26650000Y-7300000D01*
X23850000Y-7300000D01*
X23850000Y-9700000D01*
%TO.C,C2*%
X18425000Y-60285000D02*
X15025000Y-60285000D01*
X15025000Y-58325000D01*
X18425000Y-58325000D01*
X18425000Y-60285000D01*
%TO.C,D69*%
X23850000Y-36700000D02*
X26650000Y-36700000D01*
X26650000Y-34300000D01*
X23850000Y-34300000D01*
X23850000Y-36700000D01*
%TO.C,D34*%
X37350000Y-18700000D02*
X40150000Y-18700000D01*
X40150000Y-16300000D01*
X37350000Y-16300000D01*
X37350000Y-18700000D01*
%TO.C,D26*%
X8650000Y-11800000D02*
X5850000Y-11800000D01*
X5850000Y-14200000D01*
X8650000Y-14200000D01*
X8650000Y-11800000D01*
%TO.C,D50*%
X37350000Y-27700000D02*
X40150000Y-27700000D01*
X40150000Y-25300000D01*
X37350000Y-25300000D01*
X37350000Y-27700000D01*
%TO.C,D18*%
X37350000Y-9700000D02*
X40150000Y-9700000D01*
X40150000Y-7300000D01*
X37350000Y-7300000D01*
X37350000Y-9700000D01*
%TO.C,D11*%
X13150000Y-2800000D02*
X10350000Y-2800000D01*
X10350000Y-5200000D01*
X13150000Y-5200000D01*
X13150000Y-2800000D01*
%TO.C,D40*%
X10350000Y-18700000D02*
X13150000Y-18700000D01*
X13150000Y-16300000D01*
X10350000Y-16300000D01*
X10350000Y-18700000D01*
%TO.C,U3*%
X19900000Y-53525000D02*
X31000000Y-53525000D01*
X31000000Y-60525000D01*
X19900000Y-60525000D01*
X19900000Y-53525000D01*
%TO.C,D42*%
X8650000Y-20800000D02*
X5850000Y-20800000D01*
X5850000Y-23200000D01*
X8650000Y-23200000D01*
X8650000Y-20800000D01*
%TO.C,D35*%
X32850000Y-18700000D02*
X35650000Y-18700000D01*
X35650000Y-16300000D01*
X32850000Y-16300000D01*
X32850000Y-18700000D01*
%TD*%
M02*
