%TF.GenerationSoftware,KiCad,Pcbnew,9.0.7*%
%TF.CreationDate,2026-09-25T12:53:25+02:00*%
%TF.ProjectId,esp32-led-matrix,65737033-322d-46c6-9564-2d6d61747269,rev?*%
%TF.SameCoordinates,Original*%
%TF.FileFunction,Legend,Top*%
%TF.FilePolarity,Positive*%
%FSLAX46Y46*%
G04 Gerber Fmt 4.6, Leading zero omitted, Abs format (unit mm)*
G04 Created by KiCad (PCBNEW 9.0.7) date 2026-09-25 12:53:25*
%MOMM*%
%LPD*%
G01*
G04 APERTURE LIST*
%ADD10C,0.150000*%
%ADD11C,0.127000*%
%ADD12C,0.200000*%
%ADD13C,0.120000*%
%ADD14C,0.203200*%
G04 APERTURE END LIST*
D10*
X20772618Y-49954819D02*
X20439285Y-49478628D01*
X20201190Y-49954819D02*
X20201190Y-48954819D01*
X20201190Y-48954819D02*
X20582142Y-48954819D01*
X20582142Y-48954819D02*
X20677380Y-49002438D01*
X20677380Y-49002438D02*
X20724999Y-49050057D01*
X20724999Y-49050057D02*
X20772618Y-49145295D01*
X20772618Y-49145295D02*
X20772618Y-49288152D01*
X20772618Y-49288152D02*
X20724999Y-49383390D01*
X20724999Y-49383390D02*
X20677380Y-49431009D01*
X20677380Y-49431009D02*
X20582142Y-49478628D01*
X20582142Y-49478628D02*
X20201190Y-49478628D01*
X21201190Y-49431009D02*
X21534523Y-49431009D01*
X21677380Y-49954819D02*
X21201190Y-49954819D01*
X21201190Y-49954819D02*
X21201190Y-48954819D01*
X21201190Y-48954819D02*
X21677380Y-48954819D01*
X22058333Y-49907200D02*
X22201190Y-49954819D01*
X22201190Y-49954819D02*
X22439285Y-49954819D01*
X22439285Y-49954819D02*
X22534523Y-49907200D01*
X22534523Y-49907200D02*
X22582142Y-49859580D01*
X22582142Y-49859580D02*
X22629761Y-49764342D01*
X22629761Y-49764342D02*
X22629761Y-49669104D01*
X22629761Y-49669104D02*
X22582142Y-49573866D01*
X22582142Y-49573866D02*
X22534523Y-49526247D01*
X22534523Y-49526247D02*
X22439285Y-49478628D01*
X22439285Y-49478628D02*
X22248809Y-49431009D01*
X22248809Y-49431009D02*
X22153571Y-49383390D01*
X22153571Y-49383390D02*
X22105952Y-49335771D01*
X22105952Y-49335771D02*
X22058333Y-49240533D01*
X22058333Y-49240533D02*
X22058333Y-49145295D01*
X22058333Y-49145295D02*
X22105952Y-49050057D01*
X22105952Y-49050057D02*
X22153571Y-49002438D01*
X22153571Y-49002438D02*
X22248809Y-48954819D01*
X22248809Y-48954819D02*
X22486904Y-48954819D01*
X22486904Y-48954819D02*
X22629761Y-49002438D01*
X23058333Y-49431009D02*
X23391666Y-49431009D01*
X23534523Y-49954819D02*
X23058333Y-49954819D01*
X23058333Y-49954819D02*
X23058333Y-48954819D01*
X23058333Y-48954819D02*
X23534523Y-48954819D01*
X23820238Y-48954819D02*
X24391666Y-48954819D01*
X24105952Y-49954819D02*
X24105952Y-48954819D01*
X21129819Y-63761904D02*
X21939342Y-63761904D01*
X21939342Y-63761904D02*
X22034580Y-63714285D01*
X22034580Y-63714285D02*
X22082200Y-63666666D01*
X22082200Y-63666666D02*
X22129819Y-63571428D01*
X22129819Y-63571428D02*
X22129819Y-63380952D01*
X22129819Y-63380952D02*
X22082200Y-63285714D01*
X22082200Y-63285714D02*
X22034580Y-63238095D01*
X22034580Y-63238095D02*
X21939342Y-63190476D01*
X21939342Y-63190476D02*
X21129819Y-63190476D01*
X21225057Y-62761904D02*
X21177438Y-62714285D01*
X21177438Y-62714285D02*
X21129819Y-62619047D01*
X21129819Y-62619047D02*
X21129819Y-62380952D01*
X21129819Y-62380952D02*
X21177438Y-62285714D01*
X21177438Y-62285714D02*
X21225057Y-62238095D01*
X21225057Y-62238095D02*
X21320295Y-62190476D01*
X21320295Y-62190476D02*
X21415533Y-62190476D01*
X21415533Y-62190476D02*
X21558390Y-62238095D01*
X21558390Y-62238095D02*
X22129819Y-62809523D01*
X22129819Y-62809523D02*
X22129819Y-62190476D01*
X20679819Y-72666666D02*
X20203628Y-72999999D01*
X20679819Y-73238094D02*
X19679819Y-73238094D01*
X19679819Y-73238094D02*
X19679819Y-72857142D01*
X19679819Y-72857142D02*
X19727438Y-72761904D01*
X19727438Y-72761904D02*
X19775057Y-72714285D01*
X19775057Y-72714285D02*
X19870295Y-72666666D01*
X19870295Y-72666666D02*
X20013152Y-72666666D01*
X20013152Y-72666666D02*
X20108390Y-72714285D01*
X20108390Y-72714285D02*
X20156009Y-72761904D01*
X20156009Y-72761904D02*
X20203628Y-72857142D01*
X20203628Y-72857142D02*
X20203628Y-73238094D01*
X20679819Y-71714285D02*
X20679819Y-72285713D01*
X20679819Y-71999999D02*
X19679819Y-71999999D01*
X19679819Y-71999999D02*
X19822676Y-72095237D01*
X19822676Y-72095237D02*
X19917914Y-72190475D01*
X19917914Y-72190475D02*
X19965533Y-72285713D01*
X20058333Y-51454819D02*
X19725000Y-50978628D01*
X19486905Y-51454819D02*
X19486905Y-50454819D01*
X19486905Y-50454819D02*
X19867857Y-50454819D01*
X19867857Y-50454819D02*
X19963095Y-50502438D01*
X19963095Y-50502438D02*
X20010714Y-50550057D01*
X20010714Y-50550057D02*
X20058333Y-50645295D01*
X20058333Y-50645295D02*
X20058333Y-50788152D01*
X20058333Y-50788152D02*
X20010714Y-50883390D01*
X20010714Y-50883390D02*
X19963095Y-50931009D01*
X19963095Y-50931009D02*
X19867857Y-50978628D01*
X19867857Y-50978628D02*
X19486905Y-50978628D01*
X20391667Y-50454819D02*
X21010714Y-50454819D01*
X21010714Y-50454819D02*
X20677381Y-50835771D01*
X20677381Y-50835771D02*
X20820238Y-50835771D01*
X20820238Y-50835771D02*
X20915476Y-50883390D01*
X20915476Y-50883390D02*
X20963095Y-50931009D01*
X20963095Y-50931009D02*
X21010714Y-51026247D01*
X21010714Y-51026247D02*
X21010714Y-51264342D01*
X21010714Y-51264342D02*
X20963095Y-51359580D01*
X20963095Y-51359580D02*
X20915476Y-51407200D01*
X20915476Y-51407200D02*
X20820238Y-51454819D01*
X20820238Y-51454819D02*
X20534524Y-51454819D01*
X20534524Y-51454819D02*
X20439286Y-51407200D01*
X20439286Y-51407200D02*
X20391667Y-51359580D01*
X17486905Y-54884819D02*
X17486905Y-53884819D01*
X17486905Y-53884819D02*
X17725000Y-53884819D01*
X17725000Y-53884819D02*
X17867857Y-53932438D01*
X17867857Y-53932438D02*
X17963095Y-54027676D01*
X17963095Y-54027676D02*
X18010714Y-54122914D01*
X18010714Y-54122914D02*
X18058333Y-54313390D01*
X18058333Y-54313390D02*
X18058333Y-54456247D01*
X18058333Y-54456247D02*
X18010714Y-54646723D01*
X18010714Y-54646723D02*
X17963095Y-54741961D01*
X17963095Y-54741961D02*
X17867857Y-54837200D01*
X17867857Y-54837200D02*
X17725000Y-54884819D01*
X17725000Y-54884819D02*
X17486905Y-54884819D01*
X19010714Y-54884819D02*
X18439286Y-54884819D01*
X18725000Y-54884819D02*
X18725000Y-53884819D01*
X18725000Y-53884819D02*
X18629762Y-54027676D01*
X18629762Y-54027676D02*
X18534524Y-54122914D01*
X18534524Y-54122914D02*
X18439286Y-54170533D01*
X15558333Y-55359580D02*
X15510714Y-55407200D01*
X15510714Y-55407200D02*
X15367857Y-55454819D01*
X15367857Y-55454819D02*
X15272619Y-55454819D01*
X15272619Y-55454819D02*
X15129762Y-55407200D01*
X15129762Y-55407200D02*
X15034524Y-55311961D01*
X15034524Y-55311961D02*
X14986905Y-55216723D01*
X14986905Y-55216723D02*
X14939286Y-55026247D01*
X14939286Y-55026247D02*
X14939286Y-54883390D01*
X14939286Y-54883390D02*
X14986905Y-54692914D01*
X14986905Y-54692914D02*
X15034524Y-54597676D01*
X15034524Y-54597676D02*
X15129762Y-54502438D01*
X15129762Y-54502438D02*
X15272619Y-54454819D01*
X15272619Y-54454819D02*
X15367857Y-54454819D01*
X15367857Y-54454819D02*
X15510714Y-54502438D01*
X15510714Y-54502438D02*
X15558333Y-54550057D01*
X15891667Y-54454819D02*
X16510714Y-54454819D01*
X16510714Y-54454819D02*
X16177381Y-54835771D01*
X16177381Y-54835771D02*
X16320238Y-54835771D01*
X16320238Y-54835771D02*
X16415476Y-54883390D01*
X16415476Y-54883390D02*
X16463095Y-54931009D01*
X16463095Y-54931009D02*
X16510714Y-55026247D01*
X16510714Y-55026247D02*
X16510714Y-55264342D01*
X16510714Y-55264342D02*
X16463095Y-55359580D01*
X16463095Y-55359580D02*
X16415476Y-55407200D01*
X16415476Y-55407200D02*
X16320238Y-55454819D01*
X16320238Y-55454819D02*
X16034524Y-55454819D01*
X16034524Y-55454819D02*
X15939286Y-55407200D01*
X15939286Y-55407200D02*
X15891667Y-55359580D01*
X17679819Y-72569166D02*
X17203628Y-72902499D01*
X17679819Y-73140594D02*
X16679819Y-73140594D01*
X16679819Y-73140594D02*
X16679819Y-72759642D01*
X16679819Y-72759642D02*
X16727438Y-72664404D01*
X16727438Y-72664404D02*
X16775057Y-72616785D01*
X16775057Y-72616785D02*
X16870295Y-72569166D01*
X16870295Y-72569166D02*
X17013152Y-72569166D01*
X17013152Y-72569166D02*
X17108390Y-72616785D01*
X17108390Y-72616785D02*
X17156009Y-72664404D01*
X17156009Y-72664404D02*
X17203628Y-72759642D01*
X17203628Y-72759642D02*
X17203628Y-73140594D01*
X16775057Y-72188213D02*
X16727438Y-72140594D01*
X16727438Y-72140594D02*
X16679819Y-72045356D01*
X16679819Y-72045356D02*
X16679819Y-71807261D01*
X16679819Y-71807261D02*
X16727438Y-71712023D01*
X16727438Y-71712023D02*
X16775057Y-71664404D01*
X16775057Y-71664404D02*
X16870295Y-71616785D01*
X16870295Y-71616785D02*
X16965533Y-71616785D01*
X16965533Y-71616785D02*
X17108390Y-71664404D01*
X17108390Y-71664404D02*
X17679819Y-72235832D01*
X17679819Y-72235832D02*
X17679819Y-71616785D01*
X15558333Y-61359580D02*
X15510714Y-61407200D01*
X15510714Y-61407200D02*
X15367857Y-61454819D01*
X15367857Y-61454819D02*
X15272619Y-61454819D01*
X15272619Y-61454819D02*
X15129762Y-61407200D01*
X15129762Y-61407200D02*
X15034524Y-61311961D01*
X15034524Y-61311961D02*
X14986905Y-61216723D01*
X14986905Y-61216723D02*
X14939286Y-61026247D01*
X14939286Y-61026247D02*
X14939286Y-60883390D01*
X14939286Y-60883390D02*
X14986905Y-60692914D01*
X14986905Y-60692914D02*
X15034524Y-60597676D01*
X15034524Y-60597676D02*
X15129762Y-60502438D01*
X15129762Y-60502438D02*
X15272619Y-60454819D01*
X15272619Y-60454819D02*
X15367857Y-60454819D01*
X15367857Y-60454819D02*
X15510714Y-60502438D01*
X15510714Y-60502438D02*
X15558333Y-60550057D01*
X15939286Y-60550057D02*
X15986905Y-60502438D01*
X15986905Y-60502438D02*
X16082143Y-60454819D01*
X16082143Y-60454819D02*
X16320238Y-60454819D01*
X16320238Y-60454819D02*
X16415476Y-60502438D01*
X16415476Y-60502438D02*
X16463095Y-60550057D01*
X16463095Y-60550057D02*
X16510714Y-60645295D01*
X16510714Y-60645295D02*
X16510714Y-60740533D01*
X16510714Y-60740533D02*
X16463095Y-60883390D01*
X16463095Y-60883390D02*
X15891667Y-61454819D01*
X15891667Y-61454819D02*
X16510714Y-61454819D01*
X25528095Y-51979819D02*
X25528095Y-52789342D01*
X25528095Y-52789342D02*
X25575714Y-52884580D01*
X25575714Y-52884580D02*
X25623333Y-52932200D01*
X25623333Y-52932200D02*
X25718571Y-52979819D01*
X25718571Y-52979819D02*
X25909047Y-52979819D01*
X25909047Y-52979819D02*
X26004285Y-52932200D01*
X26004285Y-52932200D02*
X26051904Y-52884580D01*
X26051904Y-52884580D02*
X26099523Y-52789342D01*
X26099523Y-52789342D02*
X26099523Y-51979819D01*
X26480476Y-51979819D02*
X27099523Y-51979819D01*
X27099523Y-51979819D02*
X26766190Y-52360771D01*
X26766190Y-52360771D02*
X26909047Y-52360771D01*
X26909047Y-52360771D02*
X27004285Y-52408390D01*
X27004285Y-52408390D02*
X27051904Y-52456009D01*
X27051904Y-52456009D02*
X27099523Y-52551247D01*
X27099523Y-52551247D02*
X27099523Y-52789342D01*
X27099523Y-52789342D02*
X27051904Y-52884580D01*
X27051904Y-52884580D02*
X27004285Y-52932200D01*
X27004285Y-52932200D02*
X26909047Y-52979819D01*
X26909047Y-52979819D02*
X26623333Y-52979819D01*
X26623333Y-52979819D02*
X26528095Y-52932200D01*
X26528095Y-52932200D02*
X26480476Y-52884580D01*
D11*
%TO.C,D15*%
X28650000Y-2900000D02*
X30850000Y-2900000D01*
X28650000Y-4100000D02*
X28650000Y-3900000D01*
X30850000Y-4100000D02*
X30850000Y-3900000D01*
X30850000Y-5100000D02*
X28650000Y-5100000D01*
D12*
X31450200Y-4027000D02*
G75*
G02*
X31250200Y-4027000I-100000J0D01*
G01*
X31250200Y-4027000D02*
G75*
G02*
X31450200Y-4027000I100000J0D01*
G01*
D11*
%TO.C,D10*%
X6150000Y-2900000D02*
X8350000Y-2900000D01*
X6150000Y-4100000D02*
X6150000Y-3900000D01*
X8350000Y-4100000D02*
X8350000Y-3900000D01*
X8350000Y-5100000D02*
X6150000Y-5100000D01*
D12*
X8950200Y-4027000D02*
G75*
G02*
X8750200Y-4027000I-100000J0D01*
G01*
X8750200Y-4027000D02*
G75*
G02*
X8950200Y-4027000I100000J0D01*
G01*
D13*
%TO.C,D4*%
X26825000Y-46000000D02*
X26825000Y-47360000D01*
X26825000Y-47360000D02*
X27625000Y-47360000D01*
X27625000Y-46000000D02*
X27625000Y-47360000D01*
%TO.C,C5*%
X28715000Y-51140580D02*
X28715000Y-50859420D01*
X29735000Y-51140580D02*
X29735000Y-50859420D01*
D11*
%TO.C,D37*%
X24150000Y-16400000D02*
X26350000Y-16400000D01*
X24150000Y-17400000D02*
X24150000Y-17600000D01*
X26350000Y-17400000D02*
X26350000Y-17600000D01*
X26350000Y-18600000D02*
X24150000Y-18600000D01*
D12*
X23749800Y-17473000D02*
G75*
G02*
X23549800Y-17473000I-100000J0D01*
G01*
X23549800Y-17473000D02*
G75*
G02*
X23749800Y-17473000I100000J0D01*
G01*
D11*
%TO.C,D43*%
X10650000Y-20900000D02*
X12850000Y-20900000D01*
X10650000Y-22100000D02*
X10650000Y-21900000D01*
X12850000Y-22100000D02*
X12850000Y-21900000D01*
X12850000Y-23100000D02*
X10650000Y-23100000D01*
D12*
X13450200Y-22027000D02*
G75*
G02*
X13250200Y-22027000I-100000J0D01*
G01*
X13250200Y-22027000D02*
G75*
G02*
X13450200Y-22027000I100000J0D01*
G01*
D11*
%TO.C,D54*%
X19650000Y-25400000D02*
X21850000Y-25400000D01*
X19650000Y-26400000D02*
X19650000Y-26600000D01*
X21850000Y-26400000D02*
X21850000Y-26600000D01*
X21850000Y-27600000D02*
X19650000Y-27600000D01*
D12*
X19249800Y-26473000D02*
G75*
G02*
X19049800Y-26473000I-100000J0D01*
G01*
X19049800Y-26473000D02*
G75*
G02*
X19249800Y-26473000I100000J0D01*
G01*
D11*
%TO.C,D60*%
X15150000Y-29900000D02*
X17350000Y-29900000D01*
X15150000Y-31100000D02*
X15150000Y-30900000D01*
X17350000Y-31100000D02*
X17350000Y-30900000D01*
X17350000Y-32100000D02*
X15150000Y-32100000D01*
D12*
X17950200Y-31027000D02*
G75*
G02*
X17750200Y-31027000I-100000J0D01*
G01*
X17750200Y-31027000D02*
G75*
G02*
X17950200Y-31027000I100000J0D01*
G01*
D11*
%TO.C,D63*%
X28650000Y-29900000D02*
X30850000Y-29900000D01*
X28650000Y-31100000D02*
X28650000Y-30900000D01*
X30850000Y-31100000D02*
X30850000Y-30900000D01*
X30850000Y-32100000D02*
X28650000Y-32100000D01*
D12*
X31450200Y-31027000D02*
G75*
G02*
X31250200Y-31027000I-100000J0D01*
G01*
X31250200Y-31027000D02*
G75*
G02*
X31450200Y-31027000I100000J0D01*
G01*
D11*
%TO.C,D46*%
X24150000Y-20900000D02*
X26350000Y-20900000D01*
X24150000Y-22100000D02*
X24150000Y-21900000D01*
X26350000Y-22100000D02*
X26350000Y-21900000D01*
X26350000Y-23100000D02*
X24150000Y-23100000D01*
D12*
X26950200Y-22027000D02*
G75*
G02*
X26750200Y-22027000I-100000J0D01*
G01*
X26750200Y-22027000D02*
G75*
G02*
X26950200Y-22027000I100000J0D01*
G01*
D11*
%TO.C,D32*%
X33150000Y-11900000D02*
X35350000Y-11900000D01*
X33150000Y-13100000D02*
X33150000Y-12900000D01*
X35350000Y-13100000D02*
X35350000Y-12900000D01*
X35350000Y-14100000D02*
X33150000Y-14100000D01*
D12*
X35950200Y-13027000D02*
G75*
G02*
X35750200Y-13027000I-100000J0D01*
G01*
X35750200Y-13027000D02*
G75*
G02*
X35950200Y-13027000I100000J0D01*
G01*
D13*
%TO.C,SW1*%
X20075000Y-45600000D02*
X20075000Y-45900000D01*
X20075000Y-48400000D02*
X20075000Y-48100000D01*
X23375000Y-45600000D02*
X20075000Y-45600000D01*
X23375000Y-45900000D02*
X23375000Y-45600000D01*
X23375000Y-48100000D02*
X23375000Y-48400000D01*
X23375000Y-48400000D02*
X20075000Y-48400000D01*
D11*
%TO.C,D66*%
X37650000Y-34400000D02*
X39850000Y-34400000D01*
X37650000Y-35400000D02*
X37650000Y-35600000D01*
X39850000Y-35400000D02*
X39850000Y-35600000D01*
X39850000Y-36600000D02*
X37650000Y-36600000D01*
D12*
X37249800Y-35473000D02*
G75*
G02*
X37049800Y-35473000I-100000J0D01*
G01*
X37049800Y-35473000D02*
G75*
G02*
X37249800Y-35473000I100000J0D01*
G01*
D11*
%TO.C,D61*%
X19650000Y-29900000D02*
X21850000Y-29900000D01*
X19650000Y-31100000D02*
X19650000Y-30900000D01*
X21850000Y-31100000D02*
X21850000Y-30900000D01*
X21850000Y-32100000D02*
X19650000Y-32100000D01*
D12*
X22450200Y-31027000D02*
G75*
G02*
X22250200Y-31027000I-100000J0D01*
G01*
X22250200Y-31027000D02*
G75*
G02*
X22450200Y-31027000I100000J0D01*
G01*
D11*
%TO.C,D64*%
X33150000Y-29900000D02*
X35350000Y-29900000D01*
X33150000Y-31100000D02*
X33150000Y-30900000D01*
X35350000Y-31100000D02*
X35350000Y-30900000D01*
X35350000Y-32100000D02*
X33150000Y-32100000D01*
D12*
X35950200Y-31027000D02*
G75*
G02*
X35750200Y-31027000I-100000J0D01*
G01*
X35750200Y-31027000D02*
G75*
G02*
X35950200Y-31027000I100000J0D01*
G01*
D11*
%TO.C,D71*%
X15150000Y-34400000D02*
X17350000Y-34400000D01*
X15150000Y-35400000D02*
X15150000Y-35600000D01*
X17350000Y-35400000D02*
X17350000Y-35600000D01*
X17350000Y-36600000D02*
X15150000Y-36600000D01*
D12*
X14749800Y-35473000D02*
G75*
G02*
X14549800Y-35473000I-100000J0D01*
G01*
X14549800Y-35473000D02*
G75*
G02*
X14749800Y-35473000I100000J0D01*
G01*
D11*
%TO.C,D31*%
X28650000Y-11900000D02*
X30850000Y-11900000D01*
X28650000Y-13100000D02*
X28650000Y-12900000D01*
X30850000Y-13100000D02*
X30850000Y-12900000D01*
X30850000Y-14100000D02*
X28650000Y-14100000D01*
D12*
X31450200Y-13027000D02*
G75*
G02*
X31250200Y-13027000I-100000J0D01*
G01*
X31250200Y-13027000D02*
G75*
G02*
X31450200Y-13027000I100000J0D01*
G01*
D11*
%TO.C,D12*%
X15150000Y-2900000D02*
X17350000Y-2900000D01*
X15150000Y-4100000D02*
X15150000Y-3900000D01*
X17350000Y-4100000D02*
X17350000Y-3900000D01*
X17350000Y-5100000D02*
X15150000Y-5100000D01*
D12*
X17950200Y-4027000D02*
G75*
G02*
X17750200Y-4027000I-100000J0D01*
G01*
X17750200Y-4027000D02*
G75*
G02*
X17950200Y-4027000I100000J0D01*
G01*
D11*
%TO.C,D52*%
X28650000Y-25400000D02*
X30850000Y-25400000D01*
X28650000Y-26400000D02*
X28650000Y-26600000D01*
X30850000Y-26400000D02*
X30850000Y-26600000D01*
X30850000Y-27600000D02*
X28650000Y-27600000D01*
D12*
X28249800Y-26473000D02*
G75*
G02*
X28049800Y-26473000I-100000J0D01*
G01*
X28049800Y-26473000D02*
G75*
G02*
X28249800Y-26473000I100000J0D01*
G01*
D13*
%TO.C,U2*%
X17665000Y-62090000D02*
X17715000Y-62090000D01*
X17665000Y-63910000D02*
X17665000Y-62090000D01*
X17715000Y-63910000D02*
X17665000Y-63910000D01*
X20735000Y-62090000D02*
X20785000Y-62090000D01*
X20785000Y-62090000D02*
X20785000Y-63910000D01*
X20785000Y-63910000D02*
X20735000Y-63910000D01*
X17715000Y-64450000D02*
X17385000Y-64690000D01*
X17385000Y-64210000D01*
X17715000Y-64450000D01*
G36*
X17715000Y-64450000D02*
G01*
X17385000Y-64690000D01*
X17385000Y-64210000D01*
X17715000Y-64450000D01*
G37*
D11*
%TO.C,D73*%
X6150000Y-34400000D02*
X8350000Y-34400000D01*
X6150000Y-35400000D02*
X6150000Y-35600000D01*
X8350000Y-35400000D02*
X8350000Y-35600000D01*
X8350000Y-36600000D02*
X6150000Y-36600000D01*
D12*
X5749800Y-35473000D02*
G75*
G02*
X5549800Y-35473000I-100000J0D01*
G01*
X5549800Y-35473000D02*
G75*
G02*
X5749800Y-35473000I100000J0D01*
G01*
D13*
%TO.C,R1*%
X19845000Y-69832379D02*
X19845000Y-70167621D01*
X20605000Y-69832379D02*
X20605000Y-70167621D01*
D11*
%TO.C,D68*%
X28650000Y-34400000D02*
X30850000Y-34400000D01*
X28650000Y-35400000D02*
X28650000Y-35600000D01*
X30850000Y-35400000D02*
X30850000Y-35600000D01*
X30850000Y-36600000D02*
X28650000Y-36600000D01*
D12*
X28249800Y-35473000D02*
G75*
G02*
X28049800Y-35473000I-100000J0D01*
G01*
X28049800Y-35473000D02*
G75*
G02*
X28249800Y-35473000I100000J0D01*
G01*
D13*
%TO.C,R3*%
X17990121Y-50620000D02*
X17654879Y-50620000D01*
X17990121Y-51380000D02*
X17654879Y-51380000D01*
D11*
%TO.C,D27*%
X10650000Y-11900000D02*
X12850000Y-11900000D01*
X10650000Y-13100000D02*
X10650000Y-12900000D01*
X12850000Y-13100000D02*
X12850000Y-12900000D01*
X12850000Y-14100000D02*
X10650000Y-14100000D01*
D12*
X13450200Y-13027000D02*
G75*
G02*
X13250200Y-13027000I-100000J0D01*
G01*
X13250200Y-13027000D02*
G75*
G02*
X13450200Y-13027000I100000J0D01*
G01*
D11*
%TO.C,D62*%
X24150000Y-29900000D02*
X26350000Y-29900000D01*
X24150000Y-31100000D02*
X24150000Y-30900000D01*
X26350000Y-31100000D02*
X26350000Y-30900000D01*
X26350000Y-32100000D02*
X24150000Y-32100000D01*
D12*
X26950200Y-31027000D02*
G75*
G02*
X26750200Y-31027000I-100000J0D01*
G01*
X26750200Y-31027000D02*
G75*
G02*
X26950200Y-31027000I100000J0D01*
G01*
D11*
%TO.C,D13*%
X19650000Y-2900000D02*
X21850000Y-2900000D01*
X19650000Y-4100000D02*
X19650000Y-3900000D01*
X21850000Y-4100000D02*
X21850000Y-3900000D01*
X21850000Y-5100000D02*
X19650000Y-5100000D01*
D12*
X22450200Y-4027000D02*
G75*
G02*
X22250200Y-4027000I-100000J0D01*
G01*
X22250200Y-4027000D02*
G75*
G02*
X22450200Y-4027000I100000J0D01*
G01*
D13*
%TO.C,C4*%
X24915000Y-47134420D02*
X24915000Y-47415580D01*
X25935000Y-47134420D02*
X25935000Y-47415580D01*
D11*
%TO.C,D55*%
X15150000Y-25400000D02*
X17350000Y-25400000D01*
X15150000Y-26400000D02*
X15150000Y-26600000D01*
X17350000Y-26400000D02*
X17350000Y-26600000D01*
X17350000Y-27600000D02*
X15150000Y-27600000D01*
D12*
X14749800Y-26473000D02*
G75*
G02*
X14549800Y-26473000I-100000J0D01*
G01*
X14549800Y-26473000D02*
G75*
G02*
X14749800Y-26473000I100000J0D01*
G01*
D11*
%TO.C,D17*%
X37650000Y-2900000D02*
X39850000Y-2900000D01*
X37650000Y-4100000D02*
X37650000Y-3900000D01*
X39850000Y-4100000D02*
X39850000Y-3900000D01*
X39850000Y-5100000D02*
X37650000Y-5100000D01*
D12*
X40450200Y-4027000D02*
G75*
G02*
X40250200Y-4027000I-100000J0D01*
G01*
X40250200Y-4027000D02*
G75*
G02*
X40450200Y-4027000I100000J0D01*
G01*
D11*
%TO.C,D67*%
X33150000Y-34400000D02*
X35350000Y-34400000D01*
X33150000Y-35400000D02*
X33150000Y-35600000D01*
X35350000Y-35400000D02*
X35350000Y-35600000D01*
X35350000Y-36600000D02*
X33150000Y-36600000D01*
D12*
X32749800Y-35473000D02*
G75*
G02*
X32549800Y-35473000I-100000J0D01*
G01*
X32549800Y-35473000D02*
G75*
G02*
X32749800Y-35473000I100000J0D01*
G01*
D11*
%TO.C,D70*%
X19650000Y-34400000D02*
X21850000Y-34400000D01*
X19650000Y-35400000D02*
X19650000Y-35600000D01*
X21850000Y-35400000D02*
X21850000Y-35600000D01*
X21850000Y-36600000D02*
X19650000Y-36600000D01*
D12*
X19249800Y-35473000D02*
G75*
G02*
X19049800Y-35473000I-100000J0D01*
G01*
X19049800Y-35473000D02*
G75*
G02*
X19249800Y-35473000I100000J0D01*
G01*
D11*
%TO.C,D65*%
X37650000Y-29900000D02*
X39850000Y-29900000D01*
X37650000Y-31100000D02*
X37650000Y-30900000D01*
X39850000Y-31100000D02*
X39850000Y-30900000D01*
X39850000Y-32100000D02*
X37650000Y-32100000D01*
D12*
X40450200Y-31027000D02*
G75*
G02*
X40250200Y-31027000I-100000J0D01*
G01*
X40250200Y-31027000D02*
G75*
G02*
X40450200Y-31027000I100000J0D01*
G01*
D13*
%TO.C,D1*%
X17425000Y-53735000D02*
X19710000Y-53735000D01*
X19710000Y-52265000D02*
X17425000Y-52265000D01*
X19710000Y-53735000D02*
X19710000Y-52265000D01*
D12*
X19710000Y-54000000D02*
X19710000Y-52000000D01*
D11*
%TO.C,D36*%
X28650000Y-16400000D02*
X30850000Y-16400000D01*
X28650000Y-17400000D02*
X28650000Y-17600000D01*
X30850000Y-17400000D02*
X30850000Y-17600000D01*
X30850000Y-18600000D02*
X28650000Y-18600000D01*
D12*
X28249800Y-17473000D02*
G75*
G02*
X28049800Y-17473000I-100000J0D01*
G01*
X28049800Y-17473000D02*
G75*
G02*
X28249800Y-17473000I100000J0D01*
G01*
D11*
%TO.C,D47*%
X28650000Y-20900000D02*
X30850000Y-20900000D01*
X28650000Y-22100000D02*
X28650000Y-21900000D01*
X30850000Y-22100000D02*
X30850000Y-21900000D01*
X30850000Y-23100000D02*
X28650000Y-23100000D01*
D12*
X31450200Y-22027000D02*
G75*
G02*
X31250200Y-22027000I-100000J0D01*
G01*
X31250200Y-22027000D02*
G75*
G02*
X31450200Y-22027000I100000J0D01*
G01*
D11*
%TO.C,D22*%
X19650000Y-7400000D02*
X21850000Y-7400000D01*
X19650000Y-8400000D02*
X19650000Y-8600000D01*
X21850000Y-8400000D02*
X21850000Y-8600000D01*
X21850000Y-9600000D02*
X19650000Y-9600000D01*
D12*
X19249800Y-8473000D02*
G75*
G02*
X19049800Y-8473000I-100000J0D01*
G01*
X19049800Y-8473000D02*
G75*
G02*
X19249800Y-8473000I100000J0D01*
G01*
D11*
%TO.C,D41*%
X6150000Y-16400000D02*
X8350000Y-16400000D01*
X6150000Y-17400000D02*
X6150000Y-17600000D01*
X8350000Y-17400000D02*
X8350000Y-17600000D01*
X8350000Y-18600000D02*
X6150000Y-18600000D01*
D12*
X5749800Y-17473000D02*
G75*
G02*
X5549800Y-17473000I-100000J0D01*
G01*
X5549800Y-17473000D02*
G75*
G02*
X5749800Y-17473000I100000J0D01*
G01*
D11*
%TO.C,D45*%
X19650000Y-20900000D02*
X21850000Y-20900000D01*
X19650000Y-22100000D02*
X19650000Y-21900000D01*
X21850000Y-22100000D02*
X21850000Y-21900000D01*
X21850000Y-23100000D02*
X19650000Y-23100000D01*
D12*
X22450200Y-22027000D02*
G75*
G02*
X22250200Y-22027000I-100000J0D01*
G01*
X22250200Y-22027000D02*
G75*
G02*
X22450200Y-22027000I100000J0D01*
G01*
D11*
%TO.C,D29*%
X19650000Y-11900000D02*
X21850000Y-11900000D01*
X19650000Y-13100000D02*
X19650000Y-12900000D01*
X21850000Y-13100000D02*
X21850000Y-12900000D01*
X21850000Y-14100000D02*
X19650000Y-14100000D01*
D12*
X22450200Y-13027000D02*
G75*
G02*
X22250200Y-13027000I-100000J0D01*
G01*
X22250200Y-13027000D02*
G75*
G02*
X22450200Y-13027000I100000J0D01*
G01*
D11*
%TO.C,D48*%
X33150000Y-20900000D02*
X35350000Y-20900000D01*
X33150000Y-22100000D02*
X33150000Y-21900000D01*
X35350000Y-22100000D02*
X35350000Y-21900000D01*
X35350000Y-23100000D02*
X33150000Y-23100000D01*
D12*
X35950200Y-22027000D02*
G75*
G02*
X35750200Y-22027000I-100000J0D01*
G01*
X35750200Y-22027000D02*
G75*
G02*
X35950200Y-22027000I100000J0D01*
G01*
D11*
%TO.C,D38*%
X19650000Y-16400000D02*
X21850000Y-16400000D01*
X19650000Y-17400000D02*
X19650000Y-17600000D01*
X21850000Y-17400000D02*
X21850000Y-17600000D01*
X21850000Y-18600000D02*
X19650000Y-18600000D01*
D12*
X19249800Y-17473000D02*
G75*
G02*
X19049800Y-17473000I-100000J0D01*
G01*
X19049800Y-17473000D02*
G75*
G02*
X19249800Y-17473000I100000J0D01*
G01*
D11*
%TO.C,D24*%
X10650000Y-7400000D02*
X12850000Y-7400000D01*
X10650000Y-8400000D02*
X10650000Y-8600000D01*
X12850000Y-8400000D02*
X12850000Y-8600000D01*
X12850000Y-9600000D02*
X10650000Y-9600000D01*
D12*
X10249800Y-8473000D02*
G75*
G02*
X10049800Y-8473000I-100000J0D01*
G01*
X10049800Y-8473000D02*
G75*
G02*
X10249800Y-8473000I100000J0D01*
G01*
D11*
%TO.C,D44*%
X15150000Y-20900000D02*
X17350000Y-20900000D01*
X15150000Y-22100000D02*
X15150000Y-21900000D01*
X17350000Y-22100000D02*
X17350000Y-21900000D01*
X17350000Y-23100000D02*
X15150000Y-23100000D01*
D12*
X17950200Y-22027000D02*
G75*
G02*
X17750200Y-22027000I-100000J0D01*
G01*
X17750200Y-22027000D02*
G75*
G02*
X17950200Y-22027000I100000J0D01*
G01*
D13*
%TO.C,R7*%
X28345000Y-47370121D02*
X28345000Y-47034879D01*
X29105000Y-47370121D02*
X29105000Y-47034879D01*
D11*
%TO.C,D53*%
X24150000Y-25400000D02*
X26350000Y-25400000D01*
X24150000Y-26400000D02*
X24150000Y-26600000D01*
X26350000Y-26400000D02*
X26350000Y-26600000D01*
X26350000Y-27600000D02*
X24150000Y-27600000D01*
D12*
X23749800Y-26473000D02*
G75*
G02*
X23549800Y-26473000I-100000J0D01*
G01*
X23549800Y-26473000D02*
G75*
G02*
X23749800Y-26473000I100000J0D01*
G01*
D11*
%TO.C,D51*%
X33150000Y-25400000D02*
X35350000Y-25400000D01*
X33150000Y-26400000D02*
X33150000Y-26600000D01*
X35350000Y-26400000D02*
X35350000Y-26600000D01*
X35350000Y-27600000D02*
X33150000Y-27600000D01*
D12*
X32749800Y-26473000D02*
G75*
G02*
X32549800Y-26473000I-100000J0D01*
G01*
X32549800Y-26473000D02*
G75*
G02*
X32749800Y-26473000I100000J0D01*
G01*
D11*
%TO.C,D25*%
X6150000Y-7400000D02*
X8350000Y-7400000D01*
X6150000Y-8400000D02*
X6150000Y-8600000D01*
X8350000Y-8400000D02*
X8350000Y-8600000D01*
X8350000Y-9600000D02*
X6150000Y-9600000D01*
D12*
X5749800Y-8473000D02*
G75*
G02*
X5549800Y-8473000I-100000J0D01*
G01*
X5549800Y-8473000D02*
G75*
G02*
X5749800Y-8473000I100000J0D01*
G01*
D11*
%TO.C,D20*%
X28650000Y-7400000D02*
X30850000Y-7400000D01*
X28650000Y-8400000D02*
X28650000Y-8600000D01*
X30850000Y-8400000D02*
X30850000Y-8600000D01*
X30850000Y-9600000D02*
X28650000Y-9600000D01*
D12*
X28249800Y-8473000D02*
G75*
G02*
X28049800Y-8473000I-100000J0D01*
G01*
X28049800Y-8473000D02*
G75*
G02*
X28249800Y-8473000I100000J0D01*
G01*
D11*
%TO.C,D56*%
X10650000Y-25400000D02*
X12850000Y-25400000D01*
X10650000Y-26400000D02*
X10650000Y-26600000D01*
X12850000Y-26400000D02*
X12850000Y-26600000D01*
X12850000Y-27600000D02*
X10650000Y-27600000D01*
D12*
X10249800Y-26473000D02*
G75*
G02*
X10049800Y-26473000I-100000J0D01*
G01*
X10049800Y-26473000D02*
G75*
G02*
X10249800Y-26473000I100000J0D01*
G01*
D13*
%TO.C,C3*%
X16986252Y-56265000D02*
X16463748Y-56265000D01*
X16986252Y-57735000D02*
X16463748Y-57735000D01*
D11*
%TO.C,D19*%
X33150000Y-7400000D02*
X35350000Y-7400000D01*
X33150000Y-8400000D02*
X33150000Y-8600000D01*
X35350000Y-8400000D02*
X35350000Y-8600000D01*
X35350000Y-9600000D02*
X33150000Y-9600000D01*
D12*
X32749800Y-8473000D02*
G75*
G02*
X32549800Y-8473000I-100000J0D01*
G01*
X32549800Y-8473000D02*
G75*
G02*
X32749800Y-8473000I100000J0D01*
G01*
D11*
%TO.C,D59*%
X10650000Y-29900000D02*
X12850000Y-29900000D01*
X10650000Y-31100000D02*
X10650000Y-30900000D01*
X12850000Y-31100000D02*
X12850000Y-30900000D01*
X12850000Y-32100000D02*
X10650000Y-32100000D01*
D12*
X13450200Y-31027000D02*
G75*
G02*
X13250200Y-31027000I-100000J0D01*
G01*
X13250200Y-31027000D02*
G75*
G02*
X13450200Y-31027000I100000J0D01*
G01*
D11*
%TO.C,D49*%
X37650000Y-20900000D02*
X39850000Y-20900000D01*
X37650000Y-22100000D02*
X37650000Y-21900000D01*
X39850000Y-22100000D02*
X39850000Y-21900000D01*
X39850000Y-23100000D02*
X37650000Y-23100000D01*
D12*
X40450200Y-22027000D02*
G75*
G02*
X40250200Y-22027000I-100000J0D01*
G01*
X40250200Y-22027000D02*
G75*
G02*
X40450200Y-22027000I100000J0D01*
G01*
D11*
%TO.C,D16*%
X33150000Y-2900000D02*
X35350000Y-2900000D01*
X33150000Y-4100000D02*
X33150000Y-3900000D01*
X35350000Y-4100000D02*
X35350000Y-3900000D01*
X35350000Y-5100000D02*
X33150000Y-5100000D01*
D12*
X35950200Y-4027000D02*
G75*
G02*
X35750200Y-4027000I-100000J0D01*
G01*
X35750200Y-4027000D02*
G75*
G02*
X35950200Y-4027000I100000J0D01*
G01*
D11*
%TO.C,D30*%
X24150000Y-11900000D02*
X26350000Y-11900000D01*
X24150000Y-13100000D02*
X24150000Y-12900000D01*
X26350000Y-13100000D02*
X26350000Y-12900000D01*
X26350000Y-14100000D02*
X24150000Y-14100000D01*
D12*
X26950200Y-13027000D02*
G75*
G02*
X26750200Y-13027000I-100000J0D01*
G01*
X26750200Y-13027000D02*
G75*
G02*
X26950200Y-13027000I100000J0D01*
G01*
D13*
%TO.C,R2*%
X16845000Y-69832379D02*
X16845000Y-70167621D01*
X17605000Y-69832379D02*
X17605000Y-70167621D01*
D11*
%TO.C,D14*%
X24150000Y-2900000D02*
X26350000Y-2900000D01*
X24150000Y-4100000D02*
X24150000Y-3900000D01*
X26350000Y-4100000D02*
X26350000Y-3900000D01*
X26350000Y-5100000D02*
X24150000Y-5100000D01*
D12*
X26950200Y-4027000D02*
G75*
G02*
X26750200Y-4027000I-100000J0D01*
G01*
X26750200Y-4027000D02*
G75*
G02*
X26950200Y-4027000I100000J0D01*
G01*
D11*
%TO.C,D28*%
X15150000Y-11900000D02*
X17350000Y-11900000D01*
X15150000Y-13100000D02*
X15150000Y-12900000D01*
X17350000Y-13100000D02*
X17350000Y-12900000D01*
X17350000Y-14100000D02*
X15150000Y-14100000D01*
D12*
X17950200Y-13027000D02*
G75*
G02*
X17750200Y-13027000I-100000J0D01*
G01*
X17750200Y-13027000D02*
G75*
G02*
X17950200Y-13027000I100000J0D01*
G01*
D13*
%TO.C,R8*%
X17990121Y-48620000D02*
X17654879Y-48620000D01*
X17990121Y-49380000D02*
X17654879Y-49380000D01*
D11*
%TO.C,D58*%
X6150000Y-29900000D02*
X8350000Y-29900000D01*
X6150000Y-31100000D02*
X6150000Y-30900000D01*
X8350000Y-31100000D02*
X8350000Y-30900000D01*
X8350000Y-32100000D02*
X6150000Y-32100000D01*
D12*
X8950200Y-31027000D02*
G75*
G02*
X8750200Y-31027000I-100000J0D01*
G01*
X8750200Y-31027000D02*
G75*
G02*
X8950200Y-31027000I100000J0D01*
G01*
D11*
%TO.C,D72*%
X10650000Y-34400000D02*
X12850000Y-34400000D01*
X10650000Y-35400000D02*
X10650000Y-35600000D01*
X12850000Y-35400000D02*
X12850000Y-35600000D01*
X12850000Y-36600000D02*
X10650000Y-36600000D01*
D12*
X10249800Y-35473000D02*
G75*
G02*
X10049800Y-35473000I-100000J0D01*
G01*
X10049800Y-35473000D02*
G75*
G02*
X10249800Y-35473000I100000J0D01*
G01*
D11*
%TO.C,D33*%
X37650000Y-11900000D02*
X39850000Y-11900000D01*
X37650000Y-13100000D02*
X37650000Y-12900000D01*
X39850000Y-13100000D02*
X39850000Y-12900000D01*
X39850000Y-14100000D02*
X37650000Y-14100000D01*
D12*
X40450200Y-13027000D02*
G75*
G02*
X40250200Y-13027000I-100000J0D01*
G01*
X40250200Y-13027000D02*
G75*
G02*
X40450200Y-13027000I100000J0D01*
G01*
D14*
%TO.C,J2*%
X21070000Y-78990000D02*
X21070000Y-86990000D01*
X25070000Y-88990000D02*
X28570000Y-88990000D01*
X26070000Y-77790000D02*
X28570000Y-77790000D01*
X26070000Y-78990000D02*
X26070000Y-77790000D01*
X26070000Y-88190000D02*
X26070000Y-86990000D01*
X28570000Y-76990000D02*
X25070000Y-76990000D01*
X28570000Y-77790000D02*
X28570000Y-76990000D01*
X28570000Y-88190000D02*
X26070000Y-88190000D01*
X28570000Y-88990000D02*
X28570000Y-88190000D01*
D11*
%TO.C,D57*%
X6150000Y-25400000D02*
X8350000Y-25400000D01*
X6150000Y-26400000D02*
X6150000Y-26600000D01*
X8350000Y-26400000D02*
X8350000Y-26600000D01*
X8350000Y-27600000D02*
X6150000Y-27600000D01*
D12*
X5749800Y-26473000D02*
G75*
G02*
X5549800Y-26473000I-100000J0D01*
G01*
X5549800Y-26473000D02*
G75*
G02*
X5749800Y-26473000I100000J0D01*
G01*
D11*
%TO.C,D23*%
X15150000Y-7400000D02*
X17350000Y-7400000D01*
X15150000Y-8400000D02*
X15150000Y-8600000D01*
X17350000Y-8400000D02*
X17350000Y-8600000D01*
X17350000Y-9600000D02*
X15150000Y-9600000D01*
D12*
X14749800Y-8473000D02*
G75*
G02*
X14549800Y-8473000I-100000J0D01*
G01*
X14549800Y-8473000D02*
G75*
G02*
X14749800Y-8473000I100000J0D01*
G01*
D11*
%TO.C,D39*%
X15150000Y-16400000D02*
X17350000Y-16400000D01*
X15150000Y-17400000D02*
X15150000Y-17600000D01*
X17350000Y-17400000D02*
X17350000Y-17600000D01*
X17350000Y-18600000D02*
X15150000Y-18600000D01*
D12*
X14749800Y-17473000D02*
G75*
G02*
X14549800Y-17473000I-100000J0D01*
G01*
X14549800Y-17473000D02*
G75*
G02*
X14749800Y-17473000I100000J0D01*
G01*
D11*
%TO.C,D21*%
X24150000Y-7400000D02*
X26350000Y-7400000D01*
X24150000Y-8400000D02*
X24150000Y-8600000D01*
X26350000Y-8400000D02*
X26350000Y-8600000D01*
X26350000Y-9600000D02*
X24150000Y-9600000D01*
D12*
X23749800Y-8473000D02*
G75*
G02*
X23549800Y-8473000I-100000J0D01*
G01*
X23549800Y-8473000D02*
G75*
G02*
X23749800Y-8473000I100000J0D01*
G01*
D13*
%TO.C,C2*%
X16986252Y-58570000D02*
X16463748Y-58570000D01*
X16986252Y-60040000D02*
X16463748Y-60040000D01*
D11*
%TO.C,D69*%
X24150000Y-34400000D02*
X26350000Y-34400000D01*
X24150000Y-35400000D02*
X24150000Y-35600000D01*
X26350000Y-35400000D02*
X26350000Y-35600000D01*
X26350000Y-36600000D02*
X24150000Y-36600000D01*
D12*
X23749800Y-35473000D02*
G75*
G02*
X23549800Y-35473000I-100000J0D01*
G01*
X23549800Y-35473000D02*
G75*
G02*
X23749800Y-35473000I100000J0D01*
G01*
D11*
%TO.C,D34*%
X37650000Y-16400000D02*
X39850000Y-16400000D01*
X37650000Y-17400000D02*
X37650000Y-17600000D01*
X39850000Y-17400000D02*
X39850000Y-17600000D01*
X39850000Y-18600000D02*
X37650000Y-18600000D01*
D12*
X37249800Y-17473000D02*
G75*
G02*
X37049800Y-17473000I-100000J0D01*
G01*
X37049800Y-17473000D02*
G75*
G02*
X37249800Y-17473000I100000J0D01*
G01*
D11*
%TO.C,D26*%
X6150000Y-11900000D02*
X8350000Y-11900000D01*
X6150000Y-13100000D02*
X6150000Y-12900000D01*
X8350000Y-13100000D02*
X8350000Y-12900000D01*
X8350000Y-14100000D02*
X6150000Y-14100000D01*
D12*
X8950200Y-13027000D02*
G75*
G02*
X8750200Y-13027000I-100000J0D01*
G01*
X8750200Y-13027000D02*
G75*
G02*
X8950200Y-13027000I100000J0D01*
G01*
D11*
%TO.C,D50*%
X37650000Y-25400000D02*
X39850000Y-25400000D01*
X37650000Y-26400000D02*
X37650000Y-26600000D01*
X39850000Y-26400000D02*
X39850000Y-26600000D01*
X39850000Y-27600000D02*
X37650000Y-27600000D01*
D12*
X37249800Y-26473000D02*
G75*
G02*
X37049800Y-26473000I-100000J0D01*
G01*
X37049800Y-26473000D02*
G75*
G02*
X37249800Y-26473000I100000J0D01*
G01*
D11*
%TO.C,D18*%
X37650000Y-7400000D02*
X39850000Y-7400000D01*
X37650000Y-8400000D02*
X37650000Y-8600000D01*
X39850000Y-8400000D02*
X39850000Y-8600000D01*
X39850000Y-9600000D02*
X37650000Y-9600000D01*
D12*
X37249800Y-8473000D02*
G75*
G02*
X37049800Y-8473000I-100000J0D01*
G01*
X37049800Y-8473000D02*
G75*
G02*
X37249800Y-8473000I100000J0D01*
G01*
D11*
%TO.C,D11*%
X10650000Y-2900000D02*
X12850000Y-2900000D01*
X10650000Y-4100000D02*
X10650000Y-3900000D01*
X12850000Y-4100000D02*
X12850000Y-3900000D01*
X12850000Y-5100000D02*
X10650000Y-5100000D01*
D12*
X13450200Y-4027000D02*
G75*
G02*
X13250200Y-4027000I-100000J0D01*
G01*
X13250200Y-4027000D02*
G75*
G02*
X13450200Y-4027000I100000J0D01*
G01*
D11*
%TO.C,D40*%
X10650000Y-16400000D02*
X12850000Y-16400000D01*
X10650000Y-17400000D02*
X10650000Y-17600000D01*
X12850000Y-17400000D02*
X12850000Y-17600000D01*
X12850000Y-18600000D02*
X10650000Y-18600000D01*
D12*
X10249800Y-17473000D02*
G75*
G02*
X10049800Y-17473000I-100000J0D01*
G01*
X10049800Y-17473000D02*
G75*
G02*
X10249800Y-17473000I100000J0D01*
G01*
D13*
%TO.C,U3*%
X22980000Y-53575000D02*
X22980000Y-53845000D01*
X22980000Y-60475000D02*
X22980000Y-60205000D01*
X29400000Y-53575000D02*
X22980000Y-53575000D01*
X29400000Y-60475000D02*
X22980000Y-60475000D01*
X21250000Y-53885000D02*
X20910000Y-53415000D01*
X21590000Y-53415000D01*
X21250000Y-53885000D01*
G36*
X21250000Y-53885000D02*
G01*
X20910000Y-53415000D01*
X21590000Y-53415000D01*
X21250000Y-53885000D01*
G37*
D11*
%TO.C,D42*%
X6150000Y-20900000D02*
X8350000Y-20900000D01*
X6150000Y-22100000D02*
X6150000Y-21900000D01*
X8350000Y-22100000D02*
X8350000Y-21900000D01*
X8350000Y-23100000D02*
X6150000Y-23100000D01*
D12*
X8950200Y-22027000D02*
G75*
G02*
X8750200Y-22027000I-100000J0D01*
G01*
X8750200Y-22027000D02*
G75*
G02*
X8950200Y-22027000I100000J0D01*
G01*
D11*
%TO.C,D35*%
X33150000Y-16400000D02*
X35350000Y-16400000D01*
X33150000Y-17400000D02*
X33150000Y-17600000D01*
X35350000Y-17400000D02*
X35350000Y-17600000D01*
X35350000Y-18600000D02*
X33150000Y-18600000D01*
D12*
X32749800Y-17473000D02*
G75*
G02*
X32549800Y-17473000I-100000J0D01*
G01*
X32549800Y-17473000D02*
G75*
G02*
X32749800Y-17473000I100000J0D01*
G01*
%TD*%
M02*
