%TF.GenerationSoftware,KiCad,Pcbnew,9.0.7*%
%TF.CreationDate,2026-09-25T12:53:25+02:00*%
%TF.ProjectId,esp32-led-matrix,65737033-322d-46c6-9564-2d6d61747269,rev?*%
%TF.SameCoordinates,Original*%
%TF.FileFunction,Legend,Bot*%
%TF.FilePolarity,Positive*%
%FSLAX46Y46*%
G04 Gerber Fmt 4.6, Leading zero omitted, Abs format (unit mm)*
G04 Created by KiCad (PCBNEW 9.0.7) date 2026-09-25 12:53:25*
%MOMM*%
%LPD*%
G01*
G04 APERTURE LIST*
%ADD10C,0.150000*%
%ADD11C,0.127000*%
%ADD12C,0.200000*%
%ADD13C,0.120000*%
G04 APERTURE END LIST*
D10*
X24486904Y-41954819D02*
X24486904Y-42764342D01*
X24486904Y-42764342D02*
X24439285Y-42859580D01*
X24439285Y-42859580D02*
X24391666Y-42907200D01*
X24391666Y-42907200D02*
X24296428Y-42954819D01*
X24296428Y-42954819D02*
X24105952Y-42954819D01*
X24105952Y-42954819D02*
X24010714Y-42907200D01*
X24010714Y-42907200D02*
X23963095Y-42859580D01*
X23963095Y-42859580D02*
X23915476Y-42764342D01*
X23915476Y-42764342D02*
X23915476Y-41954819D01*
X22915476Y-42954819D02*
X23486904Y-42954819D01*
X23201190Y-42954819D02*
X23201190Y-41954819D01*
X23201190Y-41954819D02*
X23296428Y-42097676D01*
X23296428Y-42097676D02*
X23391666Y-42192914D01*
X23391666Y-42192914D02*
X23486904Y-42240533D01*
D11*
%TO.C,D74*%
X6150000Y-4100000D02*
X6150000Y-3900000D01*
X6150000Y-5100000D02*
X8350000Y-5100000D01*
X8350000Y-2900000D02*
X6150000Y-2900000D01*
X8350000Y-4100000D02*
X8350000Y-3900000D01*
D12*
X5749800Y-4027000D02*
G75*
G02*
X5549800Y-4027000I-100000J0D01*
G01*
X5549800Y-4027000D02*
G75*
G02*
X5749800Y-4027000I100000J0D01*
G01*
D11*
%TO.C,D88*%
X10650000Y-8400000D02*
X10650000Y-8600000D01*
X10650000Y-9600000D02*
X12850000Y-9600000D01*
X12850000Y-7400000D02*
X10650000Y-7400000D01*
X12850000Y-8400000D02*
X12850000Y-8600000D01*
D12*
X13450200Y-8473000D02*
G75*
G02*
X13250200Y-8473000I-100000J0D01*
G01*
X13250200Y-8473000D02*
G75*
G02*
X13450200Y-8473000I100000J0D01*
G01*
D11*
%TO.C,D76*%
X15150000Y-4100000D02*
X15150000Y-3900000D01*
X15150000Y-5100000D02*
X17350000Y-5100000D01*
X17350000Y-2900000D02*
X15150000Y-2900000D01*
X17350000Y-4100000D02*
X17350000Y-3900000D01*
D12*
X14749800Y-4027000D02*
G75*
G02*
X14549800Y-4027000I-100000J0D01*
G01*
X14549800Y-4027000D02*
G75*
G02*
X14749800Y-4027000I100000J0D01*
G01*
D11*
%TO.C,D134*%
X19650000Y-35400000D02*
X19650000Y-35600000D01*
X19650000Y-36600000D02*
X21850000Y-36600000D01*
X21850000Y-34400000D02*
X19650000Y-34400000D01*
X21850000Y-35400000D02*
X21850000Y-35600000D01*
D12*
X22450200Y-35473000D02*
G75*
G02*
X22250200Y-35473000I-100000J0D01*
G01*
X22250200Y-35473000D02*
G75*
G02*
X22450200Y-35473000I100000J0D01*
G01*
D11*
%TO.C,D100*%
X28650000Y-17400000D02*
X28650000Y-17600000D01*
X28650000Y-18600000D02*
X30850000Y-18600000D01*
X30850000Y-16400000D02*
X28650000Y-16400000D01*
X30850000Y-17400000D02*
X30850000Y-17600000D01*
D12*
X31450200Y-17473000D02*
G75*
G02*
X31250200Y-17473000I-100000J0D01*
G01*
X31250200Y-17473000D02*
G75*
G02*
X31450200Y-17473000I100000J0D01*
G01*
D11*
%TO.C,D123*%
X10650000Y-31100000D02*
X10650000Y-30900000D01*
X10650000Y-32100000D02*
X12850000Y-32100000D01*
X12850000Y-29900000D02*
X10650000Y-29900000D01*
X12850000Y-31100000D02*
X12850000Y-30900000D01*
D12*
X10249800Y-31027000D02*
G75*
G02*
X10049800Y-31027000I-100000J0D01*
G01*
X10049800Y-31027000D02*
G75*
G02*
X10249800Y-31027000I100000J0D01*
G01*
D11*
%TO.C,D92*%
X15150000Y-13100000D02*
X15150000Y-12900000D01*
X15150000Y-14100000D02*
X17350000Y-14100000D01*
X17350000Y-11900000D02*
X15150000Y-11900000D01*
X17350000Y-13100000D02*
X17350000Y-12900000D01*
D12*
X14749800Y-13027000D02*
G75*
G02*
X14549800Y-13027000I-100000J0D01*
G01*
X14549800Y-13027000D02*
G75*
G02*
X14749800Y-13027000I100000J0D01*
G01*
D11*
%TO.C,D105*%
X6150000Y-17400000D02*
X6150000Y-17600000D01*
X6150000Y-18600000D02*
X8350000Y-18600000D01*
X8350000Y-16400000D02*
X6150000Y-16400000D01*
X8350000Y-17400000D02*
X8350000Y-17600000D01*
D12*
X8950200Y-17473000D02*
G75*
G02*
X8750200Y-17473000I-100000J0D01*
G01*
X8750200Y-17473000D02*
G75*
G02*
X8950200Y-17473000I100000J0D01*
G01*
D11*
%TO.C,D78*%
X24150000Y-4100000D02*
X24150000Y-3900000D01*
X24150000Y-5100000D02*
X26350000Y-5100000D01*
X26350000Y-2900000D02*
X24150000Y-2900000D01*
X26350000Y-4100000D02*
X26350000Y-3900000D01*
D12*
X23749800Y-4027000D02*
G75*
G02*
X23549800Y-4027000I-100000J0D01*
G01*
X23549800Y-4027000D02*
G75*
G02*
X23749800Y-4027000I100000J0D01*
G01*
D11*
%TO.C,D89*%
X6150000Y-8400000D02*
X6150000Y-8600000D01*
X6150000Y-9600000D02*
X8350000Y-9600000D01*
X8350000Y-7400000D02*
X6150000Y-7400000D01*
X8350000Y-8400000D02*
X8350000Y-8600000D01*
D12*
X8950200Y-8473000D02*
G75*
G02*
X8750200Y-8473000I-100000J0D01*
G01*
X8750200Y-8473000D02*
G75*
G02*
X8950200Y-8473000I100000J0D01*
G01*
D11*
%TO.C,D129*%
X37650000Y-31100000D02*
X37650000Y-30900000D01*
X37650000Y-32100000D02*
X39850000Y-32100000D01*
X39850000Y-29900000D02*
X37650000Y-29900000D01*
X39850000Y-31100000D02*
X39850000Y-30900000D01*
D12*
X37249800Y-31027000D02*
G75*
G02*
X37049800Y-31027000I-100000J0D01*
G01*
X37049800Y-31027000D02*
G75*
G02*
X37249800Y-31027000I100000J0D01*
G01*
D11*
%TO.C,D96*%
X33150000Y-13100000D02*
X33150000Y-12900000D01*
X33150000Y-14100000D02*
X35350000Y-14100000D01*
X35350000Y-11900000D02*
X33150000Y-11900000D01*
X35350000Y-13100000D02*
X35350000Y-12900000D01*
D12*
X32749800Y-13027000D02*
G75*
G02*
X32549800Y-13027000I-100000J0D01*
G01*
X32549800Y-13027000D02*
G75*
G02*
X32749800Y-13027000I100000J0D01*
G01*
D11*
%TO.C,D95*%
X28650000Y-13100000D02*
X28650000Y-12900000D01*
X28650000Y-14100000D02*
X30850000Y-14100000D01*
X30850000Y-11900000D02*
X28650000Y-11900000D01*
X30850000Y-13100000D02*
X30850000Y-12900000D01*
D12*
X28249800Y-13027000D02*
G75*
G02*
X28049800Y-13027000I-100000J0D01*
G01*
X28049800Y-13027000D02*
G75*
G02*
X28249800Y-13027000I100000J0D01*
G01*
D13*
%TO.C,J4*%
X14055000Y-70400000D02*
X14055000Y-68700000D01*
X23395000Y-70400000D02*
X23395000Y-68700000D01*
D11*
%TO.C,D103*%
X15150000Y-17400000D02*
X15150000Y-17600000D01*
X15150000Y-18600000D02*
X17350000Y-18600000D01*
X17350000Y-16400000D02*
X15150000Y-16400000D01*
X17350000Y-17400000D02*
X17350000Y-17600000D01*
D12*
X17950200Y-17473000D02*
G75*
G02*
X17750200Y-17473000I-100000J0D01*
G01*
X17750200Y-17473000D02*
G75*
G02*
X17950200Y-17473000I100000J0D01*
G01*
D11*
%TO.C,D114*%
X37650000Y-26400000D02*
X37650000Y-26600000D01*
X37650000Y-27600000D02*
X39850000Y-27600000D01*
X39850000Y-25400000D02*
X37650000Y-25400000D01*
X39850000Y-26400000D02*
X39850000Y-26600000D01*
D12*
X40450200Y-26473000D02*
G75*
G02*
X40250200Y-26473000I-100000J0D01*
G01*
X40250200Y-26473000D02*
G75*
G02*
X40450200Y-26473000I100000J0D01*
G01*
D11*
%TO.C,D109*%
X19650000Y-22100000D02*
X19650000Y-21900000D01*
X19650000Y-23100000D02*
X21850000Y-23100000D01*
X21850000Y-20900000D02*
X19650000Y-20900000D01*
X21850000Y-22100000D02*
X21850000Y-21900000D01*
D12*
X19249800Y-22027000D02*
G75*
G02*
X19049800Y-22027000I-100000J0D01*
G01*
X19049800Y-22027000D02*
G75*
G02*
X19249800Y-22027000I100000J0D01*
G01*
D11*
%TO.C,D81*%
X37650000Y-4100000D02*
X37650000Y-3900000D01*
X37650000Y-5100000D02*
X39850000Y-5100000D01*
X39850000Y-2900000D02*
X37650000Y-2900000D01*
X39850000Y-4100000D02*
X39850000Y-3900000D01*
D12*
X37249800Y-4027000D02*
G75*
G02*
X37049800Y-4027000I-100000J0D01*
G01*
X37049800Y-4027000D02*
G75*
G02*
X37249800Y-4027000I100000J0D01*
G01*
D11*
%TO.C,D98*%
X37650000Y-17400000D02*
X37650000Y-17600000D01*
X37650000Y-18600000D02*
X39850000Y-18600000D01*
X39850000Y-16400000D02*
X37650000Y-16400000D01*
X39850000Y-17400000D02*
X39850000Y-17600000D01*
D12*
X40450200Y-17473000D02*
G75*
G02*
X40250200Y-17473000I-100000J0D01*
G01*
X40250200Y-17473000D02*
G75*
G02*
X40450200Y-17473000I100000J0D01*
G01*
D11*
%TO.C,D126*%
X24150000Y-31100000D02*
X24150000Y-30900000D01*
X24150000Y-32100000D02*
X26350000Y-32100000D01*
X26350000Y-29900000D02*
X24150000Y-29900000D01*
X26350000Y-31100000D02*
X26350000Y-30900000D01*
D12*
X23749800Y-31027000D02*
G75*
G02*
X23549800Y-31027000I-100000J0D01*
G01*
X23549800Y-31027000D02*
G75*
G02*
X23749800Y-31027000I100000J0D01*
G01*
D11*
%TO.C,D93*%
X19650000Y-13100000D02*
X19650000Y-12900000D01*
X19650000Y-14100000D02*
X21850000Y-14100000D01*
X21850000Y-11900000D02*
X19650000Y-11900000D01*
X21850000Y-13100000D02*
X21850000Y-12900000D01*
D12*
X19249800Y-13027000D02*
G75*
G02*
X19049800Y-13027000I-100000J0D01*
G01*
X19049800Y-13027000D02*
G75*
G02*
X19249800Y-13027000I100000J0D01*
G01*
D11*
%TO.C,D107*%
X10650000Y-22100000D02*
X10650000Y-21900000D01*
X10650000Y-23100000D02*
X12850000Y-23100000D01*
X12850000Y-20900000D02*
X10650000Y-20900000D01*
X12850000Y-22100000D02*
X12850000Y-21900000D01*
D12*
X10249800Y-22027000D02*
G75*
G02*
X10049800Y-22027000I-100000J0D01*
G01*
X10049800Y-22027000D02*
G75*
G02*
X10249800Y-22027000I100000J0D01*
G01*
D11*
%TO.C,D75*%
X10650000Y-4100000D02*
X10650000Y-3900000D01*
X10650000Y-5100000D02*
X12850000Y-5100000D01*
X12850000Y-2900000D02*
X10650000Y-2900000D01*
X12850000Y-4100000D02*
X12850000Y-3900000D01*
D12*
X10249800Y-4027000D02*
G75*
G02*
X10049800Y-4027000I-100000J0D01*
G01*
X10049800Y-4027000D02*
G75*
G02*
X10249800Y-4027000I100000J0D01*
G01*
D11*
%TO.C,D136*%
X10650000Y-35400000D02*
X10650000Y-35600000D01*
X10650000Y-36600000D02*
X12850000Y-36600000D01*
X12850000Y-34400000D02*
X10650000Y-34400000D01*
X12850000Y-35400000D02*
X12850000Y-35600000D01*
D12*
X13450200Y-35473000D02*
G75*
G02*
X13250200Y-35473000I-100000J0D01*
G01*
X13250200Y-35473000D02*
G75*
G02*
X13450200Y-35473000I100000J0D01*
G01*
D11*
%TO.C,D117*%
X24150000Y-26400000D02*
X24150000Y-26600000D01*
X24150000Y-27600000D02*
X26350000Y-27600000D01*
X26350000Y-25400000D02*
X24150000Y-25400000D01*
X26350000Y-26400000D02*
X26350000Y-26600000D01*
D12*
X26950200Y-26473000D02*
G75*
G02*
X26750200Y-26473000I-100000J0D01*
G01*
X26750200Y-26473000D02*
G75*
G02*
X26950200Y-26473000I100000J0D01*
G01*
D11*
%TO.C,D97*%
X37650000Y-13100000D02*
X37650000Y-12900000D01*
X37650000Y-14100000D02*
X39850000Y-14100000D01*
X39850000Y-11900000D02*
X37650000Y-11900000D01*
X39850000Y-13100000D02*
X39850000Y-12900000D01*
D12*
X37249800Y-13027000D02*
G75*
G02*
X37049800Y-13027000I-100000J0D01*
G01*
X37049800Y-13027000D02*
G75*
G02*
X37249800Y-13027000I100000J0D01*
G01*
D11*
%TO.C,D108*%
X15150000Y-22100000D02*
X15150000Y-21900000D01*
X15150000Y-23100000D02*
X17350000Y-23100000D01*
X17350000Y-20900000D02*
X15150000Y-20900000D01*
X17350000Y-22100000D02*
X17350000Y-21900000D01*
D12*
X14749800Y-22027000D02*
G75*
G02*
X14549800Y-22027000I-100000J0D01*
G01*
X14549800Y-22027000D02*
G75*
G02*
X14749800Y-22027000I100000J0D01*
G01*
D11*
%TO.C,D122*%
X6150000Y-31100000D02*
X6150000Y-30900000D01*
X6150000Y-32100000D02*
X8350000Y-32100000D01*
X8350000Y-29900000D02*
X6150000Y-29900000D01*
X8350000Y-31100000D02*
X8350000Y-30900000D01*
D12*
X5749800Y-31027000D02*
G75*
G02*
X5549800Y-31027000I-100000J0D01*
G01*
X5549800Y-31027000D02*
G75*
G02*
X5749800Y-31027000I100000J0D01*
G01*
D11*
%TO.C,D116*%
X28650000Y-26400000D02*
X28650000Y-26600000D01*
X28650000Y-27600000D02*
X30850000Y-27600000D01*
X30850000Y-25400000D02*
X28650000Y-25400000D01*
X30850000Y-26400000D02*
X30850000Y-26600000D01*
D12*
X31450200Y-26473000D02*
G75*
G02*
X31250200Y-26473000I-100000J0D01*
G01*
X31250200Y-26473000D02*
G75*
G02*
X31450200Y-26473000I100000J0D01*
G01*
D11*
%TO.C,D101*%
X24150000Y-17400000D02*
X24150000Y-17600000D01*
X24150000Y-18600000D02*
X26350000Y-18600000D01*
X26350000Y-16400000D02*
X24150000Y-16400000D01*
X26350000Y-17400000D02*
X26350000Y-17600000D01*
D12*
X26950200Y-17473000D02*
G75*
G02*
X26750200Y-17473000I-100000J0D01*
G01*
X26750200Y-17473000D02*
G75*
G02*
X26950200Y-17473000I100000J0D01*
G01*
D11*
%TO.C,D130*%
X37650000Y-35400000D02*
X37650000Y-35600000D01*
X37650000Y-36600000D02*
X39850000Y-36600000D01*
X39850000Y-34400000D02*
X37650000Y-34400000D01*
X39850000Y-35400000D02*
X39850000Y-35600000D01*
D12*
X40450200Y-35473000D02*
G75*
G02*
X40250200Y-35473000I-100000J0D01*
G01*
X40250200Y-35473000D02*
G75*
G02*
X40450200Y-35473000I100000J0D01*
G01*
D11*
%TO.C,D115*%
X33150000Y-26400000D02*
X33150000Y-26600000D01*
X33150000Y-27600000D02*
X35350000Y-27600000D01*
X35350000Y-25400000D02*
X33150000Y-25400000D01*
X35350000Y-26400000D02*
X35350000Y-26600000D01*
D12*
X35950200Y-26473000D02*
G75*
G02*
X35750200Y-26473000I-100000J0D01*
G01*
X35750200Y-26473000D02*
G75*
G02*
X35950200Y-26473000I100000J0D01*
G01*
D11*
%TO.C,D121*%
X6150000Y-26400000D02*
X6150000Y-26600000D01*
X6150000Y-27600000D02*
X8350000Y-27600000D01*
X8350000Y-25400000D02*
X6150000Y-25400000D01*
X8350000Y-26400000D02*
X8350000Y-26600000D01*
D12*
X8950200Y-26473000D02*
G75*
G02*
X8750200Y-26473000I-100000J0D01*
G01*
X8750200Y-26473000D02*
G75*
G02*
X8950200Y-26473000I100000J0D01*
G01*
D11*
%TO.C,D128*%
X33150000Y-31100000D02*
X33150000Y-30900000D01*
X33150000Y-32100000D02*
X35350000Y-32100000D01*
X35350000Y-29900000D02*
X33150000Y-29900000D01*
X35350000Y-31100000D02*
X35350000Y-30900000D01*
D12*
X32749800Y-31027000D02*
G75*
G02*
X32549800Y-31027000I-100000J0D01*
G01*
X32549800Y-31027000D02*
G75*
G02*
X32749800Y-31027000I100000J0D01*
G01*
D11*
%TO.C,D102*%
X19650000Y-17400000D02*
X19650000Y-17600000D01*
X19650000Y-18600000D02*
X21850000Y-18600000D01*
X21850000Y-16400000D02*
X19650000Y-16400000D01*
X21850000Y-17400000D02*
X21850000Y-17600000D01*
D12*
X22450200Y-17473000D02*
G75*
G02*
X22250200Y-17473000I-100000J0D01*
G01*
X22250200Y-17473000D02*
G75*
G02*
X22450200Y-17473000I100000J0D01*
G01*
D11*
%TO.C,D91*%
X10650000Y-13100000D02*
X10650000Y-12900000D01*
X10650000Y-14100000D02*
X12850000Y-14100000D01*
X12850000Y-11900000D02*
X10650000Y-11900000D01*
X12850000Y-13100000D02*
X12850000Y-12900000D01*
D12*
X10249800Y-13027000D02*
G75*
G02*
X10049800Y-13027000I-100000J0D01*
G01*
X10049800Y-13027000D02*
G75*
G02*
X10249800Y-13027000I100000J0D01*
G01*
D11*
%TO.C,D131*%
X33150000Y-35400000D02*
X33150000Y-35600000D01*
X33150000Y-36600000D02*
X35350000Y-36600000D01*
X35350000Y-34400000D02*
X33150000Y-34400000D01*
X35350000Y-35400000D02*
X35350000Y-35600000D01*
D12*
X35950200Y-35473000D02*
G75*
G02*
X35750200Y-35473000I-100000J0D01*
G01*
X35750200Y-35473000D02*
G75*
G02*
X35950200Y-35473000I100000J0D01*
G01*
D11*
%TO.C,D90*%
X6150000Y-13100000D02*
X6150000Y-12900000D01*
X6150000Y-14100000D02*
X8350000Y-14100000D01*
X8350000Y-11900000D02*
X6150000Y-11900000D01*
X8350000Y-13100000D02*
X8350000Y-12900000D01*
D12*
X5749800Y-13027000D02*
G75*
G02*
X5549800Y-13027000I-100000J0D01*
G01*
X5549800Y-13027000D02*
G75*
G02*
X5749800Y-13027000I100000J0D01*
G01*
D13*
%TO.C,U1*%
X13975000Y-39000000D02*
X13975000Y-45750000D01*
X13975000Y-45000000D02*
X31975000Y-45000000D01*
X13975000Y-63750000D02*
X13975000Y-64500000D01*
X13975000Y-64500000D02*
X14975000Y-64500000D01*
X31975000Y-39000000D02*
X13975000Y-39000000D01*
X31975000Y-39000000D02*
X31975000Y-45750000D01*
X31975000Y-63750000D02*
X31975000Y-64500000D01*
X31975000Y-64500000D02*
X30975000Y-64500000D01*
D11*
%TO.C,D110*%
X24150000Y-22100000D02*
X24150000Y-21900000D01*
X24150000Y-23100000D02*
X26350000Y-23100000D01*
X26350000Y-20900000D02*
X24150000Y-20900000D01*
X26350000Y-22100000D02*
X26350000Y-21900000D01*
D12*
X23749800Y-22027000D02*
G75*
G02*
X23549800Y-22027000I-100000J0D01*
G01*
X23549800Y-22027000D02*
G75*
G02*
X23749800Y-22027000I100000J0D01*
G01*
D11*
%TO.C,D104*%
X10650000Y-17400000D02*
X10650000Y-17600000D01*
X10650000Y-18600000D02*
X12850000Y-18600000D01*
X12850000Y-16400000D02*
X10650000Y-16400000D01*
X12850000Y-17400000D02*
X12850000Y-17600000D01*
D12*
X13450200Y-17473000D02*
G75*
G02*
X13250200Y-17473000I-100000J0D01*
G01*
X13250200Y-17473000D02*
G75*
G02*
X13450200Y-17473000I100000J0D01*
G01*
D11*
%TO.C,D119*%
X15150000Y-26400000D02*
X15150000Y-26600000D01*
X15150000Y-27600000D02*
X17350000Y-27600000D01*
X17350000Y-25400000D02*
X15150000Y-25400000D01*
X17350000Y-26400000D02*
X17350000Y-26600000D01*
D12*
X17950200Y-26473000D02*
G75*
G02*
X17750200Y-26473000I-100000J0D01*
G01*
X17750200Y-26473000D02*
G75*
G02*
X17950200Y-26473000I100000J0D01*
G01*
D11*
%TO.C,D124*%
X15150000Y-31100000D02*
X15150000Y-30900000D01*
X15150000Y-32100000D02*
X17350000Y-32100000D01*
X17350000Y-29900000D02*
X15150000Y-29900000D01*
X17350000Y-31100000D02*
X17350000Y-30900000D01*
D12*
X14749800Y-31027000D02*
G75*
G02*
X14549800Y-31027000I-100000J0D01*
G01*
X14549800Y-31027000D02*
G75*
G02*
X14749800Y-31027000I100000J0D01*
G01*
D11*
%TO.C,D113*%
X37650000Y-22100000D02*
X37650000Y-21900000D01*
X37650000Y-23100000D02*
X39850000Y-23100000D01*
X39850000Y-20900000D02*
X37650000Y-20900000D01*
X39850000Y-22100000D02*
X39850000Y-21900000D01*
D12*
X37249800Y-22027000D02*
G75*
G02*
X37049800Y-22027000I-100000J0D01*
G01*
X37049800Y-22027000D02*
G75*
G02*
X37249800Y-22027000I100000J0D01*
G01*
D11*
%TO.C,D133*%
X24150000Y-35400000D02*
X24150000Y-35600000D01*
X24150000Y-36600000D02*
X26350000Y-36600000D01*
X26350000Y-34400000D02*
X24150000Y-34400000D01*
X26350000Y-35400000D02*
X26350000Y-35600000D01*
D12*
X26950200Y-35473000D02*
G75*
G02*
X26750200Y-35473000I-100000J0D01*
G01*
X26750200Y-35473000D02*
G75*
G02*
X26950200Y-35473000I100000J0D01*
G01*
D11*
%TO.C,D86*%
X19650000Y-8400000D02*
X19650000Y-8600000D01*
X19650000Y-9600000D02*
X21850000Y-9600000D01*
X21850000Y-7400000D02*
X19650000Y-7400000D01*
X21850000Y-8400000D02*
X21850000Y-8600000D01*
D12*
X22450200Y-8473000D02*
G75*
G02*
X22250200Y-8473000I-100000J0D01*
G01*
X22250200Y-8473000D02*
G75*
G02*
X22450200Y-8473000I100000J0D01*
G01*
D11*
%TO.C,D111*%
X28650000Y-22100000D02*
X28650000Y-21900000D01*
X28650000Y-23100000D02*
X30850000Y-23100000D01*
X30850000Y-20900000D02*
X28650000Y-20900000D01*
X30850000Y-22100000D02*
X30850000Y-21900000D01*
D12*
X28249800Y-22027000D02*
G75*
G02*
X28049800Y-22027000I-100000J0D01*
G01*
X28049800Y-22027000D02*
G75*
G02*
X28249800Y-22027000I100000J0D01*
G01*
D11*
%TO.C,D83*%
X33150000Y-8400000D02*
X33150000Y-8600000D01*
X33150000Y-9600000D02*
X35350000Y-9600000D01*
X35350000Y-7400000D02*
X33150000Y-7400000D01*
X35350000Y-8400000D02*
X35350000Y-8600000D01*
D12*
X35950200Y-8473000D02*
G75*
G02*
X35750200Y-8473000I-100000J0D01*
G01*
X35750200Y-8473000D02*
G75*
G02*
X35950200Y-8473000I100000J0D01*
G01*
D11*
%TO.C,D135*%
X15150000Y-35400000D02*
X15150000Y-35600000D01*
X15150000Y-36600000D02*
X17350000Y-36600000D01*
X17350000Y-34400000D02*
X15150000Y-34400000D01*
X17350000Y-35400000D02*
X17350000Y-35600000D01*
D12*
X17950200Y-35473000D02*
G75*
G02*
X17750200Y-35473000I-100000J0D01*
G01*
X17750200Y-35473000D02*
G75*
G02*
X17950200Y-35473000I100000J0D01*
G01*
D11*
%TO.C,D106*%
X6150000Y-22100000D02*
X6150000Y-21900000D01*
X6150000Y-23100000D02*
X8350000Y-23100000D01*
X8350000Y-20900000D02*
X6150000Y-20900000D01*
X8350000Y-22100000D02*
X8350000Y-21900000D01*
D12*
X5749800Y-22027000D02*
G75*
G02*
X5549800Y-22027000I-100000J0D01*
G01*
X5549800Y-22027000D02*
G75*
G02*
X5749800Y-22027000I100000J0D01*
G01*
D11*
%TO.C,D112*%
X33150000Y-22100000D02*
X33150000Y-21900000D01*
X33150000Y-23100000D02*
X35350000Y-23100000D01*
X35350000Y-20900000D02*
X33150000Y-20900000D01*
X35350000Y-22100000D02*
X35350000Y-21900000D01*
D12*
X32749800Y-22027000D02*
G75*
G02*
X32549800Y-22027000I-100000J0D01*
G01*
X32549800Y-22027000D02*
G75*
G02*
X32749800Y-22027000I100000J0D01*
G01*
D11*
%TO.C,D118*%
X19650000Y-26400000D02*
X19650000Y-26600000D01*
X19650000Y-27600000D02*
X21850000Y-27600000D01*
X21850000Y-25400000D02*
X19650000Y-25400000D01*
X21850000Y-26400000D02*
X21850000Y-26600000D01*
D12*
X22450200Y-26473000D02*
G75*
G02*
X22250200Y-26473000I-100000J0D01*
G01*
X22250200Y-26473000D02*
G75*
G02*
X22450200Y-26473000I100000J0D01*
G01*
D11*
%TO.C,D99*%
X33150000Y-17400000D02*
X33150000Y-17600000D01*
X33150000Y-18600000D02*
X35350000Y-18600000D01*
X35350000Y-16400000D02*
X33150000Y-16400000D01*
X35350000Y-17400000D02*
X35350000Y-17600000D01*
D12*
X35950200Y-17473000D02*
G75*
G02*
X35750200Y-17473000I-100000J0D01*
G01*
X35750200Y-17473000D02*
G75*
G02*
X35950200Y-17473000I100000J0D01*
G01*
D11*
%TO.C,D84*%
X28650000Y-8400000D02*
X28650000Y-8600000D01*
X28650000Y-9600000D02*
X30850000Y-9600000D01*
X30850000Y-7400000D02*
X28650000Y-7400000D01*
X30850000Y-8400000D02*
X30850000Y-8600000D01*
D12*
X31450200Y-8473000D02*
G75*
G02*
X31250200Y-8473000I-100000J0D01*
G01*
X31250200Y-8473000D02*
G75*
G02*
X31450200Y-8473000I100000J0D01*
G01*
D11*
%TO.C,D82*%
X37650000Y-8400000D02*
X37650000Y-8600000D01*
X37650000Y-9600000D02*
X39850000Y-9600000D01*
X39850000Y-7400000D02*
X37650000Y-7400000D01*
X39850000Y-8400000D02*
X39850000Y-8600000D01*
D12*
X40450200Y-8473000D02*
G75*
G02*
X40250200Y-8473000I-100000J0D01*
G01*
X40250200Y-8473000D02*
G75*
G02*
X40450200Y-8473000I100000J0D01*
G01*
D11*
%TO.C,D127*%
X28650000Y-31100000D02*
X28650000Y-30900000D01*
X28650000Y-32100000D02*
X30850000Y-32100000D01*
X30850000Y-29900000D02*
X28650000Y-29900000D01*
X30850000Y-31100000D02*
X30850000Y-30900000D01*
D12*
X28249800Y-31027000D02*
G75*
G02*
X28049800Y-31027000I-100000J0D01*
G01*
X28049800Y-31027000D02*
G75*
G02*
X28249800Y-31027000I100000J0D01*
G01*
D11*
%TO.C,D87*%
X15150000Y-8400000D02*
X15150000Y-8600000D01*
X15150000Y-9600000D02*
X17350000Y-9600000D01*
X17350000Y-7400000D02*
X15150000Y-7400000D01*
X17350000Y-8400000D02*
X17350000Y-8600000D01*
D12*
X17950200Y-8473000D02*
G75*
G02*
X17750200Y-8473000I-100000J0D01*
G01*
X17750200Y-8473000D02*
G75*
G02*
X17950200Y-8473000I100000J0D01*
G01*
D11*
%TO.C,D80*%
X33150000Y-4100000D02*
X33150000Y-3900000D01*
X33150000Y-5100000D02*
X35350000Y-5100000D01*
X35350000Y-2900000D02*
X33150000Y-2900000D01*
X35350000Y-4100000D02*
X35350000Y-3900000D01*
D12*
X32749800Y-4027000D02*
G75*
G02*
X32549800Y-4027000I-100000J0D01*
G01*
X32549800Y-4027000D02*
G75*
G02*
X32749800Y-4027000I100000J0D01*
G01*
D11*
%TO.C,D79*%
X28650000Y-4100000D02*
X28650000Y-3900000D01*
X28650000Y-5100000D02*
X30850000Y-5100000D01*
X30850000Y-2900000D02*
X28650000Y-2900000D01*
X30850000Y-4100000D02*
X30850000Y-3900000D01*
D12*
X28249800Y-4027000D02*
G75*
G02*
X28049800Y-4027000I-100000J0D01*
G01*
X28049800Y-4027000D02*
G75*
G02*
X28249800Y-4027000I100000J0D01*
G01*
D11*
%TO.C,D94*%
X24150000Y-13100000D02*
X24150000Y-12900000D01*
X24150000Y-14100000D02*
X26350000Y-14100000D01*
X26350000Y-11900000D02*
X24150000Y-11900000D01*
X26350000Y-13100000D02*
X26350000Y-12900000D01*
D12*
X23749800Y-13027000D02*
G75*
G02*
X23549800Y-13027000I-100000J0D01*
G01*
X23549800Y-13027000D02*
G75*
G02*
X23749800Y-13027000I100000J0D01*
G01*
D11*
%TO.C,D132*%
X28650000Y-35400000D02*
X28650000Y-35600000D01*
X28650000Y-36600000D02*
X30850000Y-36600000D01*
X30850000Y-34400000D02*
X28650000Y-34400000D01*
X30850000Y-35400000D02*
X30850000Y-35600000D01*
D12*
X31450200Y-35473000D02*
G75*
G02*
X31250200Y-35473000I-100000J0D01*
G01*
X31250200Y-35473000D02*
G75*
G02*
X31450200Y-35473000I100000J0D01*
G01*
D11*
%TO.C,D77*%
X19650000Y-4100000D02*
X19650000Y-3900000D01*
X19650000Y-5100000D02*
X21850000Y-5100000D01*
X21850000Y-2900000D02*
X19650000Y-2900000D01*
X21850000Y-4100000D02*
X21850000Y-3900000D01*
D12*
X19249800Y-4027000D02*
G75*
G02*
X19049800Y-4027000I-100000J0D01*
G01*
X19049800Y-4027000D02*
G75*
G02*
X19249800Y-4027000I100000J0D01*
G01*
D11*
%TO.C,D125*%
X19650000Y-31100000D02*
X19650000Y-30900000D01*
X19650000Y-32100000D02*
X21850000Y-32100000D01*
X21850000Y-29900000D02*
X19650000Y-29900000D01*
X21850000Y-31100000D02*
X21850000Y-30900000D01*
D12*
X19249800Y-31027000D02*
G75*
G02*
X19049800Y-31027000I-100000J0D01*
G01*
X19049800Y-31027000D02*
G75*
G02*
X19249800Y-31027000I100000J0D01*
G01*
D11*
%TO.C,D85*%
X24150000Y-8400000D02*
X24150000Y-8600000D01*
X24150000Y-9600000D02*
X26350000Y-9600000D01*
X26350000Y-7400000D02*
X24150000Y-7400000D01*
X26350000Y-8400000D02*
X26350000Y-8600000D01*
D12*
X26950200Y-8473000D02*
G75*
G02*
X26750200Y-8473000I-100000J0D01*
G01*
X26750200Y-8473000D02*
G75*
G02*
X26950200Y-8473000I100000J0D01*
G01*
D11*
%TO.C,D137*%
X6150000Y-35400000D02*
X6150000Y-35600000D01*
X6150000Y-36600000D02*
X8350000Y-36600000D01*
X8350000Y-34400000D02*
X6150000Y-34400000D01*
X8350000Y-35400000D02*
X8350000Y-35600000D01*
D12*
X8950200Y-35473000D02*
G75*
G02*
X8750200Y-35473000I-100000J0D01*
G01*
X8750200Y-35473000D02*
G75*
G02*
X8950200Y-35473000I100000J0D01*
G01*
D11*
%TO.C,D120*%
X10650000Y-26400000D02*
X10650000Y-26600000D01*
X10650000Y-27600000D02*
X12850000Y-27600000D01*
X12850000Y-25400000D02*
X10650000Y-25400000D01*
X12850000Y-26400000D02*
X12850000Y-26600000D01*
D12*
X13450200Y-26473000D02*
G75*
G02*
X13250200Y-26473000I-100000J0D01*
G01*
X13250200Y-26473000D02*
G75*
G02*
X13450200Y-26473000I100000J0D01*
G01*
%TD*%
M02*
