%TF.GenerationSoftware,KiCad,Pcbnew,9.0.7*%
%TF.CreationDate,2026-09-25T12:53:25+02:00*%
%TF.ProjectId,esp32-led-matrix,65737033-322d-46c6-9564-2d6d61747269,rev?*%
%TF.SameCoordinates,Original*%
%TF.FileFunction,Paste,Bot*%
%TF.FilePolarity,Positive*%
%FSLAX46Y46*%
G04 Gerber Fmt 4.6, Leading zero omitted, Abs format (unit mm)*
G04 Created by KiCad (PCBNEW 9.0.7) date 2026-09-25 12:53:25*
%MOMM*%
%LPD*%
G01*
G04 APERTURE LIST*
G04 Aperture macros list*
%AMRoundRect*
0 Rectangle with rounded corners*
0 $1 Rounding radius*
0 $2 $3 $4 $5 $6 $7 $8 $9 X,Y pos of 4 corners*
0 Add a 4 corners polygon primitive as box body*
4,1,4,$2,$3,$4,$5,$6,$7,$8,$9,$2,$3,0*
0 Add four circle primitives for the rounded corners*
1,1,$1+$1,$2,$3*
1,1,$1+$1,$4,$5*
1,1,$1+$1,$6,$7*
1,1,$1+$1,$8,$9*
0 Add four rect primitives between the rounded corners*
20,1,$1+$1,$2,$3,$4,$5,0*
20,1,$1+$1,$4,$5,$6,$7,0*
20,1,$1+$1,$6,$7,$8,$9,0*
20,1,$1+$1,$8,$9,$2,$3,0*%
G04 Aperture macros list end*
%ADD10R,0.700000X0.700000*%
%ADD11RoundRect,0.150000X0.150000X0.425000X-0.150000X0.425000X-0.150000X-0.425000X0.150000X-0.425000X0*%
%ADD12RoundRect,0.075000X0.075000X0.500000X-0.075000X0.500000X-0.075000X-0.500000X0.075000X-0.500000X0*%
%ADD13O,1.000000X1.800000*%
%ADD14O,1.000000X2.100000*%
%ADD15R,1.500000X0.900000*%
%ADD16R,0.800000X0.800000*%
G04 APERTURE END LIST*
D10*
%TO.C,D74*%
X6335000Y-4550000D03*
X6335000Y-3450000D03*
X8165000Y-3450000D03*
X8165000Y-4550000D03*
%TD*%
%TO.C,D88*%
X12665000Y-7950000D03*
X12665000Y-9050000D03*
X10835000Y-9050000D03*
X10835000Y-7950000D03*
%TD*%
%TO.C,D76*%
X15335000Y-4550000D03*
X15335000Y-3450000D03*
X17165000Y-3450000D03*
X17165000Y-4550000D03*
%TD*%
%TO.C,D134*%
X21665000Y-34950000D03*
X21665000Y-36050000D03*
X19835000Y-36050000D03*
X19835000Y-34950000D03*
%TD*%
%TO.C,D100*%
X30665000Y-16950000D03*
X30665000Y-18050000D03*
X28835000Y-18050000D03*
X28835000Y-16950000D03*
%TD*%
%TO.C,D123*%
X10835000Y-31550000D03*
X10835000Y-30450000D03*
X12665000Y-30450000D03*
X12665000Y-31550000D03*
%TD*%
%TO.C,D92*%
X15335000Y-13550000D03*
X15335000Y-12450000D03*
X17165000Y-12450000D03*
X17165000Y-13550000D03*
%TD*%
%TO.C,D105*%
X8165000Y-16950000D03*
X8165000Y-18050000D03*
X6335000Y-18050000D03*
X6335000Y-16950000D03*
%TD*%
%TO.C,D78*%
X24335000Y-4550000D03*
X24335000Y-3450000D03*
X26165000Y-3450000D03*
X26165000Y-4550000D03*
%TD*%
%TO.C,D89*%
X8165000Y-7950000D03*
X8165000Y-9050000D03*
X6335000Y-9050000D03*
X6335000Y-7950000D03*
%TD*%
%TO.C,D129*%
X37835000Y-31550000D03*
X37835000Y-30450000D03*
X39665000Y-30450000D03*
X39665000Y-31550000D03*
%TD*%
%TO.C,D96*%
X33335000Y-13550000D03*
X33335000Y-12450000D03*
X35165000Y-12450000D03*
X35165000Y-13550000D03*
%TD*%
%TO.C,D95*%
X28835000Y-13550000D03*
X28835000Y-12450000D03*
X30665000Y-12450000D03*
X30665000Y-13550000D03*
%TD*%
D11*
%TO.C,J4*%
X21925000Y-66820000D03*
X21125000Y-66820000D03*
D12*
X19975000Y-66820000D03*
X18975000Y-66820000D03*
X18475000Y-66820000D03*
X17475000Y-66820000D03*
D11*
X16325000Y-66820000D03*
X15525000Y-66820000D03*
X15525000Y-66820000D03*
X16325000Y-66820000D03*
D12*
X16975000Y-66820000D03*
X17975000Y-66820000D03*
X19475000Y-66820000D03*
X20475000Y-66820000D03*
D11*
X21125000Y-66820000D03*
X21925000Y-66820000D03*
D13*
X23045000Y-71575000D03*
D14*
X23045000Y-67395000D03*
D13*
X14405000Y-71575000D03*
D14*
X14405000Y-67395000D03*
%TD*%
D10*
%TO.C,D103*%
X17165000Y-16950000D03*
X17165000Y-18050000D03*
X15335000Y-18050000D03*
X15335000Y-16950000D03*
%TD*%
%TO.C,D114*%
X39665000Y-25950000D03*
X39665000Y-27050000D03*
X37835000Y-27050000D03*
X37835000Y-25950000D03*
%TD*%
%TO.C,D109*%
X19835000Y-22550000D03*
X19835000Y-21450000D03*
X21665000Y-21450000D03*
X21665000Y-22550000D03*
%TD*%
%TO.C,D81*%
X37835000Y-4550000D03*
X37835000Y-3450000D03*
X39665000Y-3450000D03*
X39665000Y-4550000D03*
%TD*%
%TO.C,D98*%
X39665000Y-16950000D03*
X39665000Y-18050000D03*
X37835000Y-18050000D03*
X37835000Y-16950000D03*
%TD*%
%TO.C,D126*%
X24335000Y-31550000D03*
X24335000Y-30450000D03*
X26165000Y-30450000D03*
X26165000Y-31550000D03*
%TD*%
%TO.C,D93*%
X19835000Y-13550000D03*
X19835000Y-12450000D03*
X21665000Y-12450000D03*
X21665000Y-13550000D03*
%TD*%
%TO.C,D107*%
X10835000Y-22550000D03*
X10835000Y-21450000D03*
X12665000Y-21450000D03*
X12665000Y-22550000D03*
%TD*%
%TO.C,D75*%
X10835000Y-4550000D03*
X10835000Y-3450000D03*
X12665000Y-3450000D03*
X12665000Y-4550000D03*
%TD*%
%TO.C,D136*%
X12665000Y-34950000D03*
X12665000Y-36050000D03*
X10835000Y-36050000D03*
X10835000Y-34950000D03*
%TD*%
%TO.C,D117*%
X26165000Y-25950000D03*
X26165000Y-27050000D03*
X24335000Y-27050000D03*
X24335000Y-25950000D03*
%TD*%
%TO.C,D97*%
X37835000Y-13550000D03*
X37835000Y-12450000D03*
X39665000Y-12450000D03*
X39665000Y-13550000D03*
%TD*%
%TO.C,D108*%
X15335000Y-22550000D03*
X15335000Y-21450000D03*
X17165000Y-21450000D03*
X17165000Y-22550000D03*
%TD*%
%TO.C,D122*%
X6335000Y-31550000D03*
X6335000Y-30450000D03*
X8165000Y-30450000D03*
X8165000Y-31550000D03*
%TD*%
%TO.C,D116*%
X30665000Y-25950000D03*
X30665000Y-27050000D03*
X28835000Y-27050000D03*
X28835000Y-25950000D03*
%TD*%
%TO.C,D101*%
X26165000Y-16950000D03*
X26165000Y-18050000D03*
X24335000Y-18050000D03*
X24335000Y-16950000D03*
%TD*%
%TO.C,D130*%
X39665000Y-34950000D03*
X39665000Y-36050000D03*
X37835000Y-36050000D03*
X37835000Y-34950000D03*
%TD*%
%TO.C,D115*%
X35165000Y-25950000D03*
X35165000Y-27050000D03*
X33335000Y-27050000D03*
X33335000Y-25950000D03*
%TD*%
%TO.C,D121*%
X8165000Y-25950000D03*
X8165000Y-27050000D03*
X6335000Y-27050000D03*
X6335000Y-25950000D03*
%TD*%
%TO.C,D128*%
X33335000Y-31550000D03*
X33335000Y-30450000D03*
X35165000Y-30450000D03*
X35165000Y-31550000D03*
%TD*%
%TO.C,D102*%
X21665000Y-16950000D03*
X21665000Y-18050000D03*
X19835000Y-18050000D03*
X19835000Y-16950000D03*
%TD*%
%TO.C,D91*%
X10835000Y-13550000D03*
X10835000Y-12450000D03*
X12665000Y-12450000D03*
X12665000Y-13550000D03*
%TD*%
%TO.C,D131*%
X35165000Y-34950000D03*
X35165000Y-36050000D03*
X33335000Y-36050000D03*
X33335000Y-34950000D03*
%TD*%
%TO.C,D90*%
X6335000Y-13550000D03*
X6335000Y-12450000D03*
X8165000Y-12450000D03*
X8165000Y-13550000D03*
%TD*%
D15*
%TO.C,U1*%
X31725000Y-46490000D03*
X31725000Y-47760000D03*
X31725000Y-49030000D03*
X31725000Y-50300000D03*
X31725000Y-51570000D03*
X31725000Y-52840000D03*
X31725000Y-54110000D03*
X31725000Y-55380000D03*
X31725000Y-56650000D03*
X31725000Y-57920000D03*
X31725000Y-59190000D03*
X31725000Y-60460000D03*
X31725000Y-61730000D03*
X31725000Y-63000000D03*
X14225000Y-63000000D03*
X14225000Y-61730000D03*
X14225000Y-60460000D03*
X14225000Y-59190000D03*
X14225000Y-57920000D03*
X14225000Y-56650000D03*
X14225000Y-55380000D03*
X14225000Y-54110000D03*
X14225000Y-52840000D03*
X14225000Y-51570000D03*
X14225000Y-50300000D03*
X14225000Y-49030000D03*
X14225000Y-47760000D03*
X14225000Y-46490000D03*
D16*
X25730000Y-53460000D03*
X25730000Y-52210000D03*
X25730000Y-50960000D03*
X24480000Y-53460000D03*
X24480000Y-52210000D03*
X24480000Y-50960000D03*
X23230000Y-53460000D03*
X23230000Y-52210000D03*
X23230000Y-50960000D03*
%TD*%
D10*
%TO.C,D110*%
X24335000Y-22550000D03*
X24335000Y-21450000D03*
X26165000Y-21450000D03*
X26165000Y-22550000D03*
%TD*%
%TO.C,D104*%
X12665000Y-16950000D03*
X12665000Y-18050000D03*
X10835000Y-18050000D03*
X10835000Y-16950000D03*
%TD*%
%TO.C,D119*%
X17165000Y-25950000D03*
X17165000Y-27050000D03*
X15335000Y-27050000D03*
X15335000Y-25950000D03*
%TD*%
%TO.C,D124*%
X15335000Y-31550000D03*
X15335000Y-30450000D03*
X17165000Y-30450000D03*
X17165000Y-31550000D03*
%TD*%
%TO.C,D113*%
X37835000Y-22550000D03*
X37835000Y-21450000D03*
X39665000Y-21450000D03*
X39665000Y-22550000D03*
%TD*%
%TO.C,D133*%
X26165000Y-34950000D03*
X26165000Y-36050000D03*
X24335000Y-36050000D03*
X24335000Y-34950000D03*
%TD*%
%TO.C,D86*%
X21665000Y-7950000D03*
X21665000Y-9050000D03*
X19835000Y-9050000D03*
X19835000Y-7950000D03*
%TD*%
%TO.C,D111*%
X28835000Y-22550000D03*
X28835000Y-21450000D03*
X30665000Y-21450000D03*
X30665000Y-22550000D03*
%TD*%
%TO.C,D83*%
X35165000Y-7950000D03*
X35165000Y-9050000D03*
X33335000Y-9050000D03*
X33335000Y-7950000D03*
%TD*%
%TO.C,D135*%
X17165000Y-34950000D03*
X17165000Y-36050000D03*
X15335000Y-36050000D03*
X15335000Y-34950000D03*
%TD*%
%TO.C,D106*%
X6335000Y-22550000D03*
X6335000Y-21450000D03*
X8165000Y-21450000D03*
X8165000Y-22550000D03*
%TD*%
%TO.C,D112*%
X33335000Y-22550000D03*
X33335000Y-21450000D03*
X35165000Y-21450000D03*
X35165000Y-22550000D03*
%TD*%
%TO.C,D118*%
X21665000Y-25950000D03*
X21665000Y-27050000D03*
X19835000Y-27050000D03*
X19835000Y-25950000D03*
%TD*%
%TO.C,D99*%
X35165000Y-16950000D03*
X35165000Y-18050000D03*
X33335000Y-18050000D03*
X33335000Y-16950000D03*
%TD*%
%TO.C,D84*%
X30665000Y-7950000D03*
X30665000Y-9050000D03*
X28835000Y-9050000D03*
X28835000Y-7950000D03*
%TD*%
%TO.C,D82*%
X39665000Y-7950000D03*
X39665000Y-9050000D03*
X37835000Y-9050000D03*
X37835000Y-7950000D03*
%TD*%
%TO.C,D127*%
X28835000Y-31550000D03*
X28835000Y-30450000D03*
X30665000Y-30450000D03*
X30665000Y-31550000D03*
%TD*%
%TO.C,D87*%
X17165000Y-7950000D03*
X17165000Y-9050000D03*
X15335000Y-9050000D03*
X15335000Y-7950000D03*
%TD*%
%TO.C,D80*%
X33335000Y-4550000D03*
X33335000Y-3450000D03*
X35165000Y-3450000D03*
X35165000Y-4550000D03*
%TD*%
%TO.C,D79*%
X28835000Y-4550000D03*
X28835000Y-3450000D03*
X30665000Y-3450000D03*
X30665000Y-4550000D03*
%TD*%
%TO.C,D94*%
X24335000Y-13550000D03*
X24335000Y-12450000D03*
X26165000Y-12450000D03*
X26165000Y-13550000D03*
%TD*%
%TO.C,D132*%
X30665000Y-34950000D03*
X30665000Y-36050000D03*
X28835000Y-36050000D03*
X28835000Y-34950000D03*
%TD*%
%TO.C,D77*%
X19835000Y-4550000D03*
X19835000Y-3450000D03*
X21665000Y-3450000D03*
X21665000Y-4550000D03*
%TD*%
%TO.C,D125*%
X19835000Y-31550000D03*
X19835000Y-30450000D03*
X21665000Y-30450000D03*
X21665000Y-31550000D03*
%TD*%
%TO.C,D85*%
X26165000Y-7950000D03*
X26165000Y-9050000D03*
X24335000Y-9050000D03*
X24335000Y-7950000D03*
%TD*%
%TO.C,D137*%
X8165000Y-34950000D03*
X8165000Y-36050000D03*
X6335000Y-36050000D03*
X6335000Y-34950000D03*
%TD*%
%TO.C,D120*%
X12665000Y-25950000D03*
X12665000Y-27050000D03*
X10835000Y-27050000D03*
X10835000Y-25950000D03*
%TD*%
M02*
