%TF.GenerationSoftware,KiCad,Pcbnew,9.0.7*%
%TF.CreationDate,2026-09-26T19:42:32+02:00*%
%TF.ProjectId,esp32-led-matrix,65737033-322d-46c6-9564-2d6d61747269,rev?*%
%TF.SameCoordinates,Original*%
%TF.FileFunction,Legend,Bot*%
%TF.FilePolarity,Positive*%
%FSLAX46Y46*%
G04 Gerber Fmt 4.6, Leading zero omitted, Abs format (unit mm)*
G04 Created by KiCad (PCBNEW 9.0.7) date 2026-09-26 19:42:32*
%MOMM*%
%LPD*%
G01*
G04 APERTURE LIST*
%ADD10C,0.150000*%
%ADD11C,0.120000*%
%ADD12C,0.127000*%
%ADD13C,0.200000*%
%ADD14C,0.203200*%
G04 APERTURE END LIST*
D10*
X48252381Y-16304819D02*
X48585714Y-15828628D01*
X48823809Y-16304819D02*
X48823809Y-15304819D01*
X48823809Y-15304819D02*
X48442857Y-15304819D01*
X48442857Y-15304819D02*
X48347619Y-15352438D01*
X48347619Y-15352438D02*
X48300000Y-15400057D01*
X48300000Y-15400057D02*
X48252381Y-15495295D01*
X48252381Y-15495295D02*
X48252381Y-15638152D01*
X48252381Y-15638152D02*
X48300000Y-15733390D01*
X48300000Y-15733390D02*
X48347619Y-15781009D01*
X48347619Y-15781009D02*
X48442857Y-15828628D01*
X48442857Y-15828628D02*
X48823809Y-15828628D01*
X47823809Y-15781009D02*
X47490476Y-15781009D01*
X47347619Y-16304819D02*
X47823809Y-16304819D01*
X47823809Y-16304819D02*
X47823809Y-15304819D01*
X47823809Y-15304819D02*
X47347619Y-15304819D01*
X46966666Y-16257200D02*
X46823809Y-16304819D01*
X46823809Y-16304819D02*
X46585714Y-16304819D01*
X46585714Y-16304819D02*
X46490476Y-16257200D01*
X46490476Y-16257200D02*
X46442857Y-16209580D01*
X46442857Y-16209580D02*
X46395238Y-16114342D01*
X46395238Y-16114342D02*
X46395238Y-16019104D01*
X46395238Y-16019104D02*
X46442857Y-15923866D01*
X46442857Y-15923866D02*
X46490476Y-15876247D01*
X46490476Y-15876247D02*
X46585714Y-15828628D01*
X46585714Y-15828628D02*
X46776190Y-15781009D01*
X46776190Y-15781009D02*
X46871428Y-15733390D01*
X46871428Y-15733390D02*
X46919047Y-15685771D01*
X46919047Y-15685771D02*
X46966666Y-15590533D01*
X46966666Y-15590533D02*
X46966666Y-15495295D01*
X46966666Y-15495295D02*
X46919047Y-15400057D01*
X46919047Y-15400057D02*
X46871428Y-15352438D01*
X46871428Y-15352438D02*
X46776190Y-15304819D01*
X46776190Y-15304819D02*
X46538095Y-15304819D01*
X46538095Y-15304819D02*
X46395238Y-15352438D01*
X45966666Y-15781009D02*
X45633333Y-15781009D01*
X45490476Y-16304819D02*
X45966666Y-16304819D01*
X45966666Y-16304819D02*
X45966666Y-15304819D01*
X45966666Y-15304819D02*
X45490476Y-15304819D01*
X45204761Y-15304819D02*
X44633333Y-15304819D01*
X44919047Y-16304819D02*
X44919047Y-15304819D01*
X43604819Y-6188095D02*
X44414342Y-6188095D01*
X44414342Y-6188095D02*
X44509580Y-6235714D01*
X44509580Y-6235714D02*
X44557200Y-6283333D01*
X44557200Y-6283333D02*
X44604819Y-6378571D01*
X44604819Y-6378571D02*
X44604819Y-6569047D01*
X44604819Y-6569047D02*
X44557200Y-6664285D01*
X44557200Y-6664285D02*
X44509580Y-6711904D01*
X44509580Y-6711904D02*
X44414342Y-6759523D01*
X44414342Y-6759523D02*
X43604819Y-6759523D01*
X43700057Y-7188095D02*
X43652438Y-7235714D01*
X43652438Y-7235714D02*
X43604819Y-7330952D01*
X43604819Y-7330952D02*
X43604819Y-7569047D01*
X43604819Y-7569047D02*
X43652438Y-7664285D01*
X43652438Y-7664285D02*
X43700057Y-7711904D01*
X43700057Y-7711904D02*
X43795295Y-7759523D01*
X43795295Y-7759523D02*
X43890533Y-7759523D01*
X43890533Y-7759523D02*
X44033390Y-7711904D01*
X44033390Y-7711904D02*
X44604819Y-7140476D01*
X44604819Y-7140476D02*
X44604819Y-7759523D01*
X38224819Y-25483333D02*
X37748628Y-25150000D01*
X38224819Y-24911905D02*
X37224819Y-24911905D01*
X37224819Y-24911905D02*
X37224819Y-25292857D01*
X37224819Y-25292857D02*
X37272438Y-25388095D01*
X37272438Y-25388095D02*
X37320057Y-25435714D01*
X37320057Y-25435714D02*
X37415295Y-25483333D01*
X37415295Y-25483333D02*
X37558152Y-25483333D01*
X37558152Y-25483333D02*
X37653390Y-25435714D01*
X37653390Y-25435714D02*
X37701009Y-25388095D01*
X37701009Y-25388095D02*
X37748628Y-25292857D01*
X37748628Y-25292857D02*
X37748628Y-24911905D01*
X38224819Y-26435714D02*
X38224819Y-25864286D01*
X38224819Y-26150000D02*
X37224819Y-26150000D01*
X37224819Y-26150000D02*
X37367676Y-26054762D01*
X37367676Y-26054762D02*
X37462914Y-25959524D01*
X37462914Y-25959524D02*
X37510533Y-25864286D01*
X41304819Y-30385833D02*
X40828628Y-30052500D01*
X41304819Y-29814405D02*
X40304819Y-29814405D01*
X40304819Y-29814405D02*
X40304819Y-30195357D01*
X40304819Y-30195357D02*
X40352438Y-30290595D01*
X40352438Y-30290595D02*
X40400057Y-30338214D01*
X40400057Y-30338214D02*
X40495295Y-30385833D01*
X40495295Y-30385833D02*
X40638152Y-30385833D01*
X40638152Y-30385833D02*
X40733390Y-30338214D01*
X40733390Y-30338214D02*
X40781009Y-30290595D01*
X40781009Y-30290595D02*
X40828628Y-30195357D01*
X40828628Y-30195357D02*
X40828628Y-29814405D01*
X40304819Y-30719167D02*
X40304819Y-31338214D01*
X40304819Y-31338214D02*
X40685771Y-31004881D01*
X40685771Y-31004881D02*
X40685771Y-31147738D01*
X40685771Y-31147738D02*
X40733390Y-31242976D01*
X40733390Y-31242976D02*
X40781009Y-31290595D01*
X40781009Y-31290595D02*
X40876247Y-31338214D01*
X40876247Y-31338214D02*
X41114342Y-31338214D01*
X41114342Y-31338214D02*
X41209580Y-31290595D01*
X41209580Y-31290595D02*
X41257200Y-31242976D01*
X41257200Y-31242976D02*
X41304819Y-31147738D01*
X41304819Y-31147738D02*
X41304819Y-30862024D01*
X41304819Y-30862024D02*
X41257200Y-30766786D01*
X41257200Y-30766786D02*
X41209580Y-30719167D01*
X53419580Y-27573333D02*
X53467200Y-27525714D01*
X53467200Y-27525714D02*
X53514819Y-27382857D01*
X53514819Y-27382857D02*
X53514819Y-27287619D01*
X53514819Y-27287619D02*
X53467200Y-27144762D01*
X53467200Y-27144762D02*
X53371961Y-27049524D01*
X53371961Y-27049524D02*
X53276723Y-27001905D01*
X53276723Y-27001905D02*
X53086247Y-26954286D01*
X53086247Y-26954286D02*
X52943390Y-26954286D01*
X52943390Y-26954286D02*
X52752914Y-27001905D01*
X52752914Y-27001905D02*
X52657676Y-27049524D01*
X52657676Y-27049524D02*
X52562438Y-27144762D01*
X52562438Y-27144762D02*
X52514819Y-27287619D01*
X52514819Y-27287619D02*
X52514819Y-27382857D01*
X52514819Y-27382857D02*
X52562438Y-27525714D01*
X52562438Y-27525714D02*
X52610057Y-27573333D01*
X52514819Y-27906667D02*
X52514819Y-28525714D01*
X52514819Y-28525714D02*
X52895771Y-28192381D01*
X52895771Y-28192381D02*
X52895771Y-28335238D01*
X52895771Y-28335238D02*
X52943390Y-28430476D01*
X52943390Y-28430476D02*
X52991009Y-28478095D01*
X52991009Y-28478095D02*
X53086247Y-28525714D01*
X53086247Y-28525714D02*
X53324342Y-28525714D01*
X53324342Y-28525714D02*
X53419580Y-28478095D01*
X53419580Y-28478095D02*
X53467200Y-28430476D01*
X53467200Y-28430476D02*
X53514819Y-28335238D01*
X53514819Y-28335238D02*
X53514819Y-28049524D01*
X53514819Y-28049524D02*
X53467200Y-27954286D01*
X53467200Y-27954286D02*
X53419580Y-27906667D01*
X39764819Y-25580833D02*
X39288628Y-25247500D01*
X39764819Y-25009405D02*
X38764819Y-25009405D01*
X38764819Y-25009405D02*
X38764819Y-25390357D01*
X38764819Y-25390357D02*
X38812438Y-25485595D01*
X38812438Y-25485595D02*
X38860057Y-25533214D01*
X38860057Y-25533214D02*
X38955295Y-25580833D01*
X38955295Y-25580833D02*
X39098152Y-25580833D01*
X39098152Y-25580833D02*
X39193390Y-25533214D01*
X39193390Y-25533214D02*
X39241009Y-25485595D01*
X39241009Y-25485595D02*
X39288628Y-25390357D01*
X39288628Y-25390357D02*
X39288628Y-25009405D01*
X38860057Y-25961786D02*
X38812438Y-26009405D01*
X38812438Y-26009405D02*
X38764819Y-26104643D01*
X38764819Y-26104643D02*
X38764819Y-26342738D01*
X38764819Y-26342738D02*
X38812438Y-26437976D01*
X38812438Y-26437976D02*
X38860057Y-26485595D01*
X38860057Y-26485595D02*
X38955295Y-26533214D01*
X38955295Y-26533214D02*
X39050533Y-26533214D01*
X39050533Y-26533214D02*
X39193390Y-26485595D01*
X39193390Y-26485595D02*
X39764819Y-25914167D01*
X39764819Y-25914167D02*
X39764819Y-26533214D01*
X54554580Y-27573333D02*
X54602200Y-27525714D01*
X54602200Y-27525714D02*
X54649819Y-27382857D01*
X54649819Y-27382857D02*
X54649819Y-27287619D01*
X54649819Y-27287619D02*
X54602200Y-27144762D01*
X54602200Y-27144762D02*
X54506961Y-27049524D01*
X54506961Y-27049524D02*
X54411723Y-27001905D01*
X54411723Y-27001905D02*
X54221247Y-26954286D01*
X54221247Y-26954286D02*
X54078390Y-26954286D01*
X54078390Y-26954286D02*
X53887914Y-27001905D01*
X53887914Y-27001905D02*
X53792676Y-27049524D01*
X53792676Y-27049524D02*
X53697438Y-27144762D01*
X53697438Y-27144762D02*
X53649819Y-27287619D01*
X53649819Y-27287619D02*
X53649819Y-27382857D01*
X53649819Y-27382857D02*
X53697438Y-27525714D01*
X53697438Y-27525714D02*
X53745057Y-27573333D01*
X53745057Y-27954286D02*
X53697438Y-28001905D01*
X53697438Y-28001905D02*
X53649819Y-28097143D01*
X53649819Y-28097143D02*
X53649819Y-28335238D01*
X53649819Y-28335238D02*
X53697438Y-28430476D01*
X53697438Y-28430476D02*
X53745057Y-28478095D01*
X53745057Y-28478095D02*
X53840295Y-28525714D01*
X53840295Y-28525714D02*
X53935533Y-28525714D01*
X53935533Y-28525714D02*
X54078390Y-28478095D01*
X54078390Y-28478095D02*
X54649819Y-27906667D01*
X54649819Y-27906667D02*
X54649819Y-28525714D01*
X44754819Y-7848095D02*
X45564342Y-7848095D01*
X45564342Y-7848095D02*
X45659580Y-7895714D01*
X45659580Y-7895714D02*
X45707200Y-7943333D01*
X45707200Y-7943333D02*
X45754819Y-8038571D01*
X45754819Y-8038571D02*
X45754819Y-8229047D01*
X45754819Y-8229047D02*
X45707200Y-8324285D01*
X45707200Y-8324285D02*
X45659580Y-8371904D01*
X45659580Y-8371904D02*
X45564342Y-8419523D01*
X45564342Y-8419523D02*
X44754819Y-8419523D01*
X44754819Y-8800476D02*
X44754819Y-9419523D01*
X44754819Y-9419523D02*
X45135771Y-9086190D01*
X45135771Y-9086190D02*
X45135771Y-9229047D01*
X45135771Y-9229047D02*
X45183390Y-9324285D01*
X45183390Y-9324285D02*
X45231009Y-9371904D01*
X45231009Y-9371904D02*
X45326247Y-9419523D01*
X45326247Y-9419523D02*
X45564342Y-9419523D01*
X45564342Y-9419523D02*
X45659580Y-9371904D01*
X45659580Y-9371904D02*
X45707200Y-9324285D01*
X45707200Y-9324285D02*
X45754819Y-9229047D01*
X45754819Y-9229047D02*
X45754819Y-8943333D01*
X45754819Y-8943333D02*
X45707200Y-8848095D01*
X45707200Y-8848095D02*
X45659580Y-8800476D01*
D11*
%TO.C,D4*%
X44950000Y-9850000D02*
X44950000Y-11210000D01*
X45750000Y-9850000D02*
X45750000Y-11210000D01*
X45750000Y-11210000D02*
X44950000Y-11210000D01*
%TO.C,C5*%
X49680000Y-28660580D02*
X49680000Y-28379420D01*
X50700000Y-28660580D02*
X50700000Y-28379420D01*
D12*
%TO.C,D74*%
X1700000Y-2700000D02*
X1700000Y-2500000D01*
X1700000Y-3700000D02*
X3900000Y-3700000D01*
X3900000Y-1500000D02*
X1700000Y-1500000D01*
X3900000Y-2700000D02*
X3900000Y-2500000D01*
D13*
X1299800Y-2627000D02*
G75*
G02*
X1099800Y-2627000I-100000J0D01*
G01*
X1099800Y-2627000D02*
G75*
G02*
X1299800Y-2627000I100000J0D01*
G01*
D12*
%TO.C,D88*%
X28700000Y-7000000D02*
X28700000Y-7200000D01*
X28700000Y-8200000D02*
X30900000Y-8200000D01*
X30900000Y-6000000D02*
X28700000Y-6000000D01*
X30900000Y-7000000D02*
X30900000Y-7200000D01*
D13*
X31500200Y-7073000D02*
G75*
G02*
X31300200Y-7073000I-100000J0D01*
G01*
X31300200Y-7073000D02*
G75*
G02*
X31500200Y-7073000I100000J0D01*
G01*
D12*
%TO.C,D76*%
X10700000Y-2700000D02*
X10700000Y-2500000D01*
X10700000Y-3700000D02*
X12900000Y-3700000D01*
X12900000Y-1500000D02*
X10700000Y-1500000D01*
X12900000Y-2700000D02*
X12900000Y-2500000D01*
D13*
X10299800Y-2627000D02*
G75*
G02*
X10099800Y-2627000I-100000J0D01*
G01*
X10099800Y-2627000D02*
G75*
G02*
X10299800Y-2627000I100000J0D01*
G01*
D12*
%TO.C,D134*%
X19700000Y-34000000D02*
X19700000Y-34200000D01*
X19700000Y-35200000D02*
X21900000Y-35200000D01*
X21900000Y-33000000D02*
X19700000Y-33000000D01*
X21900000Y-34000000D02*
X21900000Y-34200000D01*
D13*
X22500200Y-34073000D02*
G75*
G02*
X22300200Y-34073000I-100000J0D01*
G01*
X22300200Y-34073000D02*
G75*
G02*
X22500200Y-34073000I100000J0D01*
G01*
D11*
%TO.C,SW1*%
X45650000Y-11950000D02*
X48950000Y-11950000D01*
X45650000Y-12250000D02*
X45650000Y-11950000D01*
X45650000Y-14450000D02*
X45650000Y-14750000D01*
X45650000Y-14750000D02*
X48950000Y-14750000D01*
X48950000Y-11950000D02*
X48950000Y-12250000D01*
X48950000Y-14750000D02*
X48950000Y-14450000D01*
D12*
%TO.C,D100*%
X10700000Y-16000000D02*
X10700000Y-16200000D01*
X10700000Y-17200000D02*
X12900000Y-17200000D01*
X12900000Y-15000000D02*
X10700000Y-15000000D01*
X12900000Y-16000000D02*
X12900000Y-16200000D01*
D13*
X13500200Y-16073000D02*
G75*
G02*
X13300200Y-16073000I-100000J0D01*
G01*
X13300200Y-16073000D02*
G75*
G02*
X13500200Y-16073000I100000J0D01*
G01*
D12*
%TO.C,D123*%
X6200000Y-29700000D02*
X6200000Y-29500000D01*
X6200000Y-30700000D02*
X8400000Y-30700000D01*
X8400000Y-28500000D02*
X6200000Y-28500000D01*
X8400000Y-29700000D02*
X8400000Y-29500000D01*
D13*
X5799800Y-29627000D02*
G75*
G02*
X5599800Y-29627000I-100000J0D01*
G01*
X5599800Y-29627000D02*
G75*
G02*
X5799800Y-29627000I100000J0D01*
G01*
D12*
%TO.C,D92*%
X10700000Y-11700000D02*
X10700000Y-11500000D01*
X10700000Y-12700000D02*
X12900000Y-12700000D01*
X12900000Y-10500000D02*
X10700000Y-10500000D01*
X12900000Y-11700000D02*
X12900000Y-11500000D01*
D13*
X10299800Y-11627000D02*
G75*
G02*
X10099800Y-11627000I-100000J0D01*
G01*
X10099800Y-11627000D02*
G75*
G02*
X10299800Y-11627000I100000J0D01*
G01*
D12*
%TO.C,D105*%
X33200000Y-16000000D02*
X33200000Y-16200000D01*
X33200000Y-17200000D02*
X35400000Y-17200000D01*
X35400000Y-15000000D02*
X33200000Y-15000000D01*
X35400000Y-16000000D02*
X35400000Y-16200000D01*
D13*
X36000200Y-16073000D02*
G75*
G02*
X35800200Y-16073000I-100000J0D01*
G01*
X35800200Y-16073000D02*
G75*
G02*
X36000200Y-16073000I100000J0D01*
G01*
D12*
%TO.C,D78*%
X19700000Y-2700000D02*
X19700000Y-2500000D01*
X19700000Y-3700000D02*
X21900000Y-3700000D01*
X21900000Y-1500000D02*
X19700000Y-1500000D01*
X21900000Y-2700000D02*
X21900000Y-2500000D01*
D13*
X19299800Y-2627000D02*
G75*
G02*
X19099800Y-2627000I-100000J0D01*
G01*
X19099800Y-2627000D02*
G75*
G02*
X19299800Y-2627000I100000J0D01*
G01*
D11*
%TO.C,U2*%
X45040000Y-6040000D02*
X45040000Y-7860000D01*
X45040000Y-7860000D02*
X45090000Y-7860000D01*
X45090000Y-6040000D02*
X45040000Y-6040000D01*
X48110000Y-7860000D02*
X48160000Y-7860000D01*
X48160000Y-6040000D02*
X48110000Y-6040000D01*
X48160000Y-7860000D02*
X48160000Y-6040000D01*
X48440000Y-8640000D02*
X48110000Y-8400000D01*
X48440000Y-8160000D01*
X48440000Y-8640000D01*
G36*
X48440000Y-8640000D02*
G01*
X48110000Y-8400000D01*
X48440000Y-8160000D01*
X48440000Y-8640000D01*
G37*
D12*
%TO.C,D89*%
X33200000Y-7000000D02*
X33200000Y-7200000D01*
X33200000Y-8200000D02*
X35400000Y-8200000D01*
X35400000Y-6000000D02*
X33200000Y-6000000D01*
X35400000Y-7000000D02*
X35400000Y-7200000D01*
D13*
X36000200Y-7073000D02*
G75*
G02*
X35800200Y-7073000I-100000J0D01*
G01*
X35800200Y-7073000D02*
G75*
G02*
X36000200Y-7073000I100000J0D01*
G01*
D12*
%TO.C,D129*%
X33200000Y-29700000D02*
X33200000Y-29500000D01*
X33200000Y-30700000D02*
X35400000Y-30700000D01*
X35400000Y-28500000D02*
X33200000Y-28500000D01*
X35400000Y-29700000D02*
X35400000Y-29500000D01*
D13*
X32799800Y-29627000D02*
G75*
G02*
X32599800Y-29627000I-100000J0D01*
G01*
X32599800Y-29627000D02*
G75*
G02*
X32799800Y-29627000I100000J0D01*
G01*
D12*
%TO.C,D96*%
X28700000Y-11700000D02*
X28700000Y-11500000D01*
X28700000Y-12700000D02*
X30900000Y-12700000D01*
X30900000Y-10500000D02*
X28700000Y-10500000D01*
X30900000Y-11700000D02*
X30900000Y-11500000D01*
D13*
X28299800Y-11627000D02*
G75*
G02*
X28099800Y-11627000I-100000J0D01*
G01*
X28099800Y-11627000D02*
G75*
G02*
X28299800Y-11627000I100000J0D01*
G01*
D12*
%TO.C,D95*%
X24200000Y-11700000D02*
X24200000Y-11500000D01*
X24200000Y-12700000D02*
X26400000Y-12700000D01*
X26400000Y-10500000D02*
X24200000Y-10500000D01*
X26400000Y-11700000D02*
X26400000Y-11500000D01*
D13*
X23799800Y-11627000D02*
G75*
G02*
X23599800Y-11627000I-100000J0D01*
G01*
X23599800Y-11627000D02*
G75*
G02*
X23799800Y-11627000I100000J0D01*
G01*
D11*
%TO.C,J4*%
X54325000Y-16250000D02*
X52625000Y-16250000D01*
X54325000Y-25590000D02*
X52625000Y-25590000D01*
%TO.C,R1*%
X37390000Y-28317621D02*
X37390000Y-27982379D01*
X38150000Y-28317621D02*
X38150000Y-27982379D01*
D12*
%TO.C,D103*%
X24200000Y-16000000D02*
X24200000Y-16200000D01*
X24200000Y-17200000D02*
X26400000Y-17200000D01*
X26400000Y-15000000D02*
X24200000Y-15000000D01*
X26400000Y-16000000D02*
X26400000Y-16200000D01*
D13*
X27000200Y-16073000D02*
G75*
G02*
X26800200Y-16073000I-100000J0D01*
G01*
X26800200Y-16073000D02*
G75*
G02*
X27000200Y-16073000I100000J0D01*
G01*
D11*
%TO.C,R3*%
X40470000Y-28317621D02*
X40470000Y-27982379D01*
X41230000Y-28317621D02*
X41230000Y-27982379D01*
D12*
%TO.C,D114*%
X1700000Y-25000000D02*
X1700000Y-25200000D01*
X1700000Y-26200000D02*
X3900000Y-26200000D01*
X3900000Y-24000000D02*
X1700000Y-24000000D01*
X3900000Y-25000000D02*
X3900000Y-25200000D01*
D13*
X4500200Y-25073000D02*
G75*
G02*
X4300200Y-25073000I-100000J0D01*
G01*
X4300200Y-25073000D02*
G75*
G02*
X4500200Y-25073000I100000J0D01*
G01*
D12*
%TO.C,D109*%
X15200000Y-20700000D02*
X15200000Y-20500000D01*
X15200000Y-21700000D02*
X17400000Y-21700000D01*
X17400000Y-19500000D02*
X15200000Y-19500000D01*
X17400000Y-20700000D02*
X17400000Y-20500000D01*
D13*
X14799800Y-20627000D02*
G75*
G02*
X14599800Y-20627000I-100000J0D01*
G01*
X14599800Y-20627000D02*
G75*
G02*
X14799800Y-20627000I100000J0D01*
G01*
D12*
%TO.C,D81*%
X33200000Y-2700000D02*
X33200000Y-2500000D01*
X33200000Y-3700000D02*
X35400000Y-3700000D01*
X35400000Y-1500000D02*
X33200000Y-1500000D01*
X35400000Y-2700000D02*
X35400000Y-2500000D01*
D13*
X32799800Y-2627000D02*
G75*
G02*
X32599800Y-2627000I-100000J0D01*
G01*
X32599800Y-2627000D02*
G75*
G02*
X32799800Y-2627000I100000J0D01*
G01*
D12*
%TO.C,D98*%
X1700000Y-16000000D02*
X1700000Y-16200000D01*
X1700000Y-17200000D02*
X3900000Y-17200000D01*
X3900000Y-15000000D02*
X1700000Y-15000000D01*
X3900000Y-16000000D02*
X3900000Y-16200000D01*
D13*
X4500200Y-16073000D02*
G75*
G02*
X4300200Y-16073000I-100000J0D01*
G01*
X4300200Y-16073000D02*
G75*
G02*
X4500200Y-16073000I100000J0D01*
G01*
D12*
%TO.C,D126*%
X19700000Y-29700000D02*
X19700000Y-29500000D01*
X19700000Y-30700000D02*
X21900000Y-30700000D01*
X21900000Y-28500000D02*
X19700000Y-28500000D01*
X21900000Y-29700000D02*
X21900000Y-29500000D01*
D13*
X19299800Y-29627000D02*
G75*
G02*
X19099800Y-29627000I-100000J0D01*
G01*
X19099800Y-29627000D02*
G75*
G02*
X19299800Y-29627000I100000J0D01*
G01*
D12*
%TO.C,D93*%
X15200000Y-11700000D02*
X15200000Y-11500000D01*
X15200000Y-12700000D02*
X17400000Y-12700000D01*
X17400000Y-10500000D02*
X15200000Y-10500000D01*
X17400000Y-11700000D02*
X17400000Y-11500000D01*
D13*
X14799800Y-11627000D02*
G75*
G02*
X14599800Y-11627000I-100000J0D01*
G01*
X14599800Y-11627000D02*
G75*
G02*
X14799800Y-11627000I100000J0D01*
G01*
D12*
%TO.C,D107*%
X6200000Y-20700000D02*
X6200000Y-20500000D01*
X6200000Y-21700000D02*
X8400000Y-21700000D01*
X8400000Y-19500000D02*
X6200000Y-19500000D01*
X8400000Y-20700000D02*
X8400000Y-20500000D01*
D13*
X5799800Y-20627000D02*
G75*
G02*
X5599800Y-20627000I-100000J0D01*
G01*
X5599800Y-20627000D02*
G75*
G02*
X5799800Y-20627000I100000J0D01*
G01*
D11*
%TO.C,C4*%
X47620000Y-28660580D02*
X47620000Y-28379420D01*
X48640000Y-28660580D02*
X48640000Y-28379420D01*
D12*
%TO.C,D75*%
X6200000Y-2700000D02*
X6200000Y-2500000D01*
X6200000Y-3700000D02*
X8400000Y-3700000D01*
X8400000Y-1500000D02*
X6200000Y-1500000D01*
X8400000Y-2700000D02*
X8400000Y-2500000D01*
D13*
X5799800Y-2627000D02*
G75*
G02*
X5599800Y-2627000I-100000J0D01*
G01*
X5599800Y-2627000D02*
G75*
G02*
X5799800Y-2627000I100000J0D01*
G01*
D12*
%TO.C,D136*%
X28700000Y-34000000D02*
X28700000Y-34200000D01*
X28700000Y-35200000D02*
X30900000Y-35200000D01*
X30900000Y-33000000D02*
X28700000Y-33000000D01*
X30900000Y-34000000D02*
X30900000Y-34200000D01*
D13*
X31500200Y-34073000D02*
G75*
G02*
X31300200Y-34073000I-100000J0D01*
G01*
X31300200Y-34073000D02*
G75*
G02*
X31500200Y-34073000I100000J0D01*
G01*
D12*
%TO.C,D117*%
X15200000Y-25000000D02*
X15200000Y-25200000D01*
X15200000Y-26200000D02*
X17400000Y-26200000D01*
X17400000Y-24000000D02*
X15200000Y-24000000D01*
X17400000Y-25000000D02*
X17400000Y-25200000D01*
D13*
X18000200Y-25073000D02*
G75*
G02*
X17800200Y-25073000I-100000J0D01*
G01*
X17800200Y-25073000D02*
G75*
G02*
X18000200Y-25073000I100000J0D01*
G01*
D12*
%TO.C,D97*%
X33200000Y-11700000D02*
X33200000Y-11500000D01*
X33200000Y-12700000D02*
X35400000Y-12700000D01*
X35400000Y-10500000D02*
X33200000Y-10500000D01*
X35400000Y-11700000D02*
X35400000Y-11500000D01*
D13*
X32799800Y-11627000D02*
G75*
G02*
X32599800Y-11627000I-100000J0D01*
G01*
X32599800Y-11627000D02*
G75*
G02*
X32799800Y-11627000I100000J0D01*
G01*
D12*
%TO.C,D108*%
X10700000Y-20700000D02*
X10700000Y-20500000D01*
X10700000Y-21700000D02*
X12900000Y-21700000D01*
X12900000Y-19500000D02*
X10700000Y-19500000D01*
X12900000Y-20700000D02*
X12900000Y-20500000D01*
D13*
X10299800Y-20627000D02*
G75*
G02*
X10099800Y-20627000I-100000J0D01*
G01*
X10099800Y-20627000D02*
G75*
G02*
X10299800Y-20627000I100000J0D01*
G01*
D12*
%TO.C,D122*%
X1700000Y-29700000D02*
X1700000Y-29500000D01*
X1700000Y-30700000D02*
X3900000Y-30700000D01*
X3900000Y-28500000D02*
X1700000Y-28500000D01*
X3900000Y-29700000D02*
X3900000Y-29500000D01*
D13*
X1299800Y-29627000D02*
G75*
G02*
X1099800Y-29627000I-100000J0D01*
G01*
X1099800Y-29627000D02*
G75*
G02*
X1299800Y-29627000I100000J0D01*
G01*
D12*
%TO.C,D116*%
X10700000Y-25000000D02*
X10700000Y-25200000D01*
X10700000Y-26200000D02*
X12900000Y-26200000D01*
X12900000Y-24000000D02*
X10700000Y-24000000D01*
X12900000Y-25000000D02*
X12900000Y-25200000D01*
D13*
X13500200Y-25073000D02*
G75*
G02*
X13300200Y-25073000I-100000J0D01*
G01*
X13300200Y-25073000D02*
G75*
G02*
X13500200Y-25073000I100000J0D01*
G01*
D12*
%TO.C,D101*%
X15200000Y-16000000D02*
X15200000Y-16200000D01*
X15200000Y-17200000D02*
X17400000Y-17200000D01*
X17400000Y-15000000D02*
X15200000Y-15000000D01*
X17400000Y-16000000D02*
X17400000Y-16200000D01*
D13*
X18000200Y-16073000D02*
G75*
G02*
X17800200Y-16073000I-100000J0D01*
G01*
X17800200Y-16073000D02*
G75*
G02*
X18000200Y-16073000I100000J0D01*
G01*
D11*
%TO.C,R7*%
X42010000Y-28317621D02*
X42010000Y-27982379D01*
X42770000Y-28317621D02*
X42770000Y-27982379D01*
D12*
%TO.C,D130*%
X1700000Y-34000000D02*
X1700000Y-34200000D01*
X1700000Y-35200000D02*
X3900000Y-35200000D01*
X3900000Y-33000000D02*
X1700000Y-33000000D01*
X3900000Y-34000000D02*
X3900000Y-34200000D01*
D13*
X4500200Y-34073000D02*
G75*
G02*
X4300200Y-34073000I-100000J0D01*
G01*
X4300200Y-34073000D02*
G75*
G02*
X4500200Y-34073000I100000J0D01*
G01*
D12*
%TO.C,D115*%
X6200000Y-25000000D02*
X6200000Y-25200000D01*
X6200000Y-26200000D02*
X8400000Y-26200000D01*
X8400000Y-24000000D02*
X6200000Y-24000000D01*
X8400000Y-25000000D02*
X8400000Y-25200000D01*
D13*
X9000200Y-25073000D02*
G75*
G02*
X8800200Y-25073000I-100000J0D01*
G01*
X8800200Y-25073000D02*
G75*
G02*
X9000200Y-25073000I100000J0D01*
G01*
D12*
%TO.C,D121*%
X33200000Y-25000000D02*
X33200000Y-25200000D01*
X33200000Y-26200000D02*
X35400000Y-26200000D01*
X35400000Y-24000000D02*
X33200000Y-24000000D01*
X35400000Y-25000000D02*
X35400000Y-25200000D01*
D13*
X36000200Y-25073000D02*
G75*
G02*
X35800200Y-25073000I-100000J0D01*
G01*
X35800200Y-25073000D02*
G75*
G02*
X36000200Y-25073000I100000J0D01*
G01*
D12*
%TO.C,D128*%
X28700000Y-29700000D02*
X28700000Y-29500000D01*
X28700000Y-30700000D02*
X30900000Y-30700000D01*
X30900000Y-28500000D02*
X28700000Y-28500000D01*
X30900000Y-29700000D02*
X30900000Y-29500000D01*
D13*
X28299800Y-29627000D02*
G75*
G02*
X28099800Y-29627000I-100000J0D01*
G01*
X28099800Y-29627000D02*
G75*
G02*
X28299800Y-29627000I100000J0D01*
G01*
D12*
%TO.C,D102*%
X19700000Y-16000000D02*
X19700000Y-16200000D01*
X19700000Y-17200000D02*
X21900000Y-17200000D01*
X21900000Y-15000000D02*
X19700000Y-15000000D01*
X21900000Y-16000000D02*
X21900000Y-16200000D01*
D13*
X22500200Y-16073000D02*
G75*
G02*
X22300200Y-16073000I-100000J0D01*
G01*
X22300200Y-16073000D02*
G75*
G02*
X22500200Y-16073000I100000J0D01*
G01*
D12*
%TO.C,D91*%
X6200000Y-11700000D02*
X6200000Y-11500000D01*
X6200000Y-12700000D02*
X8400000Y-12700000D01*
X8400000Y-10500000D02*
X6200000Y-10500000D01*
X8400000Y-11700000D02*
X8400000Y-11500000D01*
D13*
X5799800Y-11627000D02*
G75*
G02*
X5599800Y-11627000I-100000J0D01*
G01*
X5599800Y-11627000D02*
G75*
G02*
X5799800Y-11627000I100000J0D01*
G01*
D11*
%TO.C,C3*%
X54325000Y-29001252D02*
X54325000Y-28478748D01*
X55795000Y-29001252D02*
X55795000Y-28478748D01*
D12*
%TO.C,D131*%
X6200000Y-34000000D02*
X6200000Y-34200000D01*
X6200000Y-35200000D02*
X8400000Y-35200000D01*
X8400000Y-33000000D02*
X6200000Y-33000000D01*
X8400000Y-34000000D02*
X8400000Y-34200000D01*
D13*
X9000200Y-34073000D02*
G75*
G02*
X8800200Y-34073000I-100000J0D01*
G01*
X8800200Y-34073000D02*
G75*
G02*
X9000200Y-34073000I100000J0D01*
G01*
D12*
%TO.C,D90*%
X1700000Y-11700000D02*
X1700000Y-11500000D01*
X1700000Y-12700000D02*
X3900000Y-12700000D01*
X3900000Y-10500000D02*
X1700000Y-10500000D01*
X3900000Y-11700000D02*
X3900000Y-11500000D01*
D13*
X1299800Y-11627000D02*
G75*
G02*
X1099800Y-11627000I-100000J0D01*
G01*
X1099800Y-11627000D02*
G75*
G02*
X1299800Y-11627000I100000J0D01*
G01*
D12*
%TO.C,D110*%
X19700000Y-20700000D02*
X19700000Y-20500000D01*
X19700000Y-21700000D02*
X21900000Y-21700000D01*
X21900000Y-19500000D02*
X19700000Y-19500000D01*
X21900000Y-20700000D02*
X21900000Y-20500000D01*
D13*
X19299800Y-20627000D02*
G75*
G02*
X19099800Y-20627000I-100000J0D01*
G01*
X19099800Y-20627000D02*
G75*
G02*
X19299800Y-20627000I100000J0D01*
G01*
D12*
%TO.C,D104*%
X28700000Y-16000000D02*
X28700000Y-16200000D01*
X28700000Y-17200000D02*
X30900000Y-17200000D01*
X30900000Y-15000000D02*
X28700000Y-15000000D01*
X30900000Y-16000000D02*
X30900000Y-16200000D01*
D13*
X31500200Y-16073000D02*
G75*
G02*
X31300200Y-16073000I-100000J0D01*
G01*
X31300200Y-16073000D02*
G75*
G02*
X31500200Y-16073000I100000J0D01*
G01*
D12*
%TO.C,D119*%
X24200000Y-25000000D02*
X24200000Y-25200000D01*
X24200000Y-26200000D02*
X26400000Y-26200000D01*
X26400000Y-24000000D02*
X24200000Y-24000000D01*
X26400000Y-25000000D02*
X26400000Y-25200000D01*
D13*
X27000200Y-25073000D02*
G75*
G02*
X26800200Y-25073000I-100000J0D01*
G01*
X26800200Y-25073000D02*
G75*
G02*
X27000200Y-25073000I100000J0D01*
G01*
D12*
%TO.C,D124*%
X10700000Y-29700000D02*
X10700000Y-29500000D01*
X10700000Y-30700000D02*
X12900000Y-30700000D01*
X12900000Y-28500000D02*
X10700000Y-28500000D01*
X12900000Y-29700000D02*
X12900000Y-29500000D01*
D13*
X10299800Y-29627000D02*
G75*
G02*
X10099800Y-29627000I-100000J0D01*
G01*
X10099800Y-29627000D02*
G75*
G02*
X10299800Y-29627000I100000J0D01*
G01*
D11*
%TO.C,R2*%
X38930000Y-28317621D02*
X38930000Y-27982379D01*
X39690000Y-28317621D02*
X39690000Y-27982379D01*
D12*
%TO.C,D113*%
X33200000Y-20700000D02*
X33200000Y-20500000D01*
X33200000Y-21700000D02*
X35400000Y-21700000D01*
X35400000Y-19500000D02*
X33200000Y-19500000D01*
X35400000Y-20700000D02*
X35400000Y-20500000D01*
D13*
X32799800Y-20627000D02*
G75*
G02*
X32599800Y-20627000I-100000J0D01*
G01*
X32599800Y-20627000D02*
G75*
G02*
X32799800Y-20627000I100000J0D01*
G01*
D12*
%TO.C,D133*%
X15200000Y-34000000D02*
X15200000Y-34200000D01*
X15200000Y-35200000D02*
X17400000Y-35200000D01*
X17400000Y-33000000D02*
X15200000Y-33000000D01*
X17400000Y-34000000D02*
X17400000Y-34200000D01*
D13*
X18000200Y-34073000D02*
G75*
G02*
X17800200Y-34073000I-100000J0D01*
G01*
X17800200Y-34073000D02*
G75*
G02*
X18000200Y-34073000I100000J0D01*
G01*
D12*
%TO.C,D86*%
X19700000Y-7000000D02*
X19700000Y-7200000D01*
X19700000Y-8200000D02*
X21900000Y-8200000D01*
X21900000Y-6000000D02*
X19700000Y-6000000D01*
X21900000Y-7000000D02*
X21900000Y-7200000D01*
D13*
X22500200Y-7073000D02*
G75*
G02*
X22300200Y-7073000I-100000J0D01*
G01*
X22300200Y-7073000D02*
G75*
G02*
X22500200Y-7073000I100000J0D01*
G01*
D12*
%TO.C,D111*%
X24200000Y-20700000D02*
X24200000Y-20500000D01*
X24200000Y-21700000D02*
X26400000Y-21700000D01*
X26400000Y-19500000D02*
X24200000Y-19500000D01*
X26400000Y-20700000D02*
X26400000Y-20500000D01*
D13*
X23799800Y-20627000D02*
G75*
G02*
X23599800Y-20627000I-100000J0D01*
G01*
X23599800Y-20627000D02*
G75*
G02*
X23799800Y-20627000I100000J0D01*
G01*
D12*
%TO.C,D83*%
X6200000Y-7000000D02*
X6200000Y-7200000D01*
X6200000Y-8200000D02*
X8400000Y-8200000D01*
X8400000Y-6000000D02*
X6200000Y-6000000D01*
X8400000Y-7000000D02*
X8400000Y-7200000D01*
D13*
X9000200Y-7073000D02*
G75*
G02*
X8800200Y-7073000I-100000J0D01*
G01*
X8800200Y-7073000D02*
G75*
G02*
X9000200Y-7073000I100000J0D01*
G01*
D12*
%TO.C,D135*%
X24200000Y-34000000D02*
X24200000Y-34200000D01*
X24200000Y-35200000D02*
X26400000Y-35200000D01*
X26400000Y-33000000D02*
X24200000Y-33000000D01*
X26400000Y-34000000D02*
X26400000Y-34200000D01*
D13*
X27000200Y-34073000D02*
G75*
G02*
X26800200Y-34073000I-100000J0D01*
G01*
X26800200Y-34073000D02*
G75*
G02*
X27000200Y-34073000I100000J0D01*
G01*
D12*
%TO.C,D106*%
X1700000Y-20700000D02*
X1700000Y-20500000D01*
X1700000Y-21700000D02*
X3900000Y-21700000D01*
X3900000Y-19500000D02*
X1700000Y-19500000D01*
X3900000Y-20700000D02*
X3900000Y-20500000D01*
D13*
X1299800Y-20627000D02*
G75*
G02*
X1099800Y-20627000I-100000J0D01*
G01*
X1099800Y-20627000D02*
G75*
G02*
X1299800Y-20627000I100000J0D01*
G01*
D12*
%TO.C,D112*%
X28700000Y-20700000D02*
X28700000Y-20500000D01*
X28700000Y-21700000D02*
X30900000Y-21700000D01*
X30900000Y-19500000D02*
X28700000Y-19500000D01*
X30900000Y-20700000D02*
X30900000Y-20500000D01*
D13*
X28299800Y-20627000D02*
G75*
G02*
X28099800Y-20627000I-100000J0D01*
G01*
X28099800Y-20627000D02*
G75*
G02*
X28299800Y-20627000I100000J0D01*
G01*
D11*
%TO.C,R8*%
X43550000Y-28317621D02*
X43550000Y-27982379D01*
X44310000Y-28317621D02*
X44310000Y-27982379D01*
D12*
%TO.C,D118*%
X19700000Y-25000000D02*
X19700000Y-25200000D01*
X19700000Y-26200000D02*
X21900000Y-26200000D01*
X21900000Y-24000000D02*
X19700000Y-24000000D01*
X21900000Y-25000000D02*
X21900000Y-25200000D01*
D13*
X22500200Y-25073000D02*
G75*
G02*
X22300200Y-25073000I-100000J0D01*
G01*
X22300200Y-25073000D02*
G75*
G02*
X22500200Y-25073000I100000J0D01*
G01*
D14*
%TO.C,J2*%
X40910000Y-33970000D02*
X41710000Y-33970000D01*
X40910000Y-37470000D02*
X40910000Y-33970000D01*
X41710000Y-33970000D02*
X41710000Y-36470000D01*
X41710000Y-36470000D02*
X42910000Y-36470000D01*
X50910000Y-36470000D02*
X52110000Y-36470000D01*
X50910000Y-41470000D02*
X42910000Y-41470000D01*
X52110000Y-33970000D02*
X52910000Y-33970000D01*
X52110000Y-36470000D02*
X52110000Y-33970000D01*
X52910000Y-33970000D02*
X52910000Y-37470000D01*
D11*
%TO.C,C2*%
X51765000Y-29001252D02*
X51765000Y-28478748D01*
X53235000Y-29001252D02*
X53235000Y-28478748D01*
D12*
%TO.C,D99*%
X6200000Y-16000000D02*
X6200000Y-16200000D01*
X6200000Y-17200000D02*
X8400000Y-17200000D01*
X8400000Y-15000000D02*
X6200000Y-15000000D01*
X8400000Y-16000000D02*
X8400000Y-16200000D01*
D13*
X9000200Y-16073000D02*
G75*
G02*
X8800200Y-16073000I-100000J0D01*
G01*
X8800200Y-16073000D02*
G75*
G02*
X9000200Y-16073000I100000J0D01*
G01*
D12*
%TO.C,D84*%
X10700000Y-7000000D02*
X10700000Y-7200000D01*
X10700000Y-8200000D02*
X12900000Y-8200000D01*
X12900000Y-6000000D02*
X10700000Y-6000000D01*
X12900000Y-7000000D02*
X12900000Y-7200000D01*
D13*
X13500200Y-7073000D02*
G75*
G02*
X13300200Y-7073000I-100000J0D01*
G01*
X13300200Y-7073000D02*
G75*
G02*
X13500200Y-7073000I100000J0D01*
G01*
D12*
%TO.C,D82*%
X1700000Y-7000000D02*
X1700000Y-7200000D01*
X1700000Y-8200000D02*
X3900000Y-8200000D01*
X3900000Y-6000000D02*
X1700000Y-6000000D01*
X3900000Y-7000000D02*
X3900000Y-7200000D01*
D13*
X4500200Y-7073000D02*
G75*
G02*
X4300200Y-7073000I-100000J0D01*
G01*
X4300200Y-7073000D02*
G75*
G02*
X4500200Y-7073000I100000J0D01*
G01*
D12*
%TO.C,D127*%
X24200000Y-29700000D02*
X24200000Y-29500000D01*
X24200000Y-30700000D02*
X26400000Y-30700000D01*
X26400000Y-28500000D02*
X24200000Y-28500000D01*
X26400000Y-29700000D02*
X26400000Y-29500000D01*
D13*
X23799800Y-29627000D02*
G75*
G02*
X23599800Y-29627000I-100000J0D01*
G01*
X23599800Y-29627000D02*
G75*
G02*
X23799800Y-29627000I100000J0D01*
G01*
D12*
%TO.C,D87*%
X24200000Y-7000000D02*
X24200000Y-7200000D01*
X24200000Y-8200000D02*
X26400000Y-8200000D01*
X26400000Y-6000000D02*
X24200000Y-6000000D01*
X26400000Y-7000000D02*
X26400000Y-7200000D01*
D13*
X27000200Y-7073000D02*
G75*
G02*
X26800200Y-7073000I-100000J0D01*
G01*
X26800200Y-7073000D02*
G75*
G02*
X27000200Y-7073000I100000J0D01*
G01*
D12*
%TO.C,D80*%
X28700000Y-2700000D02*
X28700000Y-2500000D01*
X28700000Y-3700000D02*
X30900000Y-3700000D01*
X30900000Y-1500000D02*
X28700000Y-1500000D01*
X30900000Y-2700000D02*
X30900000Y-2500000D01*
D13*
X28299800Y-2627000D02*
G75*
G02*
X28099800Y-2627000I-100000J0D01*
G01*
X28099800Y-2627000D02*
G75*
G02*
X28299800Y-2627000I100000J0D01*
G01*
D12*
%TO.C,D79*%
X24200000Y-2700000D02*
X24200000Y-2500000D01*
X24200000Y-3700000D02*
X26400000Y-3700000D01*
X26400000Y-1500000D02*
X24200000Y-1500000D01*
X26400000Y-2700000D02*
X26400000Y-2500000D01*
D13*
X23799800Y-2627000D02*
G75*
G02*
X23599800Y-2627000I-100000J0D01*
G01*
X23599800Y-2627000D02*
G75*
G02*
X23799800Y-2627000I100000J0D01*
G01*
D12*
%TO.C,D94*%
X19700000Y-11700000D02*
X19700000Y-11500000D01*
X19700000Y-12700000D02*
X21900000Y-12700000D01*
X21900000Y-10500000D02*
X19700000Y-10500000D01*
X21900000Y-11700000D02*
X21900000Y-11500000D01*
D13*
X19299800Y-11627000D02*
G75*
G02*
X19099800Y-11627000I-100000J0D01*
G01*
X19099800Y-11627000D02*
G75*
G02*
X19299800Y-11627000I100000J0D01*
G01*
D12*
%TO.C,D132*%
X10700000Y-34000000D02*
X10700000Y-34200000D01*
X10700000Y-35200000D02*
X12900000Y-35200000D01*
X12900000Y-33000000D02*
X10700000Y-33000000D01*
X12900000Y-34000000D02*
X12900000Y-34200000D01*
D13*
X13500200Y-34073000D02*
G75*
G02*
X13300200Y-34073000I-100000J0D01*
G01*
X13300200Y-34073000D02*
G75*
G02*
X13500200Y-34073000I100000J0D01*
G01*
D11*
%TO.C,U3*%
X37350000Y-5500000D02*
X37350000Y-11920000D01*
X37350000Y-11920000D02*
X37620000Y-11920000D01*
X44250000Y-5500000D02*
X44250000Y-11920000D01*
X44250000Y-11920000D02*
X43980000Y-11920000D01*
X44410000Y-13990000D02*
X43940000Y-13650000D01*
X44410000Y-13310000D01*
X44410000Y-13990000D01*
G36*
X44410000Y-13990000D02*
G01*
X43940000Y-13650000D01*
X44410000Y-13310000D01*
X44410000Y-13990000D01*
G37*
D12*
%TO.C,D77*%
X15200000Y-2700000D02*
X15200000Y-2500000D01*
X15200000Y-3700000D02*
X17400000Y-3700000D01*
X17400000Y-1500000D02*
X15200000Y-1500000D01*
X17400000Y-2700000D02*
X17400000Y-2500000D01*
D13*
X14799800Y-2627000D02*
G75*
G02*
X14599800Y-2627000I-100000J0D01*
G01*
X14599800Y-2627000D02*
G75*
G02*
X14799800Y-2627000I100000J0D01*
G01*
D12*
%TO.C,D125*%
X15200000Y-29700000D02*
X15200000Y-29500000D01*
X15200000Y-30700000D02*
X17400000Y-30700000D01*
X17400000Y-28500000D02*
X15200000Y-28500000D01*
X17400000Y-29700000D02*
X17400000Y-29500000D01*
D13*
X14799800Y-29627000D02*
G75*
G02*
X14599800Y-29627000I-100000J0D01*
G01*
X14599800Y-29627000D02*
G75*
G02*
X14799800Y-29627000I100000J0D01*
G01*
D12*
%TO.C,D85*%
X15200000Y-7000000D02*
X15200000Y-7200000D01*
X15200000Y-8200000D02*
X17400000Y-8200000D01*
X17400000Y-6000000D02*
X15200000Y-6000000D01*
X17400000Y-7000000D02*
X17400000Y-7200000D01*
D13*
X18000200Y-7073000D02*
G75*
G02*
X17800200Y-7073000I-100000J0D01*
G01*
X17800200Y-7073000D02*
G75*
G02*
X18000200Y-7073000I100000J0D01*
G01*
D12*
%TO.C,D137*%
X33200000Y-34000000D02*
X33200000Y-34200000D01*
X33200000Y-35200000D02*
X35400000Y-35200000D01*
X35400000Y-33000000D02*
X33200000Y-33000000D01*
X35400000Y-34000000D02*
X35400000Y-34200000D01*
D13*
X36000200Y-34073000D02*
G75*
G02*
X35800200Y-34073000I-100000J0D01*
G01*
X35800200Y-34073000D02*
G75*
G02*
X36000200Y-34073000I100000J0D01*
G01*
D12*
%TO.C,D120*%
X28700000Y-25000000D02*
X28700000Y-25200000D01*
X28700000Y-26200000D02*
X30900000Y-26200000D01*
X30900000Y-24000000D02*
X28700000Y-24000000D01*
X30900000Y-25000000D02*
X30900000Y-25200000D01*
D13*
X31500200Y-25073000D02*
G75*
G02*
X31300200Y-25073000I-100000J0D01*
G01*
X31300200Y-25073000D02*
G75*
G02*
X31500200Y-25073000I100000J0D01*
G01*
%TD*%
M02*
