%TF.GenerationSoftware,KiCad,Pcbnew,9.0.7*%
%TF.CreationDate,2026-09-25T12:53:25+02:00*%
%TF.ProjectId,esp32-led-matrix,65737033-322d-46c6-9564-2d6d61747269,rev?*%
%TF.SameCoordinates,Original*%
%TF.FileFunction,OtherDrawing,Comment*%
%FSLAX46Y46*%
G04 Gerber Fmt 4.6, Leading zero omitted, Abs format (unit mm)*
G04 Created by KiCad (PCBNEW 9.0.7) date 2026-09-25 12:53:25*
%MOMM*%
%LPD*%
G01*
G04 APERTURE LIST*
%ADD10C,0.100000*%
G04 APERTURE END LIST*
D10*
X17010714Y-73826109D02*
X17010714Y-73326109D01*
X17010714Y-73326109D02*
X17201190Y-73326109D01*
X17201190Y-73326109D02*
X17248809Y-73349919D01*
X17248809Y-73349919D02*
X17272619Y-73373728D01*
X17272619Y-73373728D02*
X17296428Y-73421347D01*
X17296428Y-73421347D02*
X17296428Y-73492776D01*
X17296428Y-73492776D02*
X17272619Y-73540395D01*
X17272619Y-73540395D02*
X17248809Y-73564204D01*
X17248809Y-73564204D02*
X17201190Y-73588014D01*
X17201190Y-73588014D02*
X17010714Y-73588014D01*
X17796428Y-73778490D02*
X17772619Y-73802300D01*
X17772619Y-73802300D02*
X17701190Y-73826109D01*
X17701190Y-73826109D02*
X17653571Y-73826109D01*
X17653571Y-73826109D02*
X17582143Y-73802300D01*
X17582143Y-73802300D02*
X17534524Y-73754680D01*
X17534524Y-73754680D02*
X17510714Y-73707061D01*
X17510714Y-73707061D02*
X17486905Y-73611823D01*
X17486905Y-73611823D02*
X17486905Y-73540395D01*
X17486905Y-73540395D02*
X17510714Y-73445157D01*
X17510714Y-73445157D02*
X17534524Y-73397538D01*
X17534524Y-73397538D02*
X17582143Y-73349919D01*
X17582143Y-73349919D02*
X17653571Y-73326109D01*
X17653571Y-73326109D02*
X17701190Y-73326109D01*
X17701190Y-73326109D02*
X17772619Y-73349919D01*
X17772619Y-73349919D02*
X17796428Y-73373728D01*
X18177381Y-73564204D02*
X18248809Y-73588014D01*
X18248809Y-73588014D02*
X18272619Y-73611823D01*
X18272619Y-73611823D02*
X18296428Y-73659442D01*
X18296428Y-73659442D02*
X18296428Y-73730871D01*
X18296428Y-73730871D02*
X18272619Y-73778490D01*
X18272619Y-73778490D02*
X18248809Y-73802300D01*
X18248809Y-73802300D02*
X18201190Y-73826109D01*
X18201190Y-73826109D02*
X18010714Y-73826109D01*
X18010714Y-73826109D02*
X18010714Y-73326109D01*
X18010714Y-73326109D02*
X18177381Y-73326109D01*
X18177381Y-73326109D02*
X18225000Y-73349919D01*
X18225000Y-73349919D02*
X18248809Y-73373728D01*
X18248809Y-73373728D02*
X18272619Y-73421347D01*
X18272619Y-73421347D02*
X18272619Y-73468966D01*
X18272619Y-73468966D02*
X18248809Y-73516585D01*
X18248809Y-73516585D02*
X18225000Y-73540395D01*
X18225000Y-73540395D02*
X18177381Y-73564204D01*
X18177381Y-73564204D02*
X18010714Y-73564204D01*
X18891666Y-73564204D02*
X19058333Y-73564204D01*
X19129761Y-73826109D02*
X18891666Y-73826109D01*
X18891666Y-73826109D02*
X18891666Y-73326109D01*
X18891666Y-73326109D02*
X19129761Y-73326109D01*
X19558333Y-73826109D02*
X19558333Y-73326109D01*
X19558333Y-73802300D02*
X19510714Y-73826109D01*
X19510714Y-73826109D02*
X19415476Y-73826109D01*
X19415476Y-73826109D02*
X19367857Y-73802300D01*
X19367857Y-73802300D02*
X19344047Y-73778490D01*
X19344047Y-73778490D02*
X19320238Y-73730871D01*
X19320238Y-73730871D02*
X19320238Y-73588014D01*
X19320238Y-73588014D02*
X19344047Y-73540395D01*
X19344047Y-73540395D02*
X19367857Y-73516585D01*
X19367857Y-73516585D02*
X19415476Y-73492776D01*
X19415476Y-73492776D02*
X19510714Y-73492776D01*
X19510714Y-73492776D02*
X19558333Y-73516585D01*
X20010714Y-73492776D02*
X20010714Y-73897538D01*
X20010714Y-73897538D02*
X19986904Y-73945157D01*
X19986904Y-73945157D02*
X19963095Y-73968966D01*
X19963095Y-73968966D02*
X19915476Y-73992776D01*
X19915476Y-73992776D02*
X19844047Y-73992776D01*
X19844047Y-73992776D02*
X19796428Y-73968966D01*
X20010714Y-73802300D02*
X19963095Y-73826109D01*
X19963095Y-73826109D02*
X19867857Y-73826109D01*
X19867857Y-73826109D02*
X19820238Y-73802300D01*
X19820238Y-73802300D02*
X19796428Y-73778490D01*
X19796428Y-73778490D02*
X19772619Y-73730871D01*
X19772619Y-73730871D02*
X19772619Y-73588014D01*
X19772619Y-73588014D02*
X19796428Y-73540395D01*
X19796428Y-73540395D02*
X19820238Y-73516585D01*
X19820238Y-73516585D02*
X19867857Y-73492776D01*
X19867857Y-73492776D02*
X19963095Y-73492776D01*
X19963095Y-73492776D02*
X20010714Y-73516585D01*
X20439285Y-73802300D02*
X20391666Y-73826109D01*
X20391666Y-73826109D02*
X20296428Y-73826109D01*
X20296428Y-73826109D02*
X20248809Y-73802300D01*
X20248809Y-73802300D02*
X20225000Y-73754680D01*
X20225000Y-73754680D02*
X20225000Y-73564204D01*
X20225000Y-73564204D02*
X20248809Y-73516585D01*
X20248809Y-73516585D02*
X20296428Y-73492776D01*
X20296428Y-73492776D02*
X20391666Y-73492776D01*
X20391666Y-73492776D02*
X20439285Y-73516585D01*
X20439285Y-73516585D02*
X20463095Y-73564204D01*
X20463095Y-73564204D02*
X20463095Y-73611823D01*
X20463095Y-73611823D02*
X20225000Y-73659442D01*
%TO.C,J4*%
X13725000Y-74175000D02*
X23725000Y-74175000D01*
%TD*%
M02*
