%TF.GenerationSoftware,KiCad,Pcbnew,9.0.7*%
%TF.CreationDate,2026-09-26T19:42:32+02:00*%
%TF.ProjectId,esp32-led-matrix,65737033-322d-46c6-9564-2d6d61747269,rev?*%
%TF.SameCoordinates,Original*%
%TF.FileFunction,Legend,Top*%
%TF.FilePolarity,Positive*%
%FSLAX46Y46*%
G04 Gerber Fmt 4.6, Leading zero omitted, Abs format (unit mm)*
G04 Created by KiCad (PCBNEW 9.0.7) date 2026-09-26 19:42:32*
%MOMM*%
%LPD*%
G01*
G04 APERTURE LIST*
%ADD10C,0.150000*%
%ADD11C,0.127000*%
%ADD12C,0.200000*%
%ADD13C,0.120000*%
G04 APERTURE END LIST*
D10*
X50261905Y-37884819D02*
X50261905Y-36884819D01*
X50261905Y-36884819D02*
X50500000Y-36884819D01*
X50500000Y-36884819D02*
X50642857Y-36932438D01*
X50642857Y-36932438D02*
X50738095Y-37027676D01*
X50738095Y-37027676D02*
X50785714Y-37122914D01*
X50785714Y-37122914D02*
X50833333Y-37313390D01*
X50833333Y-37313390D02*
X50833333Y-37456247D01*
X50833333Y-37456247D02*
X50785714Y-37646723D01*
X50785714Y-37646723D02*
X50738095Y-37741961D01*
X50738095Y-37741961D02*
X50642857Y-37837200D01*
X50642857Y-37837200D02*
X50500000Y-37884819D01*
X50500000Y-37884819D02*
X50261905Y-37884819D01*
X51785714Y-37884819D02*
X51214286Y-37884819D01*
X51500000Y-37884819D02*
X51500000Y-36884819D01*
X51500000Y-36884819D02*
X51404762Y-37027676D01*
X51404762Y-37027676D02*
X51309524Y-37122914D01*
X51309524Y-37122914D02*
X51214286Y-37170533D01*
X45388095Y-4654819D02*
X45388095Y-5464342D01*
X45388095Y-5464342D02*
X45435714Y-5559580D01*
X45435714Y-5559580D02*
X45483333Y-5607200D01*
X45483333Y-5607200D02*
X45578571Y-5654819D01*
X45578571Y-5654819D02*
X45769047Y-5654819D01*
X45769047Y-5654819D02*
X45864285Y-5607200D01*
X45864285Y-5607200D02*
X45911904Y-5559580D01*
X45911904Y-5559580D02*
X45959523Y-5464342D01*
X45959523Y-5464342D02*
X45959523Y-4654819D01*
X46959523Y-5654819D02*
X46388095Y-5654819D01*
X46673809Y-5654819D02*
X46673809Y-4654819D01*
X46673809Y-4654819D02*
X46578571Y-4797676D01*
X46578571Y-4797676D02*
X46483333Y-4892914D01*
X46483333Y-4892914D02*
X46388095Y-4940533D01*
D11*
%TO.C,D15*%
X24200000Y-1500000D02*
X26400000Y-1500000D01*
X24200000Y-2700000D02*
X24200000Y-2500000D01*
X26400000Y-2700000D02*
X26400000Y-2500000D01*
X26400000Y-3700000D02*
X24200000Y-3700000D01*
D12*
X27000200Y-2627000D02*
G75*
G02*
X26800200Y-2627000I-100000J0D01*
G01*
X26800200Y-2627000D02*
G75*
G02*
X27000200Y-2627000I100000J0D01*
G01*
D11*
%TO.C,D10*%
X1700000Y-1500000D02*
X3900000Y-1500000D01*
X1700000Y-2700000D02*
X1700000Y-2500000D01*
X3900000Y-2700000D02*
X3900000Y-2500000D01*
X3900000Y-3700000D02*
X1700000Y-3700000D01*
D12*
X4500200Y-2627000D02*
G75*
G02*
X4300200Y-2627000I-100000J0D01*
G01*
X4300200Y-2627000D02*
G75*
G02*
X4500200Y-2627000I100000J0D01*
G01*
D11*
%TO.C,D37*%
X15200000Y-15000000D02*
X17400000Y-15000000D01*
X15200000Y-16000000D02*
X15200000Y-16200000D01*
X17400000Y-16000000D02*
X17400000Y-16200000D01*
X17400000Y-17200000D02*
X15200000Y-17200000D01*
D12*
X14799800Y-16073000D02*
G75*
G02*
X14599800Y-16073000I-100000J0D01*
G01*
X14599800Y-16073000D02*
G75*
G02*
X14799800Y-16073000I100000J0D01*
G01*
D11*
%TO.C,D43*%
X6200000Y-19500000D02*
X8400000Y-19500000D01*
X6200000Y-20700000D02*
X6200000Y-20500000D01*
X8400000Y-20700000D02*
X8400000Y-20500000D01*
X8400000Y-21700000D02*
X6200000Y-21700000D01*
D12*
X9000200Y-20627000D02*
G75*
G02*
X8800200Y-20627000I-100000J0D01*
G01*
X8800200Y-20627000D02*
G75*
G02*
X9000200Y-20627000I100000J0D01*
G01*
D11*
%TO.C,D54*%
X19700000Y-24000000D02*
X21900000Y-24000000D01*
X19700000Y-25000000D02*
X19700000Y-25200000D01*
X21900000Y-25000000D02*
X21900000Y-25200000D01*
X21900000Y-26200000D02*
X19700000Y-26200000D01*
D12*
X19299800Y-25073000D02*
G75*
G02*
X19099800Y-25073000I-100000J0D01*
G01*
X19099800Y-25073000D02*
G75*
G02*
X19299800Y-25073000I100000J0D01*
G01*
D11*
%TO.C,D60*%
X10700000Y-28500000D02*
X12900000Y-28500000D01*
X10700000Y-29700000D02*
X10700000Y-29500000D01*
X12900000Y-29700000D02*
X12900000Y-29500000D01*
X12900000Y-30700000D02*
X10700000Y-30700000D01*
D12*
X13500200Y-29627000D02*
G75*
G02*
X13300200Y-29627000I-100000J0D01*
G01*
X13300200Y-29627000D02*
G75*
G02*
X13500200Y-29627000I100000J0D01*
G01*
D11*
%TO.C,D63*%
X24200000Y-28500000D02*
X26400000Y-28500000D01*
X24200000Y-29700000D02*
X24200000Y-29500000D01*
X26400000Y-29700000D02*
X26400000Y-29500000D01*
X26400000Y-30700000D02*
X24200000Y-30700000D01*
D12*
X27000200Y-29627000D02*
G75*
G02*
X26800200Y-29627000I-100000J0D01*
G01*
X26800200Y-29627000D02*
G75*
G02*
X27000200Y-29627000I100000J0D01*
G01*
D11*
%TO.C,D46*%
X19700000Y-19500000D02*
X21900000Y-19500000D01*
X19700000Y-20700000D02*
X19700000Y-20500000D01*
X21900000Y-20700000D02*
X21900000Y-20500000D01*
X21900000Y-21700000D02*
X19700000Y-21700000D01*
D12*
X22500200Y-20627000D02*
G75*
G02*
X22300200Y-20627000I-100000J0D01*
G01*
X22300200Y-20627000D02*
G75*
G02*
X22500200Y-20627000I100000J0D01*
G01*
D11*
%TO.C,D32*%
X28700000Y-10500000D02*
X30900000Y-10500000D01*
X28700000Y-11700000D02*
X28700000Y-11500000D01*
X30900000Y-11700000D02*
X30900000Y-11500000D01*
X30900000Y-12700000D02*
X28700000Y-12700000D01*
D12*
X31500200Y-11627000D02*
G75*
G02*
X31300200Y-11627000I-100000J0D01*
G01*
X31300200Y-11627000D02*
G75*
G02*
X31500200Y-11627000I100000J0D01*
G01*
D11*
%TO.C,D66*%
X1700000Y-33000000D02*
X3900000Y-33000000D01*
X1700000Y-34000000D02*
X1700000Y-34200000D01*
X3900000Y-34000000D02*
X3900000Y-34200000D01*
X3900000Y-35200000D02*
X1700000Y-35200000D01*
D12*
X1299800Y-34073000D02*
G75*
G02*
X1099800Y-34073000I-100000J0D01*
G01*
X1099800Y-34073000D02*
G75*
G02*
X1299800Y-34073000I100000J0D01*
G01*
D11*
%TO.C,D61*%
X15200000Y-28500000D02*
X17400000Y-28500000D01*
X15200000Y-29700000D02*
X15200000Y-29500000D01*
X17400000Y-29700000D02*
X17400000Y-29500000D01*
X17400000Y-30700000D02*
X15200000Y-30700000D01*
D12*
X18000200Y-29627000D02*
G75*
G02*
X17800200Y-29627000I-100000J0D01*
G01*
X17800200Y-29627000D02*
G75*
G02*
X18000200Y-29627000I100000J0D01*
G01*
D11*
%TO.C,D64*%
X28700000Y-28500000D02*
X30900000Y-28500000D01*
X28700000Y-29700000D02*
X28700000Y-29500000D01*
X30900000Y-29700000D02*
X30900000Y-29500000D01*
X30900000Y-30700000D02*
X28700000Y-30700000D01*
D12*
X31500200Y-29627000D02*
G75*
G02*
X31300200Y-29627000I-100000J0D01*
G01*
X31300200Y-29627000D02*
G75*
G02*
X31500200Y-29627000I100000J0D01*
G01*
D11*
%TO.C,D71*%
X24200000Y-33000000D02*
X26400000Y-33000000D01*
X24200000Y-34000000D02*
X24200000Y-34200000D01*
X26400000Y-34000000D02*
X26400000Y-34200000D01*
X26400000Y-35200000D02*
X24200000Y-35200000D01*
D12*
X23799800Y-34073000D02*
G75*
G02*
X23599800Y-34073000I-100000J0D01*
G01*
X23599800Y-34073000D02*
G75*
G02*
X23799800Y-34073000I100000J0D01*
G01*
D11*
%TO.C,D31*%
X24200000Y-10500000D02*
X26400000Y-10500000D01*
X24200000Y-11700000D02*
X24200000Y-11500000D01*
X26400000Y-11700000D02*
X26400000Y-11500000D01*
X26400000Y-12700000D02*
X24200000Y-12700000D01*
D12*
X27000200Y-11627000D02*
G75*
G02*
X26800200Y-11627000I-100000J0D01*
G01*
X26800200Y-11627000D02*
G75*
G02*
X27000200Y-11627000I100000J0D01*
G01*
D11*
%TO.C,D12*%
X10700000Y-1500000D02*
X12900000Y-1500000D01*
X10700000Y-2700000D02*
X10700000Y-2500000D01*
X12900000Y-2700000D02*
X12900000Y-2500000D01*
X12900000Y-3700000D02*
X10700000Y-3700000D01*
D12*
X13500200Y-2627000D02*
G75*
G02*
X13300200Y-2627000I-100000J0D01*
G01*
X13300200Y-2627000D02*
G75*
G02*
X13500200Y-2627000I100000J0D01*
G01*
D11*
%TO.C,D52*%
X10700000Y-24000000D02*
X12900000Y-24000000D01*
X10700000Y-25000000D02*
X10700000Y-25200000D01*
X12900000Y-25000000D02*
X12900000Y-25200000D01*
X12900000Y-26200000D02*
X10700000Y-26200000D01*
D12*
X10299800Y-25073000D02*
G75*
G02*
X10099800Y-25073000I-100000J0D01*
G01*
X10099800Y-25073000D02*
G75*
G02*
X10299800Y-25073000I100000J0D01*
G01*
D11*
%TO.C,D73*%
X33200000Y-33000000D02*
X35400000Y-33000000D01*
X33200000Y-34000000D02*
X33200000Y-34200000D01*
X35400000Y-34000000D02*
X35400000Y-34200000D01*
X35400000Y-35200000D02*
X33200000Y-35200000D01*
D12*
X32799800Y-34073000D02*
G75*
G02*
X32599800Y-34073000I-100000J0D01*
G01*
X32599800Y-34073000D02*
G75*
G02*
X32799800Y-34073000I100000J0D01*
G01*
D11*
%TO.C,D68*%
X10700000Y-33000000D02*
X12900000Y-33000000D01*
X10700000Y-34000000D02*
X10700000Y-34200000D01*
X12900000Y-34000000D02*
X12900000Y-34200000D01*
X12900000Y-35200000D02*
X10700000Y-35200000D01*
D12*
X10299800Y-34073000D02*
G75*
G02*
X10099800Y-34073000I-100000J0D01*
G01*
X10099800Y-34073000D02*
G75*
G02*
X10299800Y-34073000I100000J0D01*
G01*
D11*
%TO.C,D27*%
X6200000Y-10500000D02*
X8400000Y-10500000D01*
X6200000Y-11700000D02*
X6200000Y-11500000D01*
X8400000Y-11700000D02*
X8400000Y-11500000D01*
X8400000Y-12700000D02*
X6200000Y-12700000D01*
D12*
X9000200Y-11627000D02*
G75*
G02*
X8800200Y-11627000I-100000J0D01*
G01*
X8800200Y-11627000D02*
G75*
G02*
X9000200Y-11627000I100000J0D01*
G01*
D11*
%TO.C,D62*%
X19700000Y-28500000D02*
X21900000Y-28500000D01*
X19700000Y-29700000D02*
X19700000Y-29500000D01*
X21900000Y-29700000D02*
X21900000Y-29500000D01*
X21900000Y-30700000D02*
X19700000Y-30700000D01*
D12*
X22500200Y-29627000D02*
G75*
G02*
X22300200Y-29627000I-100000J0D01*
G01*
X22300200Y-29627000D02*
G75*
G02*
X22500200Y-29627000I100000J0D01*
G01*
D11*
%TO.C,D13*%
X15200000Y-1500000D02*
X17400000Y-1500000D01*
X15200000Y-2700000D02*
X15200000Y-2500000D01*
X17400000Y-2700000D02*
X17400000Y-2500000D01*
X17400000Y-3700000D02*
X15200000Y-3700000D01*
D12*
X18000200Y-2627000D02*
G75*
G02*
X17800200Y-2627000I-100000J0D01*
G01*
X17800200Y-2627000D02*
G75*
G02*
X18000200Y-2627000I100000J0D01*
G01*
D11*
%TO.C,D55*%
X24200000Y-24000000D02*
X26400000Y-24000000D01*
X24200000Y-25000000D02*
X24200000Y-25200000D01*
X26400000Y-25000000D02*
X26400000Y-25200000D01*
X26400000Y-26200000D02*
X24200000Y-26200000D01*
D12*
X23799800Y-25073000D02*
G75*
G02*
X23599800Y-25073000I-100000J0D01*
G01*
X23599800Y-25073000D02*
G75*
G02*
X23799800Y-25073000I100000J0D01*
G01*
D11*
%TO.C,D17*%
X33200000Y-1500000D02*
X35400000Y-1500000D01*
X33200000Y-2700000D02*
X33200000Y-2500000D01*
X35400000Y-2700000D02*
X35400000Y-2500000D01*
X35400000Y-3700000D02*
X33200000Y-3700000D01*
D12*
X36000200Y-2627000D02*
G75*
G02*
X35800200Y-2627000I-100000J0D01*
G01*
X35800200Y-2627000D02*
G75*
G02*
X36000200Y-2627000I100000J0D01*
G01*
D11*
%TO.C,D67*%
X6200000Y-33000000D02*
X8400000Y-33000000D01*
X6200000Y-34000000D02*
X6200000Y-34200000D01*
X8400000Y-34000000D02*
X8400000Y-34200000D01*
X8400000Y-35200000D02*
X6200000Y-35200000D01*
D12*
X5799800Y-34073000D02*
G75*
G02*
X5599800Y-34073000I-100000J0D01*
G01*
X5599800Y-34073000D02*
G75*
G02*
X5799800Y-34073000I100000J0D01*
G01*
D11*
%TO.C,D70*%
X19700000Y-33000000D02*
X21900000Y-33000000D01*
X19700000Y-34000000D02*
X19700000Y-34200000D01*
X21900000Y-34000000D02*
X21900000Y-34200000D01*
X21900000Y-35200000D02*
X19700000Y-35200000D01*
D12*
X19299800Y-34073000D02*
G75*
G02*
X19099800Y-34073000I-100000J0D01*
G01*
X19099800Y-34073000D02*
G75*
G02*
X19299800Y-34073000I100000J0D01*
G01*
D11*
%TO.C,D65*%
X33200000Y-28500000D02*
X35400000Y-28500000D01*
X33200000Y-29700000D02*
X33200000Y-29500000D01*
X35400000Y-29700000D02*
X35400000Y-29500000D01*
X35400000Y-30700000D02*
X33200000Y-30700000D01*
D12*
X36000200Y-29627000D02*
G75*
G02*
X35800200Y-29627000I-100000J0D01*
G01*
X35800200Y-29627000D02*
G75*
G02*
X36000200Y-29627000I100000J0D01*
G01*
D13*
%TO.C,D1*%
X50200000Y-36735000D02*
X52485000Y-36735000D01*
X52485000Y-35265000D02*
X50200000Y-35265000D01*
X52485000Y-36735000D02*
X52485000Y-35265000D01*
D12*
X52485000Y-37000000D02*
X52485000Y-35000000D01*
D11*
%TO.C,D36*%
X10700000Y-15000000D02*
X12900000Y-15000000D01*
X10700000Y-16000000D02*
X10700000Y-16200000D01*
X12900000Y-16000000D02*
X12900000Y-16200000D01*
X12900000Y-17200000D02*
X10700000Y-17200000D01*
D12*
X10299800Y-16073000D02*
G75*
G02*
X10099800Y-16073000I-100000J0D01*
G01*
X10099800Y-16073000D02*
G75*
G02*
X10299800Y-16073000I100000J0D01*
G01*
D11*
%TO.C,D47*%
X24200000Y-19500000D02*
X26400000Y-19500000D01*
X24200000Y-20700000D02*
X24200000Y-20500000D01*
X26400000Y-20700000D02*
X26400000Y-20500000D01*
X26400000Y-21700000D02*
X24200000Y-21700000D01*
D12*
X27000200Y-20627000D02*
G75*
G02*
X26800200Y-20627000I-100000J0D01*
G01*
X26800200Y-20627000D02*
G75*
G02*
X27000200Y-20627000I100000J0D01*
G01*
D11*
%TO.C,D22*%
X19700000Y-6000000D02*
X21900000Y-6000000D01*
X19700000Y-7000000D02*
X19700000Y-7200000D01*
X21900000Y-7000000D02*
X21900000Y-7200000D01*
X21900000Y-8200000D02*
X19700000Y-8200000D01*
D12*
X19299800Y-7073000D02*
G75*
G02*
X19099800Y-7073000I-100000J0D01*
G01*
X19099800Y-7073000D02*
G75*
G02*
X19299800Y-7073000I100000J0D01*
G01*
D11*
%TO.C,D41*%
X33200000Y-15000000D02*
X35400000Y-15000000D01*
X33200000Y-16000000D02*
X33200000Y-16200000D01*
X35400000Y-16000000D02*
X35400000Y-16200000D01*
X35400000Y-17200000D02*
X33200000Y-17200000D01*
D12*
X32799800Y-16073000D02*
G75*
G02*
X32599800Y-16073000I-100000J0D01*
G01*
X32599800Y-16073000D02*
G75*
G02*
X32799800Y-16073000I100000J0D01*
G01*
D11*
%TO.C,D45*%
X15200000Y-19500000D02*
X17400000Y-19500000D01*
X15200000Y-20700000D02*
X15200000Y-20500000D01*
X17400000Y-20700000D02*
X17400000Y-20500000D01*
X17400000Y-21700000D02*
X15200000Y-21700000D01*
D12*
X18000200Y-20627000D02*
G75*
G02*
X17800200Y-20627000I-100000J0D01*
G01*
X17800200Y-20627000D02*
G75*
G02*
X18000200Y-20627000I100000J0D01*
G01*
D11*
%TO.C,D29*%
X15200000Y-10500000D02*
X17400000Y-10500000D01*
X15200000Y-11700000D02*
X15200000Y-11500000D01*
X17400000Y-11700000D02*
X17400000Y-11500000D01*
X17400000Y-12700000D02*
X15200000Y-12700000D01*
D12*
X18000200Y-11627000D02*
G75*
G02*
X17800200Y-11627000I-100000J0D01*
G01*
X17800200Y-11627000D02*
G75*
G02*
X18000200Y-11627000I100000J0D01*
G01*
D11*
%TO.C,D48*%
X28700000Y-19500000D02*
X30900000Y-19500000D01*
X28700000Y-20700000D02*
X28700000Y-20500000D01*
X30900000Y-20700000D02*
X30900000Y-20500000D01*
X30900000Y-21700000D02*
X28700000Y-21700000D01*
D12*
X31500200Y-20627000D02*
G75*
G02*
X31300200Y-20627000I-100000J0D01*
G01*
X31300200Y-20627000D02*
G75*
G02*
X31500200Y-20627000I100000J0D01*
G01*
D11*
%TO.C,D38*%
X19700000Y-15000000D02*
X21900000Y-15000000D01*
X19700000Y-16000000D02*
X19700000Y-16200000D01*
X21900000Y-16000000D02*
X21900000Y-16200000D01*
X21900000Y-17200000D02*
X19700000Y-17200000D01*
D12*
X19299800Y-16073000D02*
G75*
G02*
X19099800Y-16073000I-100000J0D01*
G01*
X19099800Y-16073000D02*
G75*
G02*
X19299800Y-16073000I100000J0D01*
G01*
D11*
%TO.C,D24*%
X28700000Y-6000000D02*
X30900000Y-6000000D01*
X28700000Y-7000000D02*
X28700000Y-7200000D01*
X30900000Y-7000000D02*
X30900000Y-7200000D01*
X30900000Y-8200000D02*
X28700000Y-8200000D01*
D12*
X28299800Y-7073000D02*
G75*
G02*
X28099800Y-7073000I-100000J0D01*
G01*
X28099800Y-7073000D02*
G75*
G02*
X28299800Y-7073000I100000J0D01*
G01*
D11*
%TO.C,D44*%
X10700000Y-19500000D02*
X12900000Y-19500000D01*
X10700000Y-20700000D02*
X10700000Y-20500000D01*
X12900000Y-20700000D02*
X12900000Y-20500000D01*
X12900000Y-21700000D02*
X10700000Y-21700000D01*
D12*
X13500200Y-20627000D02*
G75*
G02*
X13300200Y-20627000I-100000J0D01*
G01*
X13300200Y-20627000D02*
G75*
G02*
X13500200Y-20627000I100000J0D01*
G01*
D11*
%TO.C,D53*%
X15200000Y-24000000D02*
X17400000Y-24000000D01*
X15200000Y-25000000D02*
X15200000Y-25200000D01*
X17400000Y-25000000D02*
X17400000Y-25200000D01*
X17400000Y-26200000D02*
X15200000Y-26200000D01*
D12*
X14799800Y-25073000D02*
G75*
G02*
X14599800Y-25073000I-100000J0D01*
G01*
X14599800Y-25073000D02*
G75*
G02*
X14799800Y-25073000I100000J0D01*
G01*
D11*
%TO.C,D51*%
X6200000Y-24000000D02*
X8400000Y-24000000D01*
X6200000Y-25000000D02*
X6200000Y-25200000D01*
X8400000Y-25000000D02*
X8400000Y-25200000D01*
X8400000Y-26200000D02*
X6200000Y-26200000D01*
D12*
X5799800Y-25073000D02*
G75*
G02*
X5599800Y-25073000I-100000J0D01*
G01*
X5599800Y-25073000D02*
G75*
G02*
X5799800Y-25073000I100000J0D01*
G01*
D11*
%TO.C,D25*%
X33200000Y-6000000D02*
X35400000Y-6000000D01*
X33200000Y-7000000D02*
X33200000Y-7200000D01*
X35400000Y-7000000D02*
X35400000Y-7200000D01*
X35400000Y-8200000D02*
X33200000Y-8200000D01*
D12*
X32799800Y-7073000D02*
G75*
G02*
X32599800Y-7073000I-100000J0D01*
G01*
X32599800Y-7073000D02*
G75*
G02*
X32799800Y-7073000I100000J0D01*
G01*
D11*
%TO.C,D20*%
X10700000Y-6000000D02*
X12900000Y-6000000D01*
X10700000Y-7000000D02*
X10700000Y-7200000D01*
X12900000Y-7000000D02*
X12900000Y-7200000D01*
X12900000Y-8200000D02*
X10700000Y-8200000D01*
D12*
X10299800Y-7073000D02*
G75*
G02*
X10099800Y-7073000I-100000J0D01*
G01*
X10099800Y-7073000D02*
G75*
G02*
X10299800Y-7073000I100000J0D01*
G01*
D11*
%TO.C,D56*%
X28700000Y-24000000D02*
X30900000Y-24000000D01*
X28700000Y-25000000D02*
X28700000Y-25200000D01*
X30900000Y-25000000D02*
X30900000Y-25200000D01*
X30900000Y-26200000D02*
X28700000Y-26200000D01*
D12*
X28299800Y-25073000D02*
G75*
G02*
X28099800Y-25073000I-100000J0D01*
G01*
X28099800Y-25073000D02*
G75*
G02*
X28299800Y-25073000I100000J0D01*
G01*
D11*
%TO.C,D19*%
X6200000Y-6000000D02*
X8400000Y-6000000D01*
X6200000Y-7000000D02*
X6200000Y-7200000D01*
X8400000Y-7000000D02*
X8400000Y-7200000D01*
X8400000Y-8200000D02*
X6200000Y-8200000D01*
D12*
X5799800Y-7073000D02*
G75*
G02*
X5599800Y-7073000I-100000J0D01*
G01*
X5599800Y-7073000D02*
G75*
G02*
X5799800Y-7073000I100000J0D01*
G01*
D11*
%TO.C,D59*%
X6200000Y-28500000D02*
X8400000Y-28500000D01*
X6200000Y-29700000D02*
X6200000Y-29500000D01*
X8400000Y-29700000D02*
X8400000Y-29500000D01*
X8400000Y-30700000D02*
X6200000Y-30700000D01*
D12*
X9000200Y-29627000D02*
G75*
G02*
X8800200Y-29627000I-100000J0D01*
G01*
X8800200Y-29627000D02*
G75*
G02*
X9000200Y-29627000I100000J0D01*
G01*
D11*
%TO.C,D49*%
X33200000Y-19500000D02*
X35400000Y-19500000D01*
X33200000Y-20700000D02*
X33200000Y-20500000D01*
X35400000Y-20700000D02*
X35400000Y-20500000D01*
X35400000Y-21700000D02*
X33200000Y-21700000D01*
D12*
X36000200Y-20627000D02*
G75*
G02*
X35800200Y-20627000I-100000J0D01*
G01*
X35800200Y-20627000D02*
G75*
G02*
X36000200Y-20627000I100000J0D01*
G01*
D13*
%TO.C,U1*%
X37900000Y-1700000D02*
X37900000Y-8450000D01*
X37900000Y-1700000D02*
X55900000Y-1700000D01*
X37900000Y-26450000D02*
X37900000Y-27200000D01*
X37900000Y-27200000D02*
X38900000Y-27200000D01*
X55900000Y-1700000D02*
X55900000Y-8450000D01*
X55900000Y-7700000D02*
X37900000Y-7700000D01*
X55900000Y-26450000D02*
X55900000Y-27200000D01*
X55900000Y-27200000D02*
X54900000Y-27200000D01*
D11*
%TO.C,D16*%
X28700000Y-1500000D02*
X30900000Y-1500000D01*
X28700000Y-2700000D02*
X28700000Y-2500000D01*
X30900000Y-2700000D02*
X30900000Y-2500000D01*
X30900000Y-3700000D02*
X28700000Y-3700000D01*
D12*
X31500200Y-2627000D02*
G75*
G02*
X31300200Y-2627000I-100000J0D01*
G01*
X31300200Y-2627000D02*
G75*
G02*
X31500200Y-2627000I100000J0D01*
G01*
D11*
%TO.C,D30*%
X19700000Y-10500000D02*
X21900000Y-10500000D01*
X19700000Y-11700000D02*
X19700000Y-11500000D01*
X21900000Y-11700000D02*
X21900000Y-11500000D01*
X21900000Y-12700000D02*
X19700000Y-12700000D01*
D12*
X22500200Y-11627000D02*
G75*
G02*
X22300200Y-11627000I-100000J0D01*
G01*
X22300200Y-11627000D02*
G75*
G02*
X22500200Y-11627000I100000J0D01*
G01*
D11*
%TO.C,D14*%
X19700000Y-1500000D02*
X21900000Y-1500000D01*
X19700000Y-2700000D02*
X19700000Y-2500000D01*
X21900000Y-2700000D02*
X21900000Y-2500000D01*
X21900000Y-3700000D02*
X19700000Y-3700000D01*
D12*
X22500200Y-2627000D02*
G75*
G02*
X22300200Y-2627000I-100000J0D01*
G01*
X22300200Y-2627000D02*
G75*
G02*
X22500200Y-2627000I100000J0D01*
G01*
D11*
%TO.C,D28*%
X10700000Y-10500000D02*
X12900000Y-10500000D01*
X10700000Y-11700000D02*
X10700000Y-11500000D01*
X12900000Y-11700000D02*
X12900000Y-11500000D01*
X12900000Y-12700000D02*
X10700000Y-12700000D01*
D12*
X13500200Y-11627000D02*
G75*
G02*
X13300200Y-11627000I-100000J0D01*
G01*
X13300200Y-11627000D02*
G75*
G02*
X13500200Y-11627000I100000J0D01*
G01*
D11*
%TO.C,D58*%
X1700000Y-28500000D02*
X3900000Y-28500000D01*
X1700000Y-29700000D02*
X1700000Y-29500000D01*
X3900000Y-29700000D02*
X3900000Y-29500000D01*
X3900000Y-30700000D02*
X1700000Y-30700000D01*
D12*
X4500200Y-29627000D02*
G75*
G02*
X4300200Y-29627000I-100000J0D01*
G01*
X4300200Y-29627000D02*
G75*
G02*
X4500200Y-29627000I100000J0D01*
G01*
D11*
%TO.C,D72*%
X28700000Y-33000000D02*
X30900000Y-33000000D01*
X28700000Y-34000000D02*
X28700000Y-34200000D01*
X30900000Y-34000000D02*
X30900000Y-34200000D01*
X30900000Y-35200000D02*
X28700000Y-35200000D01*
D12*
X28299800Y-34073000D02*
G75*
G02*
X28099800Y-34073000I-100000J0D01*
G01*
X28099800Y-34073000D02*
G75*
G02*
X28299800Y-34073000I100000J0D01*
G01*
D11*
%TO.C,D33*%
X33200000Y-10500000D02*
X35400000Y-10500000D01*
X33200000Y-11700000D02*
X33200000Y-11500000D01*
X35400000Y-11700000D02*
X35400000Y-11500000D01*
X35400000Y-12700000D02*
X33200000Y-12700000D01*
D12*
X36000200Y-11627000D02*
G75*
G02*
X35800200Y-11627000I-100000J0D01*
G01*
X35800200Y-11627000D02*
G75*
G02*
X36000200Y-11627000I100000J0D01*
G01*
D11*
%TO.C,D57*%
X33200000Y-24000000D02*
X35400000Y-24000000D01*
X33200000Y-25000000D02*
X33200000Y-25200000D01*
X35400000Y-25000000D02*
X35400000Y-25200000D01*
X35400000Y-26200000D02*
X33200000Y-26200000D01*
D12*
X32799800Y-25073000D02*
G75*
G02*
X32599800Y-25073000I-100000J0D01*
G01*
X32599800Y-25073000D02*
G75*
G02*
X32799800Y-25073000I100000J0D01*
G01*
D11*
%TO.C,D23*%
X24200000Y-6000000D02*
X26400000Y-6000000D01*
X24200000Y-7000000D02*
X24200000Y-7200000D01*
X26400000Y-7000000D02*
X26400000Y-7200000D01*
X26400000Y-8200000D02*
X24200000Y-8200000D01*
D12*
X23799800Y-7073000D02*
G75*
G02*
X23599800Y-7073000I-100000J0D01*
G01*
X23599800Y-7073000D02*
G75*
G02*
X23799800Y-7073000I100000J0D01*
G01*
D11*
%TO.C,D39*%
X24200000Y-15000000D02*
X26400000Y-15000000D01*
X24200000Y-16000000D02*
X24200000Y-16200000D01*
X26400000Y-16000000D02*
X26400000Y-16200000D01*
X26400000Y-17200000D02*
X24200000Y-17200000D01*
D12*
X23799800Y-16073000D02*
G75*
G02*
X23599800Y-16073000I-100000J0D01*
G01*
X23599800Y-16073000D02*
G75*
G02*
X23799800Y-16073000I100000J0D01*
G01*
D11*
%TO.C,D21*%
X15200000Y-6000000D02*
X17400000Y-6000000D01*
X15200000Y-7000000D02*
X15200000Y-7200000D01*
X17400000Y-7000000D02*
X17400000Y-7200000D01*
X17400000Y-8200000D02*
X15200000Y-8200000D01*
D12*
X14799800Y-7073000D02*
G75*
G02*
X14599800Y-7073000I-100000J0D01*
G01*
X14599800Y-7073000D02*
G75*
G02*
X14799800Y-7073000I100000J0D01*
G01*
D11*
%TO.C,D69*%
X15200000Y-33000000D02*
X17400000Y-33000000D01*
X15200000Y-34000000D02*
X15200000Y-34200000D01*
X17400000Y-34000000D02*
X17400000Y-34200000D01*
X17400000Y-35200000D02*
X15200000Y-35200000D01*
D12*
X14799800Y-34073000D02*
G75*
G02*
X14599800Y-34073000I-100000J0D01*
G01*
X14599800Y-34073000D02*
G75*
G02*
X14799800Y-34073000I100000J0D01*
G01*
D11*
%TO.C,D34*%
X1700000Y-15000000D02*
X3900000Y-15000000D01*
X1700000Y-16000000D02*
X1700000Y-16200000D01*
X3900000Y-16000000D02*
X3900000Y-16200000D01*
X3900000Y-17200000D02*
X1700000Y-17200000D01*
D12*
X1299800Y-16073000D02*
G75*
G02*
X1099800Y-16073000I-100000J0D01*
G01*
X1099800Y-16073000D02*
G75*
G02*
X1299800Y-16073000I100000J0D01*
G01*
D11*
%TO.C,D26*%
X1700000Y-10500000D02*
X3900000Y-10500000D01*
X1700000Y-11700000D02*
X1700000Y-11500000D01*
X3900000Y-11700000D02*
X3900000Y-11500000D01*
X3900000Y-12700000D02*
X1700000Y-12700000D01*
D12*
X4500200Y-11627000D02*
G75*
G02*
X4300200Y-11627000I-100000J0D01*
G01*
X4300200Y-11627000D02*
G75*
G02*
X4500200Y-11627000I100000J0D01*
G01*
D11*
%TO.C,D50*%
X1700000Y-24000000D02*
X3900000Y-24000000D01*
X1700000Y-25000000D02*
X1700000Y-25200000D01*
X3900000Y-25000000D02*
X3900000Y-25200000D01*
X3900000Y-26200000D02*
X1700000Y-26200000D01*
D12*
X1299800Y-25073000D02*
G75*
G02*
X1099800Y-25073000I-100000J0D01*
G01*
X1099800Y-25073000D02*
G75*
G02*
X1299800Y-25073000I100000J0D01*
G01*
D11*
%TO.C,D18*%
X1700000Y-6000000D02*
X3900000Y-6000000D01*
X1700000Y-7000000D02*
X1700000Y-7200000D01*
X3900000Y-7000000D02*
X3900000Y-7200000D01*
X3900000Y-8200000D02*
X1700000Y-8200000D01*
D12*
X1299800Y-7073000D02*
G75*
G02*
X1099800Y-7073000I-100000J0D01*
G01*
X1099800Y-7073000D02*
G75*
G02*
X1299800Y-7073000I100000J0D01*
G01*
D11*
%TO.C,D11*%
X6200000Y-1500000D02*
X8400000Y-1500000D01*
X6200000Y-2700000D02*
X6200000Y-2500000D01*
X8400000Y-2700000D02*
X8400000Y-2500000D01*
X8400000Y-3700000D02*
X6200000Y-3700000D01*
D12*
X9000200Y-2627000D02*
G75*
G02*
X8800200Y-2627000I-100000J0D01*
G01*
X8800200Y-2627000D02*
G75*
G02*
X9000200Y-2627000I100000J0D01*
G01*
D11*
%TO.C,D40*%
X28700000Y-15000000D02*
X30900000Y-15000000D01*
X28700000Y-16000000D02*
X28700000Y-16200000D01*
X30900000Y-16000000D02*
X30900000Y-16200000D01*
X30900000Y-17200000D02*
X28700000Y-17200000D01*
D12*
X28299800Y-16073000D02*
G75*
G02*
X28099800Y-16073000I-100000J0D01*
G01*
X28099800Y-16073000D02*
G75*
G02*
X28299800Y-16073000I100000J0D01*
G01*
D11*
%TO.C,D42*%
X1700000Y-19500000D02*
X3900000Y-19500000D01*
X1700000Y-20700000D02*
X1700000Y-20500000D01*
X3900000Y-20700000D02*
X3900000Y-20500000D01*
X3900000Y-21700000D02*
X1700000Y-21700000D01*
D12*
X4500200Y-20627000D02*
G75*
G02*
X4300200Y-20627000I-100000J0D01*
G01*
X4300200Y-20627000D02*
G75*
G02*
X4500200Y-20627000I100000J0D01*
G01*
D11*
%TO.C,D35*%
X6200000Y-15000000D02*
X8400000Y-15000000D01*
X6200000Y-16000000D02*
X6200000Y-16200000D01*
X8400000Y-16000000D02*
X8400000Y-16200000D01*
X8400000Y-17200000D02*
X6200000Y-17200000D01*
D12*
X5799800Y-16073000D02*
G75*
G02*
X5599800Y-16073000I-100000J0D01*
G01*
X5599800Y-16073000D02*
G75*
G02*
X5799800Y-16073000I100000J0D01*
G01*
%TD*%
M02*
