M48
; DRILL file {KiCad 9.0.7} date 2026-09-26T19:43:01+0200
; FORMAT={-:-/ absolute / metric / decimal}
; #@! TF.CreationDate,2026-09-26T19:43:01+02:00
; #@! TF.GenerationSoftware,Kicad,Pcbnew,9.0.7
; #@! TF.FileFunction,MixedPlating,1,2
FMAT,2
METRIC
; #@! TA.AperFunction,Plated,PTH,ViaDrill
T1C0.300
; #@! TA.AperFunction,Plated,PTH,ComponentDrill
T2C0.600
; #@! TA.AperFunction,NonPlated,NPTH,ComponentDrill
T3C0.650
%
G90
G05
T1
X3.4Y-38.5
X7.021Y-8.421
X8.205Y-13.415
X8.465Y-8.785
X9.4Y-37.0
X12.082Y-17.76
X14.8Y-37.0
X15.967Y-17.455
X20.8Y-38.5
X22.675Y-1.04
X26.8Y-37.0
X29.851Y-26.882
X31.097Y-27.058
X32.8Y-38.5
X36.7Y-10.6
X36.7Y-29.8
X39.647Y-26.524
X39.7Y-30.1
X40.064Y-12.123
X41.11Y-23.828
X42.167Y-15.314
X42.7Y-29.8
X44.338Y-12.666
X45.465Y-11.773
X45.7Y-30.7
X45.942Y-31.567
X47.188Y-22.628
X47.996Y-23.724
X48.7Y-31.0
X50.031Y-12.616
X50.912Y-12.512
X51.7Y-31.3
X52.888Y-16.541
X53.48Y-13.189
X53.602Y-20.92
X55.3Y-31.0
X57.1Y-12.7
X57.1Y-26.8
T3
X51.82Y-18.03
X51.82Y-23.81
T2
X51.87Y-16.6G85X50.77Y-16.6
G05
X51.87Y-25.24G85X50.77Y-25.24
G05
X55.9Y-16.6G85X55.1Y-16.6
G05
X55.9Y-25.24G85X55.1Y-25.24
G05
M30
